M48
; DRILL file {KiCad 7.0.8} date Wed Nov  8 10:55:20 2023
; FORMAT={-:-/ absolute / inch / decimal}
; #@! TF.CreationDate,2023-11-08T10:55:20-05:00
; #@! TF.GenerationSoftware,Kicad,Pcbnew,7.0.8
; #@! TF.FileFunction,Plated,1,2,PTH
FMAT,2
INCH
; #@! TA.AperFunction,Plated,PTH,ViaDrill
T1C0.0315
; #@! TA.AperFunction,Plated,PTH,ComponentDrill
T2C0.0315
%
G90
G05
T1
X3.2283Y-3.65
X3.2457Y-3.9543
X3.8Y-4.65
X3.95Y-2.75
X4.1Y-2.6
X4.15Y-2.95
X4.2Y-4.55
X4.35Y-2.6
X4.5Y-3.5
X5.25Y-3.5
X5.4Y-2.75
X5.9Y-3.0
X5.9Y-3.7
X6.2Y-4.4
T2
X3.4Y-3.8
X3.4Y-3.9
X3.4Y-4.0
X3.4Y-4.1
X3.4Y-4.2
X3.4Y-4.3
X3.4Y-4.4
X3.4Y-4.5
X3.6Y-3.5
X3.6002Y-3.2283
X3.7Y-3.5
X3.7002Y-3.2283
X3.8Y-3.5
X3.8002Y-3.2283
X3.9Y-3.5
X4.0Y-3.5
X4.0Y-3.8
X4.0Y-3.9
X4.0Y-4.0
X4.0Y-4.1
X4.0Y-4.2
X4.0Y-4.3
X4.0Y-4.4
X4.0Y-4.5
X4.1Y-3.5
X4.4Y-3.8
X4.4Y-3.9
X4.4Y-4.0
X4.4Y-4.1
X4.4Y-4.2
X4.4Y-4.3
X4.4Y-4.4
X4.4Y-4.5
X4.5Y-2.2
X4.5Y-3.8
X4.5Y-3.9
X4.5Y-4.0
X4.5Y-4.1
X4.5Y-4.2
X4.5Y-4.3
X4.5Y-4.4
X4.5Y-4.5
X4.6Y-2.2
X4.7Y-2.2
X4.8Y-2.2
X4.9Y-2.2
X5.0Y-2.2
X5.1Y-2.2
X5.2Y-3.8
X5.2Y-3.9
X5.2Y-4.0
X5.2Y-4.1
X5.2Y-4.2
X5.2Y-4.3
X5.2Y-4.4
X5.2Y-4.5
X5.3Y-3.8
X5.3Y-3.9
X5.3Y-4.0
X5.3Y-4.1
X5.3Y-4.2
X5.3Y-4.3
X5.3Y-4.4
X5.3Y-4.5
X5.6Y-3.5
X5.7Y-3.5
X5.7Y-3.8
X5.7Y-3.9
X5.7Y-4.0
X5.7Y-4.1
X5.7Y-4.2
X5.7Y-4.3
X5.7Y-4.4
X5.7Y-4.5
X5.7016Y-3.3071
X5.8Y-3.5
X5.8984Y-3.3071
X5.9Y-3.5
X6.0Y-3.5
X6.1Y-3.5
X6.3Y-3.8
X6.3Y-3.9
X6.3Y-4.0
X6.3Y-4.1
X6.3Y-4.2
X6.3Y-4.3
X6.3Y-4.4
X6.3Y-4.5
T0
M30
