  0
SECTION
  2
HEADER
  9
$ANGBASE
  50
0.0
  9
$ANGDIR
  70
1
  9
$MEASUREMENT
  70
0
  0
ENDSEC
  0
SECTION
  2
TABLES
  0
TABLE
  2
LTYPE
  70
4
  0
LTYPE
  5
40F
  2
CONTINUOUS
  70
0
  3
Solid line
  72
65
  73
0
  40
0.0
  0
LTYPE
  5
410
  2
DASHDOT
 70
0
  3
Dash Dot ____ _ ____ _
 72
65
 73
4
 40
2.0
 49
1.25
 49
-0.25
 49
0.25
 49
-0.25
  0
LTYPE
  5
411
  2
DASHED
 70
0
  3
Dashed __ __ __ __ __
 72
65
 73
2
 40
0.75
 49
0.5
 49
-0.25
  0
LTYPE
  5
43B
  2
DOTTED
 70
0
  3
Dotted .  .  .  .
 72
65
 73
2
 40
0.2
 49
0.0
 49
-0.2
  0
ENDTAB
  0
TABLE
  2
STYLE
  70
4
  0
STYLE
  2
KICAD
  70
0
  40
0
  41
1
  42
1
  50
0
  71
0
  3
isocp.shx
  0
STYLE
  2
KICADB
  70
0
  40
0
  41
1
  42
1
  50
0
  71
0
  3
isocp.shx
  0
STYLE
  2
KICADI
  70
0
  40
0
  41
1
  42
1
  50
15
  71
0
  3
isocp.shx
  0
STYLE
  2
KICADBI
  70
0
  40
0
  41
1
  42
1
  50
15
  71
0
  3
isocp.shx
  0
ENDTAB
  0
TABLE
  2
LAYER
  70
1
  0
LAYER
  2
BLACK
  70
0
  62
7
  6
CONTINUOUS
  0
ENDTAB
  0
ENDSEC
  0
SECTION
  2
ENTITIES
0
LINE
8
BLACK
6
CONTINUOUS
10
3.51348
20
-5.27437
11
3.52279
21
-5.27661
0
LINE
8
BLACK
6
CONTINUOUS
10
3.52279
20
-5.27661
11
3.53164
21
-5.28027
0
LINE
8
BLACK
6
CONTINUOUS
10
3.53164
20
-5.28027
11
3.53981
21
-5.28528
0
LINE
8
BLACK
6
CONTINUOUS
10
3.53981
20
-5.28528
11
3.54709
21
-5.2915
0
LINE
8
BLACK
6
CONTINUOUS
10
3.54709
20
-5.2915
11
3.55331
21
-5.29878
0
LINE
8
BLACK
6
CONTINUOUS
10
3.55331
20
-5.29878
11
3.55831
21
-5.30694
0
LINE
8
BLACK
6
CONTINUOUS
10
3.55831
20
-5.30694
11
3.56197
21
-5.31579
0
LINE
8
BLACK
6
CONTINUOUS
10
3.56197
20
-5.31579
11
3.56421
21
-5.3251
0
LINE
8
BLACK
6
CONTINUOUS
10
3.56421
20
-5.3251
11
3.56496
21
-5.33465
0
LINE
8
BLACK
6
CONTINUOUS
10
3.56496
20
-5.33465
11
3.56421
21
-5.34419
0
LINE
8
BLACK
6
CONTINUOUS
10
3.56421
20
-5.34419
11
3.56197
21
-5.3535
0
LINE
8
BLACK
6
CONTINUOUS
10
3.56197
20
-5.3535
11
3.55831
21
-5.36235
0
LINE
8
BLACK
6
CONTINUOUS
10
3.55831
20
-5.36235
11
3.55331
21
-5.37051
0
LINE
8
BLACK
6
CONTINUOUS
10
3.55331
20
-5.37051
11
3.54709
21
-5.3778
0
LINE
8
BLACK
6
CONTINUOUS
10
3.54709
20
-5.3778
11
3.53981
21
-5.38401
0
LINE
8
BLACK
6
CONTINUOUS
10
3.53981
20
-5.38401
11
3.53164
21
-5.38902
0
LINE
8
BLACK
6
CONTINUOUS
10
3.53164
20
-5.38902
11
3.52279
21
-5.39268
0
LINE
8
BLACK
6
CONTINUOUS
10
3.52279
20
-5.39268
11
3.51348
21
-5.39492
0
LINE
8
BLACK
6
CONTINUOUS
10
3.51348
20
-5.39492
11
3.50394
21
-5.39567
0
LINE
8
BLACK
6
CONTINUOUS
10
3.50394
20
-5.39567
11
3.49439
21
-5.39492
0
LINE
8
BLACK
6
CONTINUOUS
10
3.49439
20
-5.39492
11
3.48508
21
-5.39268
0
LINE
8
BLACK
6
CONTINUOUS
10
3.48508
20
-5.39268
11
3.47623
21
-5.38902
0
LINE
8
BLACK
6
CONTINUOUS
10
3.47623
20
-5.38902
11
3.46807
21
-5.38401
0
LINE
8
BLACK
6
CONTINUOUS
10
3.46807
20
-5.38401
11
3.46079
21
-5.3778
0
LINE
8
BLACK
6
CONTINUOUS
10
3.46079
20
-5.3778
11
3.45457
21
-5.37051
0
LINE
8
BLACK
6
CONTINUOUS
10
3.45457
20
-5.37051
11
3.44956
21
-5.36235
0
LINE
8
BLACK
6
CONTINUOUS
10
3.44956
20
-5.36235
11
3.4459
21
-5.3535
0
LINE
8
BLACK
6
CONTINUOUS
10
3.4459
20
-5.3535
11
3.44366
21
-5.34419
0
LINE
8
BLACK
6
CONTINUOUS
10
3.44366
20
-5.34419
11
3.44291
21
-5.33465
0
LINE
8
BLACK
6
CONTINUOUS
10
3.44291
20
-5.33465
11
3.44366
21
-5.3251
0
LINE
8
BLACK
6
CONTINUOUS
10
3.44366
20
-5.3251
11
3.4459
21
-5.31579
0
LINE
8
BLACK
6
CONTINUOUS
10
3.4459
20
-5.31579
11
3.44956
21
-5.30694
0
LINE
8
BLACK
6
CONTINUOUS
10
3.44956
20
-5.30694
11
3.45457
21
-5.29878
0
LINE
8
BLACK
6
CONTINUOUS
10
3.45457
20
-5.29878
11
3.46079
21
-5.2915
0
LINE
8
BLACK
6
CONTINUOUS
10
3.46079
20
-5.2915
11
3.46807
21
-5.28528
0
LINE
8
BLACK
6
CONTINUOUS
10
3.46807
20
-5.28528
11
3.47623
21
-5.28027
0
LINE
8
BLACK
6
CONTINUOUS
10
3.47623
20
-5.28027
11
3.48508
21
-5.27661
0
LINE
8
BLACK
6
CONTINUOUS
10
3.48508
20
-5.27661
11
3.49439
21
-5.27437
0
LINE
8
BLACK
6
CONTINUOUS
10
3.49439
20
-5.27437
11
3.50394
21
-5.27362
0
LINE
8
BLACK
6
CONTINUOUS
10
3.50394
20
-5.27362
11
3.51348
21
-5.27437
0
LINE
8
BLACK
6
CONTINUOUS
10
3.44744
20
-5.34407
11
3.44976
21
-5.35325
0
LINE
8
BLACK
6
CONTINUOUS
10
3.44976
20
-5.35325
11
3.45356
21
-5.36191
0
LINE
8
BLACK
6
CONTINUOUS
10
3.45356
20
-5.36191
11
3.45873
21
-5.36983
0
LINE
8
BLACK
6
CONTINUOUS
10
3.45873
20
-5.36983
11
3.46514
21
-5.37679
0
LINE
8
BLACK
6
CONTINUOUS
10
3.46514
20
-5.37679
11
3.47261
21
-5.3826
0
LINE
8
BLACK
6
CONTINUOUS
10
3.47261
20
-5.3826
11
3.48093
21
-5.3871
0
LINE
8
BLACK
6
CONTINUOUS
10
3.48093
20
-5.3871
11
3.48988
21
-5.39018
0
LINE
8
BLACK
6
CONTINUOUS
10
3.48988
20
-5.39018
11
3.49921
21
-5.39173
0
LINE
8
BLACK
6
CONTINUOUS
10
3.49921
20
-5.39173
11
3.50867
21
-5.39173
0
LINE
8
BLACK
6
CONTINUOUS
10
3.50867
20
-5.39173
11
3.518
21
-5.39018
0
LINE
8
BLACK
6
CONTINUOUS
10
3.518
20
-5.39018
11
3.52695
21
-5.3871
0
LINE
8
BLACK
6
CONTINUOUS
10
3.52695
20
-5.3871
11
3.53527
21
-5.3826
0
LINE
8
BLACK
6
CONTINUOUS
10
3.53527
20
-5.3826
11
3.54273
21
-5.37679
0
LINE
8
BLACK
6
CONTINUOUS
10
3.54273
20
-5.37679
11
3.54914
21
-5.36983
0
LINE
8
BLACK
6
CONTINUOUS
10
3.54914
20
-5.36983
11
3.55432
21
-5.36191
0
LINE
8
BLACK
6
CONTINUOUS
10
3.55432
20
-5.36191
11
3.55812
21
-5.35325
0
LINE
8
BLACK
6
CONTINUOUS
10
3.55812
20
-5.35325
11
3.56044
21
-5.34407
0
LINE
8
BLACK
6
CONTINUOUS
10
3.56044
20
-5.34407
11
3.56122
21
-5.33465
0
LINE
8
BLACK
6
CONTINUOUS
10
3.56122
20
-5.33465
11
3.56044
21
-5.32522
0
LINE
8
BLACK
6
CONTINUOUS
10
3.56044
20
-5.32522
11
3.55812
21
-5.31605
0
LINE
8
BLACK
6
CONTINUOUS
10
3.55812
20
-5.31605
11
3.55432
21
-5.30738
0
LINE
8
BLACK
6
CONTINUOUS
10
3.55432
20
-5.30738
11
3.54914
21
-5.29946
0
LINE
8
BLACK
6
CONTINUOUS
10
3.54914
20
-5.29946
11
3.54273
21
-5.2925
0
LINE
8
BLACK
6
CONTINUOUS
10
3.54273
20
-5.2925
11
3.53527
21
-5.28669
0
LINE
8
BLACK
6
CONTINUOUS
10
3.53527
20
-5.28669
11
3.52695
21
-5.28219
0
LINE
8
BLACK
6
CONTINUOUS
10
3.52695
20
-5.28219
11
3.518
21
-5.27912
0
LINE
8
BLACK
6
CONTINUOUS
10
3.518
20
-5.27912
11
3.50867
21
-5.27756
0
LINE
8
BLACK
6
CONTINUOUS
10
3.50867
20
-5.27756
11
3.49921
21
-5.27756
0
LINE
8
BLACK
6
CONTINUOUS
10
3.49921
20
-5.27756
11
3.48988
21
-5.27912
0
LINE
8
BLACK
6
CONTINUOUS
10
3.48988
20
-5.27912
11
3.48093
21
-5.28219
0
LINE
8
BLACK
6
CONTINUOUS
10
3.48093
20
-5.28219
11
3.47261
21
-5.28669
0
LINE
8
BLACK
6
CONTINUOUS
10
3.47261
20
-5.28669
11
3.46514
21
-5.2925
0
LINE
8
BLACK
6
CONTINUOUS
10
3.46514
20
-5.2925
11
3.45873
21
-5.29946
0
LINE
8
BLACK
6
CONTINUOUS
10
3.45873
20
-5.29946
11
3.45356
21
-5.30738
0
LINE
8
BLACK
6
CONTINUOUS
10
3.45356
20
-5.30738
11
3.44976
21
-5.31605
0
LINE
8
BLACK
6
CONTINUOUS
10
3.44976
20
-5.31605
11
3.44744
21
-5.32522
0
LINE
8
BLACK
6
CONTINUOUS
10
3.44744
20
-5.32522
11
3.44665
21
-5.33465
0
LINE
8
BLACK
6
CONTINUOUS
10
3.44665
20
-5.33465
11
3.44744
21
-5.34407
0
LINE
8
BLACK
6
CONTINUOUS
10
8.57254
20
-5.27437
11
8.58185
21
-5.27661
0
LINE
8
BLACK
6
CONTINUOUS
10
8.58185
20
-5.27661
11
8.5907
21
-5.28027
0
LINE
8
BLACK
6
CONTINUOUS
10
8.5907
20
-5.28027
11
8.59886
21
-5.28528
0
LINE
8
BLACK
6
CONTINUOUS
10
8.59886
20
-5.28528
11
8.60614
21
-5.2915
0
LINE
8
BLACK
6
CONTINUOUS
10
8.60614
20
-5.2915
11
8.61236
21
-5.29878
0
LINE
8
BLACK
6
CONTINUOUS
10
8.61236
20
-5.29878
11
8.61736
21
-5.30694
0
LINE
8
BLACK
6
CONTINUOUS
10
8.61736
20
-5.30694
11
8.62103
21
-5.31579
0
LINE
8
BLACK
6
CONTINUOUS
10
8.62103
20
-5.31579
11
8.62326
21
-5.3251
0
LINE
8
BLACK
6
CONTINUOUS
10
8.62326
20
-5.3251
11
8.62402
21
-5.33465
0
LINE
8
BLACK
6
CONTINUOUS
10
8.62402
20
-5.33465
11
8.62326
21
-5.34419
0
LINE
8
BLACK
6
CONTINUOUS
10
8.62326
20
-5.34419
11
8.62103
21
-5.3535
0
LINE
8
BLACK
6
CONTINUOUS
10
8.62103
20
-5.3535
11
8.61736
21
-5.36235
0
LINE
8
BLACK
6
CONTINUOUS
10
8.61736
20
-5.36235
11
8.61236
21
-5.37051
0
LINE
8
BLACK
6
CONTINUOUS
10
8.61236
20
-5.37051
11
8.60614
21
-5.3778
0
LINE
8
BLACK
6
CONTINUOUS
10
8.60614
20
-5.3778
11
8.59886
21
-5.38401
0
LINE
8
BLACK
6
CONTINUOUS
10
8.59886
20
-5.38401
11
8.5907
21
-5.38902
0
LINE
8
BLACK
6
CONTINUOUS
10
8.5907
20
-5.38902
11
8.58185
21
-5.39268
0
LINE
8
BLACK
6
CONTINUOUS
10
8.58185
20
-5.39268
11
8.57254
21
-5.39492
0
LINE
8
BLACK
6
CONTINUOUS
10
8.57254
20
-5.39492
11
8.56299
21
-5.39567
0
LINE
8
BLACK
6
CONTINUOUS
10
8.56299
20
-5.39567
11
8.55345
21
-5.39492
0
LINE
8
BLACK
6
CONTINUOUS
10
8.55345
20
-5.39492
11
8.54413
21
-5.39268
0
LINE
8
BLACK
6
CONTINUOUS
10
8.54413
20
-5.39268
11
8.53529
21
-5.38902
0
LINE
8
BLACK
6
CONTINUOUS
10
8.53529
20
-5.38902
11
8.52712
21
-5.38401
0
LINE
8
BLACK
6
CONTINUOUS
10
8.52712
20
-5.38401
11
8.51984
21
-5.3778
0
LINE
8
BLACK
6
CONTINUOUS
10
8.51984
20
-5.3778
11
8.51362
21
-5.37051
0
LINE
8
BLACK
6
CONTINUOUS
10
8.51362
20
-5.37051
11
8.50862
21
-5.36235
0
LINE
8
BLACK
6
CONTINUOUS
10
8.50862
20
-5.36235
11
8.50496
21
-5.3535
0
LINE
8
BLACK
6
CONTINUOUS
10
8.50496
20
-5.3535
11
8.50272
21
-5.34419
0
LINE
8
BLACK
6
CONTINUOUS
10
8.50272
20
-5.34419
11
8.50197
21
-5.33465
0
LINE
8
BLACK
6
CONTINUOUS
10
8.50197
20
-5.33465
11
8.50272
21
-5.3251
0
LINE
8
BLACK
6
CONTINUOUS
10
8.50272
20
-5.3251
11
8.50496
21
-5.31579
0
LINE
8
BLACK
6
CONTINUOUS
10
8.50496
20
-5.31579
11
8.50862
21
-5.30694
0
LINE
8
BLACK
6
CONTINUOUS
10
8.50862
20
-5.30694
11
8.51362
21
-5.29878
0
LINE
8
BLACK
6
CONTINUOUS
10
8.51362
20
-5.29878
11
8.51984
21
-5.2915
0
LINE
8
BLACK
6
CONTINUOUS
10
8.51984
20
-5.2915
11
8.52712
21
-5.28528
0
LINE
8
BLACK
6
CONTINUOUS
10
8.52712
20
-5.28528
11
8.53529
21
-5.28027
0
LINE
8
BLACK
6
CONTINUOUS
10
8.53529
20
-5.28027
11
8.54413
21
-5.27661
0
LINE
8
BLACK
6
CONTINUOUS
10
8.54413
20
-5.27661
11
8.55345
21
-5.27437
0
LINE
8
BLACK
6
CONTINUOUS
10
8.55345
20
-5.27437
11
8.56299
21
-5.27362
0
LINE
8
BLACK
6
CONTINUOUS
10
8.56299
20
-5.27362
11
8.57254
21
-5.27437
0
LINE
8
BLACK
6
CONTINUOUS
10
8.50649
20
-5.34407
11
8.50881
21
-5.35325
0
LINE
8
BLACK
6
CONTINUOUS
10
8.50881
20
-5.35325
11
8.51261
21
-5.36191
0
LINE
8
BLACK
6
CONTINUOUS
10
8.51261
20
-5.36191
11
8.51779
21
-5.36983
0
LINE
8
BLACK
6
CONTINUOUS
10
8.51779
20
-5.36983
11
8.5242
21
-5.37679
0
LINE
8
BLACK
6
CONTINUOUS
10
8.5242
20
-5.37679
11
8.53166
21
-5.3826
0
LINE
8
BLACK
6
CONTINUOUS
10
8.53166
20
-5.3826
11
8.53998
21
-5.3871
0
LINE
8
BLACK
6
CONTINUOUS
10
8.53998
20
-5.3871
11
8.54893
21
-5.39018
0
LINE
8
BLACK
6
CONTINUOUS
10
8.54893
20
-5.39018
11
8.55826
21
-5.39173
0
LINE
8
BLACK
6
CONTINUOUS
10
8.55826
20
-5.39173
11
8.56772
21
-5.39173
0
LINE
8
BLACK
6
CONTINUOUS
10
8.56772
20
-5.39173
11
8.57705
21
-5.39018
0
LINE
8
BLACK
6
CONTINUOUS
10
8.57705
20
-5.39018
11
8.586
21
-5.3871
0
LINE
8
BLACK
6
CONTINUOUS
10
8.586
20
-5.3871
11
8.59432
21
-5.3826
0
LINE
8
BLACK
6
CONTINUOUS
10
8.59432
20
-5.3826
11
8.60179
21
-5.37679
0
LINE
8
BLACK
6
CONTINUOUS
10
8.60179
20
-5.37679
11
8.6082
21
-5.36983
0
LINE
8
BLACK
6
CONTINUOUS
10
8.6082
20
-5.36983
11
8.61337
21
-5.36191
0
LINE
8
BLACK
6
CONTINUOUS
10
8.61337
20
-5.36191
11
8.61717
21
-5.35325
0
LINE
8
BLACK
6
CONTINUOUS
10
8.61717
20
-5.35325
11
8.61949
21
-5.34407
0
LINE
8
BLACK
6
CONTINUOUS
10
8.61949
20
-5.34407
11
8.62027
21
-5.33465
0
LINE
8
BLACK
6
CONTINUOUS
10
8.62027
20
-5.33465
11
8.61949
21
-5.32522
0
LINE
8
BLACK
6
CONTINUOUS
10
8.61949
20
-5.32522
11
8.61717
21
-5.31605
0
LINE
8
BLACK
6
CONTINUOUS
10
8.61717
20
-5.31605
11
8.61337
21
-5.30738
0
LINE
8
BLACK
6
CONTINUOUS
10
8.61337
20
-5.30738
11
8.6082
21
-5.29946
0
LINE
8
BLACK
6
CONTINUOUS
10
8.6082
20
-5.29946
11
8.60179
21
-5.2925
0
LINE
8
BLACK
6
CONTINUOUS
10
8.60179
20
-5.2925
11
8.59432
21
-5.28669
0
LINE
8
BLACK
6
CONTINUOUS
10
8.59432
20
-5.28669
11
8.586
21
-5.28219
0
LINE
8
BLACK
6
CONTINUOUS
10
8.586
20
-5.28219
11
8.57705
21
-5.27912
0
LINE
8
BLACK
6
CONTINUOUS
10
8.57705
20
-5.27912
11
8.56772
21
-5.27756
0
LINE
8
BLACK
6
CONTINUOUS
10
8.56772
20
-5.27756
11
8.55826
21
-5.27756
0
LINE
8
BLACK
6
CONTINUOUS
10
8.55826
20
-5.27756
11
8.54893
21
-5.27912
0
LINE
8
BLACK
6
CONTINUOUS
10
8.54893
20
-5.27912
11
8.53998
21
-5.28219
0
LINE
8
BLACK
6
CONTINUOUS
10
8.53998
20
-5.28219
11
8.53166
21
-5.28669
0
LINE
8
BLACK
6
CONTINUOUS
10
8.53166
20
-5.28669
11
8.5242
21
-5.2925
0
LINE
8
BLACK
6
CONTINUOUS
10
8.5242
20
-5.2925
11
8.51779
21
-5.29946
0
LINE
8
BLACK
6
CONTINUOUS
10
8.51779
20
-5.29946
11
8.51261
21
-5.30738
0
LINE
8
BLACK
6
CONTINUOUS
10
8.51261
20
-5.30738
11
8.50881
21
-5.31605
0
LINE
8
BLACK
6
CONTINUOUS
10
8.50881
20
-5.31605
11
8.50649
21
-5.32522
0
LINE
8
BLACK
6
CONTINUOUS
10
8.50649
20
-5.32522
11
8.50571
21
-5.33465
0
LINE
8
BLACK
6
CONTINUOUS
10
8.50571
20
-5.33465
11
8.50649
21
-5.34407
0
LINE
8
BLACK
6
CONTINUOUS
10
6.15354
20
-3.2675
11
6.18755
21
-3.2706
0
LINE
8
BLACK
6
CONTINUOUS
10
6.18755
20
-3.2706
11
6.22137
21
-3.27525
0
LINE
8
BLACK
6
CONTINUOUS
10
6.22137
20
-3.27525
11
6.25495
21
-3.28143
0
LINE
8
BLACK
6
CONTINUOUS
10
6.25495
20
-3.28143
11
6.28822
21
-3.28914
0
LINE
8
BLACK
6
CONTINUOUS
10
6.28822
20
-3.28914
11
6.3211
21
-3.29835
0
LINE
8
BLACK
6
CONTINUOUS
10
6.3211
20
-3.29835
11
6.35352
21
-3.30905
0
LINE
8
BLACK
6
CONTINUOUS
10
6.35352
20
-3.30905
11
6.38543
21
-3.32122
0
LINE
8
BLACK
6
CONTINUOUS
10
6.38543
20
-3.32122
11
6.41674
21
-3.33482
0
LINE
8
BLACK
6
CONTINUOUS
10
6.41674
20
-3.33482
11
6.44741
21
-3.34983
0
LINE
8
BLACK
6
CONTINUOUS
10
6.44741
20
-3.34983
11
6.47736
21
-3.36623
0
LINE
8
BLACK
6
CONTINUOUS
10
6.47736
20
-3.36623
11
6.50654
21
-3.38397
0
LINE
8
BLACK
6
CONTINUOUS
10
6.50654
20
-3.38397
11
6.53487
21
-3.40302
0
LINE
8
BLACK
6
CONTINUOUS
10
6.53487
20
-3.40302
11
6.56231
21
-3.42334
0
LINE
8
BLACK
6
CONTINUOUS
10
6.56231
20
-3.42334
11
6.5888
21
-3.44489
0
LINE
8
BLACK
6
CONTINUOUS
10
6.5888
20
-3.44489
11
6.61428
21
-3.46762
0
LINE
8
BLACK
6
CONTINUOUS
10
6.61428
20
-3.46762
11
6.63869
21
-3.49149
0
LINE
8
BLACK
6
CONTINUOUS
10
6.63869
20
-3.49149
11
6.662
21
-3.51644
0
LINE
8
BLACK
6
CONTINUOUS
10
6.662
20
-3.51644
11
6.68415
21
-3.54243
0
LINE
8
BLACK
6
CONTINUOUS
10
6.68415
20
-3.54243
11
6.70509
21
-3.5694
0
LINE
8
BLACK
6
CONTINUOUS
10
6.70509
20
-3.5694
11
6.72478
21
-3.5973
0
LINE
8
BLACK
6
CONTINUOUS
10
6.72478
20
-3.5973
11
6.74318
21
-3.62606
0
LINE
8
BLACK
6
CONTINUOUS
10
6.74318
20
-3.62606
11
6.76025
21
-3.65563
0
LINE
8
BLACK
6
CONTINUOUS
10
6.76025
20
-3.65563
11
6.77596
21
-3.68595
0
LINE
8
BLACK
6
CONTINUOUS
10
6.77596
20
-3.68595
11
6.79027
21
-3.71695
0
LINE
8
BLACK
6
CONTINUOUS
10
6.79027
20
-3.71695
11
6.80316
21
-3.74857
0
LINE
8
BLACK
6
CONTINUOUS
10
6.80316
20
-3.74857
11
6.81459
21
-3.78074
0
LINE
8
BLACK
6
CONTINUOUS
10
6.81459
20
-3.78074
11
6.82455
21
-3.8134
0
LINE
8
BLACK
6
CONTINUOUS
10
6.82455
20
-3.8134
11
6.83301
21
-3.84648
0
LINE
8
BLACK
6
CONTINUOUS
10
6.83301
20
-3.84648
11
6.83996
21
-3.87991
0
LINE
8
BLACK
6
CONTINUOUS
10
6.83996
20
-3.87991
11
6.84538
21
-3.91362
0
LINE
8
BLACK
6
CONTINUOUS
10
6.84538
20
-3.91362
11
6.84925
21
-3.94755
0
LINE
8
BLACK
6
CONTINUOUS
10
6.84925
20
-3.94755
11
6.85158
21
-3.98161
0
LINE
8
BLACK
6
CONTINUOUS
10
6.85158
20
-3.98161
11
6.85236
21
-4.01575
0
LINE
8
BLACK
6
CONTINUOUS
10
6.85236
20
-4.01575
11
6.85158
21
-4.04988
0
LINE
8
BLACK
6
CONTINUOUS
10
6.85158
20
-4.04988
11
6.84925
21
-4.08395
0
LINE
8
BLACK
6
CONTINUOUS
10
6.84925
20
-4.08395
11
6.84538
21
-4.11787
0
LINE
8
BLACK
6
CONTINUOUS
10
6.84538
20
-4.11787
11
6.83996
21
-4.15159
0
LINE
8
BLACK
6
CONTINUOUS
10
6.83996
20
-4.15159
11
6.83301
21
-4.18502
0
LINE
8
BLACK
6
CONTINUOUS
10
6.83301
20
-4.18502
11
6.82455
21
-4.2181
0
LINE
8
BLACK
6
CONTINUOUS
10
6.82455
20
-4.2181
11
6.81459
21
-4.25076
0
LINE
8
BLACK
6
CONTINUOUS
10
6.81459
20
-4.25076
11
6.80316
21
-4.28293
0
LINE
8
BLACK
6
CONTINUOUS
10
6.80316
20
-4.28293
11
6.79027
21
-4.31455
0
LINE
8
BLACK
6
CONTINUOUS
10
6.79027
20
-4.31455
11
6.77596
21
-4.34555
0
LINE
8
BLACK
6
CONTINUOUS
10
6.77596
20
-4.34555
11
6.76025
21
-4.37587
0
LINE
8
BLACK
6
CONTINUOUS
10
6.76025
20
-4.37587
11
6.74318
21
-4.40544
0
LINE
8
BLACK
6
CONTINUOUS
10
6.74318
20
-4.40544
11
6.72478
21
-4.4342
0
LINE
8
BLACK
6
CONTINUOUS
10
6.72478
20
-4.4342
11
6.70509
21
-4.46209
0
LINE
8
BLACK
6
CONTINUOUS
10
6.70509
20
-4.46209
11
6.68415
21
-4.48906
0
LINE
8
BLACK
6
CONTINUOUS
10
6.68415
20
-4.48906
11
6.662
21
-4.51505
0
LINE
8
BLACK
6
CONTINUOUS
10
6.662
20
-4.51505
11
6.63869
21
-4.54001
0
LINE
8
BLACK
6
CONTINUOUS
10
6.63869
20
-4.54001
11
6.61428
21
-4.56387
0
LINE
8
BLACK
6
CONTINUOUS
10
6.61428
20
-4.56387
11
6.5888
21
-4.58661
0
LINE
8
BLACK
6
CONTINUOUS
10
6.5888
20
-4.58661
11
6.56231
21
-4.60815
0
LINE
8
BLACK
6
CONTINUOUS
10
6.56231
20
-4.60815
11
6.53487
21
-4.62848
0
LINE
8
BLACK
6
CONTINUOUS
10
6.53487
20
-4.62848
11
6.50654
21
-4.64753
0
LINE
8
BLACK
6
CONTINUOUS
10
6.50654
20
-4.64753
11
6.47736
21
-4.66527
0
LINE
8
BLACK
6
CONTINUOUS
10
6.47736
20
-4.66527
11
6.44741
21
-4.68166
0
LINE
8
BLACK
6
CONTINUOUS
10
6.44741
20
-4.68166
11
6.41674
21
-4.69668
0
LINE
8
BLACK
6
CONTINUOUS
10
6.41674
20
-4.69668
11
6.38543
21
-4.71028
0
LINE
8
BLACK
6
CONTINUOUS
10
6.38543
20
-4.71028
11
6.35352
21
-4.72244
0
LINE
8
BLACK
6
CONTINUOUS
10
6.35352
20
-4.72244
11
6.3211
21
-4.73314
0
LINE
8
BLACK
6
CONTINUOUS
10
6.3211
20
-4.73314
11
6.28822
21
-4.74235
0
LINE
8
BLACK
6
CONTINUOUS
10
6.28822
20
-4.74235
11
6.25495
21
-4.75006
0
LINE
8
BLACK
6
CONTINUOUS
10
6.25495
20
-4.75006
11
6.22137
21
-4.75625
0
LINE
8
BLACK
6
CONTINUOUS
10
6.22137
20
-4.75625
11
6.18755
21
-4.76089
0
LINE
8
BLACK
6
CONTINUOUS
10
6.18755
20
-4.76089
11
6.15354
21
-4.764
0
LINE
8
BLACK
6
CONTINUOUS
10
6.15354
20
-4.764
11
6.11943
21
-4.76555
0
LINE
8
BLACK
6
CONTINUOUS
10
6.11943
20
-4.76555
11
6.08529
21
-4.76555
0
LINE
8
BLACK
6
CONTINUOUS
10
6.08529
20
-4.76555
11
6.05118
21
-4.764
0
LINE
8
BLACK
6
CONTINUOUS
10
6.05118
20
-4.764
11
6.01718
21
-4.76089
0
LINE
8
BLACK
6
CONTINUOUS
10
6.01718
20
-4.76089
11
5.98335
21
-4.75625
0
LINE
8
BLACK
6
CONTINUOUS
10
5.98335
20
-4.75625
11
5.94977
21
-4.75006
0
LINE
8
BLACK
6
CONTINUOUS
10
5.94977
20
-4.75006
11
5.91651
21
-4.74235
0
LINE
8
BLACK
6
CONTINUOUS
10
5.91651
20
-4.74235
11
5.88363
21
-4.73314
0
LINE
8
BLACK
6
CONTINUOUS
10
5.88363
20
-4.73314
11
5.8512
21
-4.72244
0
LINE
8
BLACK
6
CONTINUOUS
10
5.8512
20
-4.72244
11
5.8193
21
-4.71028
0
LINE
8
BLACK
6
CONTINUOUS
10
5.8193
20
-4.71028
11
5.78798
21
-4.69668
0
LINE
8
BLACK
6
CONTINUOUS
10
5.78798
20
-4.69668
11
5.75731
21
-4.68166
0
LINE
8
BLACK
6
CONTINUOUS
10
5.75731
20
-4.68166
11
5.72736
21
-4.66527
0
LINE
8
BLACK
6
CONTINUOUS
10
5.72736
20
-4.66527
11
5.69819
21
-4.64753
0
LINE
8
BLACK
6
CONTINUOUS
10
5.69819
20
-4.64753
11
5.66985
21
-4.62848
0
LINE
8
BLACK
6
CONTINUOUS
10
5.66985
20
-4.62848
11
5.64241
21
-4.60815
0
LINE
8
BLACK
6
CONTINUOUS
10
5.64241
20
-4.60815
11
5.61593
21
-4.58661
0
LINE
8
BLACK
6
CONTINUOUS
10
5.61593
20
-4.58661
11
5.59045
21
-4.56387
0
LINE
8
BLACK
6
CONTINUOUS
10
5.59045
20
-4.56387
11
5.56603
21
-4.54001
0
LINE
8
BLACK
6
CONTINUOUS
10
5.56603
20
-4.54001
11
5.54272
21
-4.51505
0
LINE
8
BLACK
6
CONTINUOUS
10
5.54272
20
-4.51505
11
5.52058
21
-4.48906
0
LINE
8
BLACK
6
CONTINUOUS
10
5.52058
20
-4.48906
11
5.49964
21
-4.46209
0
LINE
8
BLACK
6
CONTINUOUS
10
5.49964
20
-4.46209
11
5.47995
21
-4.4342
0
LINE
8
BLACK
6
CONTINUOUS
10
5.47995
20
-4.4342
11
5.46155
21
-4.40544
0
LINE
8
BLACK
6
CONTINUOUS
10
5.46155
20
-4.40544
11
5.44448
21
-4.37587
0
LINE
8
BLACK
6
CONTINUOUS
10
5.44448
20
-4.37587
11
5.42877
21
-4.34555
0
LINE
8
BLACK
6
CONTINUOUS
10
5.42877
20
-4.34555
11
5.41445
21
-4.31455
0
LINE
8
BLACK
6
CONTINUOUS
10
5.41445
20
-4.31455
11
5.40157
21
-4.28293
0
LINE
8
BLACK
6
CONTINUOUS
10
5.40157
20
-4.28293
11
5.39013
21
-4.25076
0
LINE
8
BLACK
6
CONTINUOUS
10
5.39013
20
-4.25076
11
5.38017
21
-4.2181
0
LINE
8
BLACK
6
CONTINUOUS
10
5.38017
20
-4.2181
11
5.37171
21
-4.18502
0
LINE
8
BLACK
6
CONTINUOUS
10
5.37171
20
-4.18502
11
5.36477
21
-4.15159
0
LINE
8
BLACK
6
CONTINUOUS
10
5.36477
20
-4.15159
11
5.35935
21
-4.11787
0
LINE
8
BLACK
6
CONTINUOUS
10
5.35935
20
-4.11787
11
5.35547
21
-4.08395
0
LINE
8
BLACK
6
CONTINUOUS
10
5.35547
20
-4.08395
11
5.35314
21
-4.04988
0
LINE
8
BLACK
6
CONTINUOUS
10
5.35314
20
-4.04988
11
5.35236
21
-4.01575
0
LINE
8
BLACK
6
CONTINUOUS
10
5.35236
20
-4.01575
11
5.35314
21
-3.98161
0
LINE
8
BLACK
6
CONTINUOUS
10
5.35314
20
-3.98161
11
5.35547
21
-3.94755
0
LINE
8
BLACK
6
CONTINUOUS
10
5.35547
20
-3.94755
11
5.35935
21
-3.91362
0
LINE
8
BLACK
6
CONTINUOUS
10
5.35935
20
-3.91362
11
5.36477
21
-3.87991
0
LINE
8
BLACK
6
CONTINUOUS
10
5.36477
20
-3.87991
11
5.37171
21
-3.84648
0
LINE
8
BLACK
6
CONTINUOUS
10
5.37171
20
-3.84648
11
5.38017
21
-3.8134
0
LINE
8
BLACK
6
CONTINUOUS
10
5.38017
20
-3.8134
11
5.39013
21
-3.78074
0
LINE
8
BLACK
6
CONTINUOUS
10
5.39013
20
-3.78074
11
5.40157
21
-3.74857
0
LINE
8
BLACK
6
CONTINUOUS
10
5.40157
20
-3.74857
11
5.41445
21
-3.71695
0
LINE
8
BLACK
6
CONTINUOUS
10
5.41445
20
-3.71695
11
5.42877
21
-3.68595
0
LINE
8
BLACK
6
CONTINUOUS
10
5.42877
20
-3.68595
11
5.44448
21
-3.65563
0
LINE
8
BLACK
6
CONTINUOUS
10
5.44448
20
-3.65563
11
5.46155
21
-3.62606
0
LINE
8
BLACK
6
CONTINUOUS
10
5.46155
20
-3.62606
11
5.47995
21
-3.5973
0
LINE
8
BLACK
6
CONTINUOUS
10
5.47995
20
-3.5973
11
5.49964
21
-3.5694
0
LINE
8
BLACK
6
CONTINUOUS
10
5.49964
20
-3.5694
11
5.52058
21
-3.54243
0
LINE
8
BLACK
6
CONTINUOUS
10
5.52058
20
-3.54243
11
5.54272
21
-3.51644
0
LINE
8
BLACK
6
CONTINUOUS
10
5.54272
20
-3.51644
11
5.56603
21
-3.49149
0
LINE
8
BLACK
6
CONTINUOUS
10
5.56603
20
-3.49149
11
5.59045
21
-3.46762
0
LINE
8
BLACK
6
CONTINUOUS
10
5.59045
20
-3.46762
11
5.61593
21
-3.44489
0
LINE
8
BLACK
6
CONTINUOUS
10
5.61593
20
-3.44489
11
5.64241
21
-3.42334
0
LINE
8
BLACK
6
CONTINUOUS
10
5.64241
20
-3.42334
11
5.66985
21
-3.40302
0
LINE
8
BLACK
6
CONTINUOUS
10
5.66985
20
-3.40302
11
5.69819
21
-3.38397
0
LINE
8
BLACK
6
CONTINUOUS
10
5.69819
20
-3.38397
11
5.72736
21
-3.36623
0
LINE
8
BLACK
6
CONTINUOUS
10
5.72736
20
-3.36623
11
5.75731
21
-3.34983
0
LINE
8
BLACK
6
CONTINUOUS
10
5.75731
20
-3.34983
11
5.78798
21
-3.33482
0
LINE
8
BLACK
6
CONTINUOUS
10
5.78798
20
-3.33482
11
5.8193
21
-3.32122
0
LINE
8
BLACK
6
CONTINUOUS
10
5.8193
20
-3.32122
11
5.8512
21
-3.30905
0
LINE
8
BLACK
6
CONTINUOUS
10
5.8512
20
-3.30905
11
5.88363
21
-3.29835
0
LINE
8
BLACK
6
CONTINUOUS
10
5.88363
20
-3.29835
11
5.91651
21
-3.28914
0
LINE
8
BLACK
6
CONTINUOUS
10
5.91651
20
-3.28914
11
5.94977
21
-3.28143
0
LINE
8
BLACK
6
CONTINUOUS
10
5.94977
20
-3.28143
11
5.98335
21
-3.27525
0
LINE
8
BLACK
6
CONTINUOUS
10
5.98335
20
-3.27525
11
6.01718
21
-3.2706
0
LINE
8
BLACK
6
CONTINUOUS
10
6.01718
20
-3.2706
11
6.05118
21
-3.2675
0
LINE
8
BLACK
6
CONTINUOUS
10
6.05118
20
-3.2675
11
6.08529
21
-3.26594
0
LINE
8
BLACK
6
CONTINUOUS
10
6.08529
20
-3.26594
11
6.11943
21
-3.26594
0
LINE
8
BLACK
6
CONTINUOUS
10
6.11943
20
-3.26594
11
6.15354
21
-3.2675
0
LINE
8
BLACK
6
CONTINUOUS
10
5.35688
20
-4.04971
11
5.3592
21
-4.08361
0
LINE
8
BLACK
6
CONTINUOUS
10
5.3592
20
-4.08361
11
5.36306
21
-4.11736
0
LINE
8
BLACK
6
CONTINUOUS
10
5.36306
20
-4.11736
11
5.36845
21
-4.15091
0
LINE
8
BLACK
6
CONTINUOUS
10
5.36845
20
-4.15091
11
5.37536
21
-4.18417
0
LINE
8
BLACK
6
CONTINUOUS
10
5.37536
20
-4.18417
11
5.38378
21
-4.21709
0
LINE
8
BLACK
6
CONTINUOUS
10
5.38378
20
-4.21709
11
5.39369
21
-4.24958
0
LINE
8
BLACK
6
CONTINUOUS
10
5.39369
20
-4.24958
11
5.40506
21
-4.2816
0
LINE
8
BLACK
6
CONTINUOUS
10
5.40506
20
-4.2816
11
5.41789
21
-4.31306
0
LINE
8
BLACK
6
CONTINUOUS
10
5.41789
20
-4.31306
11
5.43213
21
-4.3439
0
LINE
8
BLACK
6
CONTINUOUS
10
5.43213
20
-4.3439
11
5.44776
21
-4.37407
0
LINE
8
BLACK
6
CONTINUOUS
10
5.44776
20
-4.37407
11
5.46475
21
-4.40349
0
LINE
8
BLACK
6
CONTINUOUS
10
5.46475
20
-4.40349
11
5.48306
21
-4.43211
0
LINE
8
BLACK
6
CONTINUOUS
10
5.48306
20
-4.43211
11
5.50265
21
-4.45987
0
LINE
8
BLACK
6
CONTINUOUS
10
5.50265
20
-4.45987
11
5.52348
21
-4.4867
0
LINE
8
BLACK
6
CONTINUOUS
10
5.52348
20
-4.4867
11
5.54552
21
-4.51256
0
LINE
8
BLACK
6
CONTINUOUS
10
5.54552
20
-4.51256
11
5.56871
21
-4.53739
0
LINE
8
BLACK
6
CONTINUOUS
10
5.56871
20
-4.53739
11
5.593
21
-4.56114
0
LINE
8
BLACK
6
CONTINUOUS
10
5.593
20
-4.56114
11
5.61835
21
-4.58376
0
LINE
8
BLACK
6
CONTINUOUS
10
5.61835
20
-4.58376
11
5.64471
21
-4.6052
0
LINE
8
BLACK
6
CONTINUOUS
10
5.64471
20
-4.6052
11
5.67201
21
-4.62542
0
LINE
8
BLACK
6
CONTINUOUS
10
5.67201
20
-4.62542
11
5.70021
21
-4.64437
0
LINE
8
BLACK
6
CONTINUOUS
10
5.70021
20
-4.64437
11
5.72923
21
-4.66202
0
LINE
8
BLACK
6
CONTINUOUS
10
5.72923
20
-4.66202
11
5.75904
21
-4.67834
0
LINE
8
BLACK
6
CONTINUOUS
10
5.75904
20
-4.67834
11
5.78955
21
-4.69328
0
LINE
8
BLACK
6
CONTINUOUS
10
5.78955
20
-4.69328
11
5.82071
21
-4.70681
0
LINE
8
BLACK
6
CONTINUOUS
10
5.82071
20
-4.70681
11
5.85246
21
-4.71892
0
LINE
8
BLACK
6
CONTINUOUS
10
5.85246
20
-4.71892
11
5.88472
21
-4.72956
0
LINE
8
BLACK
6
CONTINUOUS
10
5.88472
20
-4.72956
11
5.91743
21
-4.73873
0
LINE
8
BLACK
6
CONTINUOUS
10
5.91743
20
-4.73873
11
5.95053
21
-4.7464
0
LINE
8
BLACK
6
CONTINUOUS
10
5.95053
20
-4.7464
11
5.98394
21
-4.75255
0
LINE
8
BLACK
6
CONTINUOUS
10
5.98394
20
-4.75255
11
6.0176
21
-4.75718
0
LINE
8
BLACK
6
CONTINUOUS
10
6.0176
20
-4.75718
11
6.05144
21
-4.76026
0
LINE
8
BLACK
6
CONTINUOUS
10
6.05144
20
-4.76026
11
6.08538
21
-4.76181
0
LINE
8
BLACK
6
CONTINUOUS
10
6.08538
20
-4.76181
11
6.11935
21
-4.76181
0
LINE
8
BLACK
6
CONTINUOUS
10
6.11935
20
-4.76181
11
6.15329
21
-4.76026
0
LINE
8
BLACK
6
CONTINUOUS
10
6.15329
20
-4.76026
11
6.18712
21
-4.75718
0
LINE
8
BLACK
6
CONTINUOUS
10
6.18712
20
-4.75718
11
6.22078
21
-4.75255
0
LINE
8
BLACK
6
CONTINUOUS
10
6.22078
20
-4.75255
11
6.25419
21
-4.7464
0
LINE
8
BLACK
6
CONTINUOUS
10
6.25419
20
-4.7464
11
6.28729
21
-4.73873
0
LINE
8
BLACK
6
CONTINUOUS
10
6.28729
20
-4.73873
11
6.32
21
-4.72956
0
LINE
8
BLACK
6
CONTINUOUS
10
6.32
20
-4.72956
11
6.35227
21
-4.71892
0
LINE
8
BLACK
6
CONTINUOUS
10
6.35227
20
-4.71892
11
6.38401
21
-4.70681
0
LINE
8
BLACK
6
CONTINUOUS
10
6.38401
20
-4.70681
11
6.41518
21
-4.69328
0
LINE
8
BLACK
6
CONTINUOUS
10
6.41518
20
-4.69328
11
6.44569
21
-4.67834
0
LINE
8
BLACK
6
CONTINUOUS
10
6.44569
20
-4.67834
11
6.47549
21
-4.66202
0
LINE
8
BLACK
6
CONTINUOUS
10
6.47549
20
-4.66202
11
6.50452
21
-4.64437
0
LINE
8
BLACK
6
CONTINUOUS
10
6.50452
20
-4.64437
11
6.53271
21
-4.62542
0
LINE
8
BLACK
6
CONTINUOUS
10
6.53271
20
-4.62542
11
6.56002
21
-4.6052
0
LINE
8
BLACK
6
CONTINUOUS
10
6.56002
20
-4.6052
11
6.58637
21
-4.58376
0
LINE
8
BLACK
6
CONTINUOUS
10
6.58637
20
-4.58376
11
6.61172
21
-4.56114
0
LINE
8
BLACK
6
CONTINUOUS
10
6.61172
20
-4.56114
11
6.63602
21
-4.53739
0
LINE
8
BLACK
6
CONTINUOUS
10
6.63602
20
-4.53739
11
6.65921
21
-4.51256
0
LINE
8
BLACK
6
CONTINUOUS
10
6.65921
20
-4.51256
11
6.68124
21
-4.4867
0
LINE
8
BLACK
6
CONTINUOUS
10
6.68124
20
-4.4867
11
6.70208
21
-4.45987
0
LINE
8
BLACK
6
CONTINUOUS
10
6.70208
20
-4.45987
11
6.72167
21
-4.43211
0
LINE
8
BLACK
6
CONTINUOUS
10
6.72167
20
-4.43211
11
6.73998
21
-4.40349
0
LINE
8
BLACK
6
CONTINUOUS
10
6.73998
20
-4.40349
11
6.75697
21
-4.37407
0
LINE
8
BLACK
6
CONTINUOUS
10
6.75697
20
-4.37407
11
6.7726
21
-4.3439
0
LINE
8
BLACK
6
CONTINUOUS
10
6.7726
20
-4.3439
11
6.78684
21
-4.31306
0
LINE
8
BLACK
6
CONTINUOUS
10
6.78684
20
-4.31306
11
6.79966
21
-4.2816
0
LINE
8
BLACK
6
CONTINUOUS
10
6.79966
20
-4.2816
11
6.81104
21
-4.24958
0
LINE
8
BLACK
6
CONTINUOUS
10
6.81104
20
-4.24958
11
6.82095
21
-4.21709
0
LINE
8
BLACK
6
CONTINUOUS
10
6.82095
20
-4.21709
11
6.82936
21
-4.18417
0
LINE
8
BLACK
6
CONTINUOUS
10
6.82936
20
-4.18417
11
6.83628
21
-4.15091
0
LINE
8
BLACK
6
CONTINUOUS
10
6.83628
20
-4.15091
11
6.84167
21
-4.11736
0
LINE
8
BLACK
6
CONTINUOUS
10
6.84167
20
-4.11736
11
6.84553
21
-4.08361
0
LINE
8
BLACK
6
CONTINUOUS
10
6.84553
20
-4.08361
11
6.84785
21
-4.04971
0
LINE
8
BLACK
6
CONTINUOUS
10
6.84785
20
-4.04971
11
6.84862
21
-4.01575
0
LINE
8
BLACK
6
CONTINUOUS
10
6.84862
20
-4.01575
11
6.84785
21
-3.98178
0
LINE
8
BLACK
6
CONTINUOUS
10
6.84785
20
-3.98178
11
6.84553
21
-3.94789
0
LINE
8
BLACK
6
CONTINUOUS
10
6.84553
20
-3.94789
11
6.84167
21
-3.91413
0
LINE
8
BLACK
6
CONTINUOUS
10
6.84167
20
-3.91413
11
6.83628
21
-3.88059
0
LINE
8
BLACK
6
CONTINUOUS
10
6.83628
20
-3.88059
11
6.82936
21
-3.84733
0
LINE
8
BLACK
6
CONTINUOUS
10
6.82936
20
-3.84733
11
6.82095
21
-3.81441
0
LINE
8
BLACK
6
CONTINUOUS
10
6.82095
20
-3.81441
11
6.81104
21
-3.78191
0
LINE
8
BLACK
6
CONTINUOUS
10
6.81104
20
-3.78191
11
6.79966
21
-3.7499
0
LINE
8
BLACK
6
CONTINUOUS
10
6.79966
20
-3.7499
11
6.78684
21
-3.71844
0
LINE
8
BLACK
6
CONTINUOUS
10
6.78684
20
-3.71844
11
6.7726
21
-3.68759
0
LINE
8
BLACK
6
CONTINUOUS
10
6.7726
20
-3.68759
11
6.75697
21
-3.65743
0
LINE
8
BLACK
6
CONTINUOUS
10
6.75697
20
-3.65743
11
6.73998
21
-3.62801
0
LINE
8
BLACK
6
CONTINUOUS
10
6.73998
20
-3.62801
11
6.72167
21
-3.59939
0
LINE
8
BLACK
6
CONTINUOUS
10
6.72167
20
-3.59939
11
6.70208
21
-3.57163
0
LINE
8
BLACK
6
CONTINUOUS
10
6.70208
20
-3.57163
11
6.68124
21
-3.54479
0
LINE
8
BLACK
6
CONTINUOUS
10
6.68124
20
-3.54479
11
6.65921
21
-3.51894
0
LINE
8
BLACK
6
CONTINUOUS
10
6.65921
20
-3.51894
11
6.63602
21
-3.49411
0
LINE
8
BLACK
6
CONTINUOUS
10
6.63602
20
-3.49411
11
6.61172
21
-3.47036
0
LINE
8
BLACK
6
CONTINUOUS
10
6.61172
20
-3.47036
11
6.58637
21
-3.44774
0
LINE
8
BLACK
6
CONTINUOUS
10
6.58637
20
-3.44774
11
6.56002
21
-3.4263
0
LINE
8
BLACK
6
CONTINUOUS
10
6.56002
20
-3.4263
11
6.53271
21
-3.40608
0
LINE
8
BLACK
6
CONTINUOUS
10
6.53271
20
-3.40608
11
6.50452
21
-3.38712
0
LINE
8
BLACK
6
CONTINUOUS
10
6.50452
20
-3.38712
11
6.47549
21
-3.36947
0
LINE
8
BLACK
6
CONTINUOUS
10
6.47549
20
-3.36947
11
6.44569
21
-3.35316
0
LINE
8
BLACK
6
CONTINUOUS
10
6.44569
20
-3.35316
11
6.41518
21
-3.33822
0
LINE
8
BLACK
6
CONTINUOUS
10
6.41518
20
-3.33822
11
6.38401
21
-3.32468
0
LINE
8
BLACK
6
CONTINUOUS
10
6.38401
20
-3.32468
11
6.35227
21
-3.31258
0
LINE
8
BLACK
6
CONTINUOUS
10
6.35227
20
-3.31258
11
6.32
21
-3.30193
0
LINE
8
BLACK
6
CONTINUOUS
10
6.32
20
-3.30193
11
6.28729
21
-3.29277
0
LINE
8
BLACK
6
CONTINUOUS
10
6.28729
20
-3.29277
11
6.25419
21
-3.2851
0
LINE
8
BLACK
6
CONTINUOUS
10
6.25419
20
-3.2851
11
6.22078
21
-3.27895
0
LINE
8
BLACK
6
CONTINUOUS
10
6.22078
20
-3.27895
11
6.18712
21
-3.27432
0
LINE
8
BLACK
6
CONTINUOUS
10
6.18712
20
-3.27432
11
6.15329
21
-3.27123
0
LINE
8
BLACK
6
CONTINUOUS
10
6.15329
20
-3.27123
11
6.11935
21
-3.26969
0
LINE
8
BLACK
6
CONTINUOUS
10
6.11935
20
-3.26969
11
6.08538
21
-3.26969
0
LINE
8
BLACK
6
CONTINUOUS
10
6.08538
20
-3.26969
11
6.05144
21
-3.27123
0
LINE
8
BLACK
6
CONTINUOUS
10
6.05144
20
-3.27123
11
6.0176
21
-3.27432
0
LINE
8
BLACK
6
CONTINUOUS
10
6.0176
20
-3.27432
11
5.98394
21
-3.27895
0
LINE
8
BLACK
6
CONTINUOUS
10
5.98394
20
-3.27895
11
5.95053
21
-3.2851
0
LINE
8
BLACK
6
CONTINUOUS
10
5.95053
20
-3.2851
11
5.91743
21
-3.29277
0
LINE
8
BLACK
6
CONTINUOUS
10
5.91743
20
-3.29277
11
5.88472
21
-3.30193
0
LINE
8
BLACK
6
CONTINUOUS
10
5.88472
20
-3.30193
11
5.85246
21
-3.31258
0
LINE
8
BLACK
6
CONTINUOUS
10
5.85246
20
-3.31258
11
5.82071
21
-3.32468
0
LINE
8
BLACK
6
CONTINUOUS
10
5.82071
20
-3.32468
11
5.78955
21
-3.33822
0
LINE
8
BLACK
6
CONTINUOUS
10
5.78955
20
-3.33822
11
5.75904
21
-3.35316
0
LINE
8
BLACK
6
CONTINUOUS
10
5.75904
20
-3.35316
11
5.72923
21
-3.36947
0
LINE
8
BLACK
6
CONTINUOUS
10
5.72923
20
-3.36947
11
5.70021
21
-3.38712
0
LINE
8
BLACK
6
CONTINUOUS
10
5.70021
20
-3.38712
11
5.67201
21
-3.40608
0
LINE
8
BLACK
6
CONTINUOUS
10
5.67201
20
-3.40608
11
5.64471
21
-3.4263
0
LINE
8
BLACK
6
CONTINUOUS
10
5.64471
20
-3.4263
11
5.61835
21
-3.44774
0
LINE
8
BLACK
6
CONTINUOUS
10
5.61835
20
-3.44774
11
5.593
21
-3.47036
0
LINE
8
BLACK
6
CONTINUOUS
10
5.593
20
-3.47036
11
5.56871
21
-3.49411
0
LINE
8
BLACK
6
CONTINUOUS
10
5.56871
20
-3.49411
11
5.54552
21
-3.51894
0
LINE
8
BLACK
6
CONTINUOUS
10
5.54552
20
-3.51894
11
5.52348
21
-3.54479
0
LINE
8
BLACK
6
CONTINUOUS
10
5.52348
20
-3.54479
11
5.50265
21
-3.57163
0
LINE
8
BLACK
6
CONTINUOUS
10
5.50265
20
-3.57163
11
5.48306
21
-3.59939
0
LINE
8
BLACK
6
CONTINUOUS
10
5.48306
20
-3.59939
11
5.46475
21
-3.62801
0
LINE
8
BLACK
6
CONTINUOUS
10
5.46475
20
-3.62801
11
5.44776
21
-3.65743
0
LINE
8
BLACK
6
CONTINUOUS
10
5.44776
20
-3.65743
11
5.43213
21
-3.68759
0
LINE
8
BLACK
6
CONTINUOUS
10
5.43213
20
-3.68759
11
5.41789
21
-3.71844
0
LINE
8
BLACK
6
CONTINUOUS
10
5.41789
20
-3.71844
11
5.40506
21
-3.7499
0
LINE
8
BLACK
6
CONTINUOUS
10
5.40506
20
-3.7499
11
5.39369
21
-3.78191
0
LINE
8
BLACK
6
CONTINUOUS
10
5.39369
20
-3.78191
11
5.38378
21
-3.81441
0
LINE
8
BLACK
6
CONTINUOUS
10
5.38378
20
-3.81441
11
5.37536
21
-3.84733
0
LINE
8
BLACK
6
CONTINUOUS
10
5.37536
20
-3.84733
11
5.36845
21
-3.88059
0
LINE
8
BLACK
6
CONTINUOUS
10
5.36845
20
-3.88059
11
5.36306
21
-3.91413
0
LINE
8
BLACK
6
CONTINUOUS
10
5.36306
20
-3.91413
11
5.3592
21
-3.94789
0
LINE
8
BLACK
6
CONTINUOUS
10
5.3592
20
-3.94789
11
5.35688
21
-3.98178
0
LINE
8
BLACK
6
CONTINUOUS
10
5.35688
20
-3.98178
11
5.35611
21
-4.01575
0
LINE
8
BLACK
6
CONTINUOUS
10
5.35611
20
-4.01575
11
5.35688
21
-4.04971
0
LINE
8
BLACK
6
CONTINUOUS
10
3.49754
20
-4.60872
11
3.50685
21
-4.61096
0
LINE
8
BLACK
6
CONTINUOUS
10
3.50685
20
-4.61096
11
3.5157
21
-4.61462
0
LINE
8
BLACK
6
CONTINUOUS
10
3.5157
20
-4.61462
11
3.52386
21
-4.61963
0
LINE
8
BLACK
6
CONTINUOUS
10
3.52386
20
-4.61963
11
3.53114
21
-4.62585
0
LINE
8
BLACK
6
CONTINUOUS
10
3.53114
20
-4.62585
11
3.53736
21
-4.63313
0
LINE
8
BLACK
6
CONTINUOUS
10
3.53736
20
-4.63313
11
3.54236
21
-4.64129
0
LINE
8
BLACK
6
CONTINUOUS
10
3.54236
20
-4.64129
11
3.54603
21
-4.65014
0
LINE
8
BLACK
6
CONTINUOUS
10
3.54603
20
-4.65014
11
3.54826
21
-4.65945
0
LINE
8
BLACK
6
CONTINUOUS
10
3.54826
20
-4.65945
11
3.54902
21
-4.669
0
LINE
8
BLACK
6
CONTINUOUS
10
3.54902
20
-4.669
11
3.54826
21
-4.67854
0
LINE
8
BLACK
6
CONTINUOUS
10
3.54826
20
-4.67854
11
3.54603
21
-4.68785
0
LINE
8
BLACK
6
CONTINUOUS
10
3.54603
20
-4.68785
11
3.54236
21
-4.6967
0
LINE
8
BLACK
6
CONTINUOUS
10
3.54236
20
-4.6967
11
3.53736
21
-4.70486
0
LINE
8
BLACK
6
CONTINUOUS
10
3.53736
20
-4.70486
11
3.53114
21
-4.71215
0
LINE
8
BLACK
6
CONTINUOUS
10
3.53114
20
-4.71215
11
3.52386
21
-4.71837
0
LINE
8
BLACK
6
CONTINUOUS
10
3.52386
20
-4.71837
11
3.5157
21
-4.72337
0
LINE
8
BLACK
6
CONTINUOUS
10
3.5157
20
-4.72337
11
3.50685
21
-4.72703
0
LINE
8
BLACK
6
CONTINUOUS
10
3.50685
20
-4.72703
11
3.49754
21
-4.72927
0
LINE
8
BLACK
6
CONTINUOUS
10
3.49754
20
-4.72927
11
3.48799
21
-4.73002
0
LINE
8
BLACK
6
CONTINUOUS
10
3.48799
20
-4.73002
11
3.47845
21
-4.72927
0
LINE
8
BLACK
6
CONTINUOUS
10
3.47845
20
-4.72927
11
3.46913
21
-4.72703
0
LINE
8
BLACK
6
CONTINUOUS
10
3.46913
20
-4.72703
11
3.46029
21
-4.72337
0
LINE
8
BLACK
6
CONTINUOUS
10
3.46029
20
-4.72337
11
3.45212
21
-4.71837
0
LINE
8
BLACK
6
CONTINUOUS
10
3.45212
20
-4.71837
11
3.44484
21
-4.71215
0
LINE
8
BLACK
6
CONTINUOUS
10
3.44484
20
-4.71215
11
3.43862
21
-4.70486
0
LINE
8
BLACK
6
CONTINUOUS
10
3.43862
20
-4.70486
11
3.43362
21
-4.6967
0
LINE
8
BLACK
6
CONTINUOUS
10
3.43362
20
-4.6967
11
3.42996
21
-4.68785
0
LINE
8
BLACK
6
CONTINUOUS
10
3.42996
20
-4.68785
11
3.42772
21
-4.67854
0
LINE
8
BLACK
6
CONTINUOUS
10
3.42772
20
-4.67854
11
3.42697
21
-4.669
0
LINE
8
BLACK
6
CONTINUOUS
10
3.42697
20
-4.669
11
3.42772
21
-4.65945
0
LINE
8
BLACK
6
CONTINUOUS
10
3.42772
20
-4.65945
11
3.42996
21
-4.65014
0
LINE
8
BLACK
6
CONTINUOUS
10
3.42996
20
-4.65014
11
3.43362
21
-4.64129
0
LINE
8
BLACK
6
CONTINUOUS
10
3.43362
20
-4.64129
11
3.43862
21
-4.63313
0
LINE
8
BLACK
6
CONTINUOUS
10
3.43862
20
-4.63313
11
3.44484
21
-4.62585
0
LINE
8
BLACK
6
CONTINUOUS
10
3.44484
20
-4.62585
11
3.45212
21
-4.61963
0
LINE
8
BLACK
6
CONTINUOUS
10
3.45212
20
-4.61963
11
3.46029
21
-4.61462
0
LINE
8
BLACK
6
CONTINUOUS
10
3.46029
20
-4.61462
11
3.46913
21
-4.61096
0
LINE
8
BLACK
6
CONTINUOUS
10
3.46913
20
-4.61096
11
3.47845
21
-4.60872
0
LINE
8
BLACK
6
CONTINUOUS
10
3.47845
20
-4.60872
11
3.48799
21
-4.60797
0
LINE
8
BLACK
6
CONTINUOUS
10
3.48799
20
-4.60797
11
3.49754
21
-4.60872
0
LINE
8
BLACK
6
CONTINUOUS
10
3.43149
20
-4.67842
11
3.43381
21
-4.6876
0
LINE
8
BLACK
6
CONTINUOUS
10
3.43381
20
-4.6876
11
3.43761
21
-4.69626
0
LINE
8
BLACK
6
CONTINUOUS
10
3.43761
20
-4.69626
11
3.44279
21
-4.70418
0
LINE
8
BLACK
6
CONTINUOUS
10
3.44279
20
-4.70418
11
3.4492
21
-4.71114
0
LINE
8
BLACK
6
CONTINUOUS
10
3.4492
20
-4.71114
11
3.45666
21
-4.71695
0
LINE
8
BLACK
6
CONTINUOUS
10
3.45666
20
-4.71695
11
3.46498
21
-4.72145
0
LINE
8
BLACK
6
CONTINUOUS
10
3.46498
20
-4.72145
11
3.47393
21
-4.72453
0
LINE
8
BLACK
6
CONTINUOUS
10
3.47393
20
-4.72453
11
3.48326
21
-4.72608
0
LINE
8
BLACK
6
CONTINUOUS
10
3.48326
20
-4.72608
11
3.49272
21
-4.72608
0
LINE
8
BLACK
6
CONTINUOUS
10
3.49272
20
-4.72608
11
3.50205
21
-4.72453
0
LINE
8
BLACK
6
CONTINUOUS
10
3.50205
20
-4.72453
11
3.511
21
-4.72145
0
LINE
8
BLACK
6
CONTINUOUS
10
3.511
20
-4.72145
11
3.51932
21
-4.71695
0
LINE
8
BLACK
6
CONTINUOUS
10
3.51932
20
-4.71695
11
3.52679
21
-4.71114
0
LINE
8
BLACK
6
CONTINUOUS
10
3.52679
20
-4.71114
11
3.5332
21
-4.70418
0
LINE
8
BLACK
6
CONTINUOUS
10
3.5332
20
-4.70418
11
3.53837
21
-4.69626
0
LINE
8
BLACK
6
CONTINUOUS
10
3.53837
20
-4.69626
11
3.54217
21
-4.6876
0
LINE
8
BLACK
6
CONTINUOUS
10
3.54217
20
-4.6876
11
3.54449
21
-4.67842
0
LINE
8
BLACK
6
CONTINUOUS
10
3.54449
20
-4.67842
11
3.54527
21
-4.669
0
LINE
8
BLACK
6
CONTINUOUS
10
3.54527
20
-4.669
11
3.54449
21
-4.65957
0
LINE
8
BLACK
6
CONTINUOUS
10
3.54449
20
-4.65957
11
3.54217
21
-4.6504
0
LINE
8
BLACK
6
CONTINUOUS
10
3.54217
20
-4.6504
11
3.53837
21
-4.64173
0
LINE
8
BLACK
6
CONTINUOUS
10
3.53837
20
-4.64173
11
3.5332
21
-4.63381
0
LINE
8
BLACK
6
CONTINUOUS
10
3.5332
20
-4.63381
11
3.52679
21
-4.62685
0
LINE
8
BLACK
6
CONTINUOUS
10
3.52679
20
-4.62685
11
3.51932
21
-4.62104
0
LINE
8
BLACK
6
CONTINUOUS
10
3.51932
20
-4.62104
11
3.511
21
-4.61654
0
LINE
8
BLACK
6
CONTINUOUS
10
3.511
20
-4.61654
11
3.50205
21
-4.61347
0
LINE
8
BLACK
6
CONTINUOUS
10
3.50205
20
-4.61347
11
3.49272
21
-4.61191
0
LINE
8
BLACK
6
CONTINUOUS
10
3.49272
20
-4.61191
11
3.48326
21
-4.61191
0
LINE
8
BLACK
6
CONTINUOUS
10
3.48326
20
-4.61191
11
3.47393
21
-4.61347
0
LINE
8
BLACK
6
CONTINUOUS
10
3.47393
20
-4.61347
11
3.46498
21
-4.61654
0
LINE
8
BLACK
6
CONTINUOUS
10
3.46498
20
-4.61654
11
3.45666
21
-4.62104
0
LINE
8
BLACK
6
CONTINUOUS
10
3.45666
20
-4.62104
11
3.4492
21
-4.62685
0
LINE
8
BLACK
6
CONTINUOUS
10
3.4492
20
-4.62685
11
3.44279
21
-4.63381
0
LINE
8
BLACK
6
CONTINUOUS
10
3.44279
20
-4.63381
11
3.43761
21
-4.64173
0
LINE
8
BLACK
6
CONTINUOUS
10
3.43761
20
-4.64173
11
3.43381
21
-4.6504
0
LINE
8
BLACK
6
CONTINUOUS
10
3.43381
20
-4.6504
11
3.43149
21
-4.65957
0
LINE
8
BLACK
6
CONTINUOUS
10
3.43149
20
-4.65957
11
3.43071
21
-4.669
0
LINE
8
BLACK
6
CONTINUOUS
10
3.43071
20
-4.669
11
3.43149
21
-4.67842
0
LINE
8
BLACK
6
CONTINUOUS
10
8.4997
20
-4.57201
11
8.50901
21
-4.57425
0
LINE
8
BLACK
6
CONTINUOUS
10
8.50901
20
-4.57425
11
8.51786
21
-4.57791
0
LINE
8
BLACK
6
CONTINUOUS
10
8.51786
20
-4.57791
11
8.52603
21
-4.58291
0
LINE
8
BLACK
6
CONTINUOUS
10
8.52603
20
-4.58291
11
8.53331
21
-4.58913
0
LINE
8
BLACK
6
CONTINUOUS
10
8.53331
20
-4.58913
11
8.53953
21
-4.59641
0
LINE
8
BLACK
6
CONTINUOUS
10
8.53953
20
-4.59641
11
8.54453
21
-4.60458
0
LINE
8
BLACK
6
CONTINUOUS
10
8.54453
20
-4.60458
11
8.54819
21
-4.61343
0
LINE
8
BLACK
6
CONTINUOUS
10
8.54819
20
-4.61343
11
8.55043
21
-4.62274
0
LINE
8
BLACK
6
CONTINUOUS
10
8.55043
20
-4.62274
11
8.55118
21
-4.63228
0
LINE
8
BLACK
6
CONTINUOUS
10
8.55118
20
-4.63228
11
8.55043
21
-4.64183
0
LINE
8
BLACK
6
CONTINUOUS
10
8.55043
20
-4.64183
11
8.54819
21
-4.65114
0
LINE
8
BLACK
6
CONTINUOUS
10
8.54819
20
-4.65114
11
8.54453
21
-4.65999
0
LINE
8
BLACK
6
CONTINUOUS
10
8.54453
20
-4.65999
11
8.53953
21
-4.66815
0
LINE
8
BLACK
6
CONTINUOUS
10
8.53953
20
-4.66815
11
8.53331
21
-4.67543
0
LINE
8
BLACK
6
CONTINUOUS
10
8.53331
20
-4.67543
11
8.52603
21
-4.68165
0
LINE
8
BLACK
6
CONTINUOUS
10
8.52603
20
-4.68165
11
8.51786
21
-4.68666
0
LINE
8
BLACK
6
CONTINUOUS
10
8.51786
20
-4.68666
11
8.50901
21
-4.69032
0
LINE
8
BLACK
6
CONTINUOUS
10
8.50901
20
-4.69032
11
8.4997
21
-4.69256
0
LINE
8
BLACK
6
CONTINUOUS
10
8.4997
20
-4.69256
11
8.49016
21
-4.69331
0
LINE
8
BLACK
6
CONTINUOUS
10
8.49016
20
-4.69331
11
8.48061
21
-4.69256
0
LINE
8
BLACK
6
CONTINUOUS
10
8.48061
20
-4.69256
11
8.4713
21
-4.69032
0
LINE
8
BLACK
6
CONTINUOUS
10
8.4713
20
-4.69032
11
8.46245
21
-4.68666
0
LINE
8
BLACK
6
CONTINUOUS
10
8.46245
20
-4.68666
11
8.45429
21
-4.68165
0
LINE
8
BLACK
6
CONTINUOUS
10
8.45429
20
-4.68165
11
8.44701
21
-4.67543
0
LINE
8
BLACK
6
CONTINUOUS
10
8.44701
20
-4.67543
11
8.44079
21
-4.66815
0
LINE
8
BLACK
6
CONTINUOUS
10
8.44079
20
-4.66815
11
8.43579
21
-4.65999
0
LINE
8
BLACK
6
CONTINUOUS
10
8.43579
20
-4.65999
11
8.43212
21
-4.65114
0
LINE
8
BLACK
6
CONTINUOUS
10
8.43212
20
-4.65114
11
8.42989
21
-4.64183
0
LINE
8
BLACK
6
CONTINUOUS
10
8.42989
20
-4.64183
11
8.42913
21
-4.63228
0
LINE
8
BLACK
6
CONTINUOUS
10
8.42913
20
-4.63228
11
8.42989
21
-4.62274
0
LINE
8
BLACK
6
CONTINUOUS
10
8.42989
20
-4.62274
11
8.43212
21
-4.61343
0
LINE
8
BLACK
6
CONTINUOUS
10
8.43212
20
-4.61343
11
8.43579
21
-4.60458
0
LINE
8
BLACK
6
CONTINUOUS
10
8.43579
20
-4.60458
11
8.44079
21
-4.59641
0
LINE
8
BLACK
6
CONTINUOUS
10
8.44079
20
-4.59641
11
8.44701
21
-4.58913
0
LINE
8
BLACK
6
CONTINUOUS
10
8.44701
20
-4.58913
11
8.45429
21
-4.58291
0
LINE
8
BLACK
6
CONTINUOUS
10
8.45429
20
-4.58291
11
8.46245
21
-4.57791
0
LINE
8
BLACK
6
CONTINUOUS
10
8.46245
20
-4.57791
11
8.4713
21
-4.57425
0
LINE
8
BLACK
6
CONTINUOUS
10
8.4713
20
-4.57425
11
8.48061
21
-4.57201
0
LINE
8
BLACK
6
CONTINUOUS
10
8.48061
20
-4.57201
11
8.49016
21
-4.57126
0
LINE
8
BLACK
6
CONTINUOUS
10
8.49016
20
-4.57126
11
8.4997
21
-4.57201
0
LINE
8
BLACK
6
CONTINUOUS
10
8.43366
20
-4.64171
11
8.43598
21
-4.65088
0
LINE
8
BLACK
6
CONTINUOUS
10
8.43598
20
-4.65088
11
8.43978
21
-4.65955
0
LINE
8
BLACK
6
CONTINUOUS
10
8.43978
20
-4.65955
11
8.44495
21
-4.66747
0
LINE
8
BLACK
6
CONTINUOUS
10
8.44495
20
-4.66747
11
8.45136
21
-4.67443
0
LINE
8
BLACK
6
CONTINUOUS
10
8.45136
20
-4.67443
11
8.45883
21
-4.68024
0
LINE
8
BLACK
6
CONTINUOUS
10
8.45883
20
-4.68024
11
8.46715
21
-4.68474
0
LINE
8
BLACK
6
CONTINUOUS
10
8.46715
20
-4.68474
11
8.4761
21
-4.68781
0
LINE
8
BLACK
6
CONTINUOUS
10
8.4761
20
-4.68781
11
8.48543
21
-4.68937
0
LINE
8
BLACK
6
CONTINUOUS
10
8.48543
20
-4.68937
11
8.49489
21
-4.68937
0
LINE
8
BLACK
6
CONTINUOUS
10
8.49489
20
-4.68937
11
8.50422
21
-4.68781
0
LINE
8
BLACK
6
CONTINUOUS
10
8.50422
20
-4.68781
11
8.51317
21
-4.68474
0
LINE
8
BLACK
6
CONTINUOUS
10
8.51317
20
-4.68474
11
8.52149
21
-4.68024
0
LINE
8
BLACK
6
CONTINUOUS
10
8.52149
20
-4.68024
11
8.52895
21
-4.67443
0
LINE
8
BLACK
6
CONTINUOUS
10
8.52895
20
-4.67443
11
8.53536
21
-4.66747
0
LINE
8
BLACK
6
CONTINUOUS
10
8.53536
20
-4.66747
11
8.54054
21
-4.65955
0
LINE
8
BLACK
6
CONTINUOUS
10
8.54054
20
-4.65955
11
8.54434
21
-4.65088
0
LINE
8
BLACK
6
CONTINUOUS
10
8.54434
20
-4.65088
11
8.54666
21
-4.64171
0
LINE
8
BLACK
6
CONTINUOUS
10
8.54666
20
-4.64171
11
8.54744
21
-4.63228
0
LINE
8
BLACK
6
CONTINUOUS
10
8.54744
20
-4.63228
11
8.54666
21
-4.62286
0
LINE
8
BLACK
6
CONTINUOUS
10
8.54666
20
-4.62286
11
8.54434
21
-4.61368
0
LINE
8
BLACK
6
CONTINUOUS
10
8.54434
20
-4.61368
11
8.54054
21
-4.60502
0
LINE
8
BLACK
6
CONTINUOUS
10
8.54054
20
-4.60502
11
8.53536
21
-4.5971
0
LINE
8
BLACK
6
CONTINUOUS
10
8.53536
20
-4.5971
11
8.52895
21
-4.59014
0
LINE
8
BLACK
6
CONTINUOUS
10
8.52895
20
-4.59014
11
8.52149
21
-4.58433
0
LINE
8
BLACK
6
CONTINUOUS
10
8.52149
20
-4.58433
11
8.51317
21
-4.57983
0
LINE
8
BLACK
6
CONTINUOUS
10
8.51317
20
-4.57983
11
8.50422
21
-4.57675
0
LINE
8
BLACK
6
CONTINUOUS
10
8.50422
20
-4.57675
11
8.49489
21
-4.5752
0
LINE
8
BLACK
6
CONTINUOUS
10
8.49489
20
-4.5752
11
8.48543
21
-4.5752
0
LINE
8
BLACK
6
CONTINUOUS
10
8.48543
20
-4.5752
11
8.4761
21
-4.57675
0
LINE
8
BLACK
6
CONTINUOUS
10
8.4761
20
-4.57675
11
8.46715
21
-4.57983
0
LINE
8
BLACK
6
CONTINUOUS
10
8.46715
20
-4.57983
11
8.45883
21
-4.58433
0
LINE
8
BLACK
6
CONTINUOUS
10
8.45883
20
-4.58433
11
8.45136
21
-4.59014
0
LINE
8
BLACK
6
CONTINUOUS
10
8.45136
20
-4.59014
11
8.44495
21
-4.5971
0
LINE
8
BLACK
6
CONTINUOUS
10
8.44495
20
-4.5971
11
8.43978
21
-4.60502
0
LINE
8
BLACK
6
CONTINUOUS
10
8.43978
20
-4.60502
11
8.43598
21
-4.61368
0
LINE
8
BLACK
6
CONTINUOUS
10
8.43598
20
-4.61368
11
8.43366
21
-4.62286
0
LINE
8
BLACK
6
CONTINUOUS
10
8.43366
20
-4.62286
11
8.43288
21
-4.63228
0
LINE
8
BLACK
6
CONTINUOUS
10
8.43288
20
-4.63228
11
8.43366
21
-4.64171
0
LINE
8
BLACK
6
CONTINUOUS
10
9.92126
20
-2.36024
11
9.92265
21
-2.36081
0
LINE
8
BLACK
6
CONTINUOUS
10
9.92265
20
-2.36081
11
9.92323
21
-2.3622
0
LINE
8
BLACK
6
CONTINUOUS
10
9.92323
20
-2.3622
11
9.92323
21
-4.44882
0
LINE
8
BLACK
6
CONTINUOUS
10
9.92323
20
-4.44882
11
9.92265
21
-4.45021
0
LINE
8
BLACK
6
CONTINUOUS
10
9.92265
20
-4.45021
11
9.92126
21
-4.45079
0
LINE
8
BLACK
6
CONTINUOUS
10
9.92126
20
-4.45079
11
9.05709
21
-4.45079
0
LINE
8
BLACK
6
CONTINUOUS
10
9.05709
20
-4.45079
11
9.05709
21
-5.51181
0
LINE
8
BLACK
6
CONTINUOUS
10
9.05709
20
-5.51181
11
9.05651
21
-5.5132
0
LINE
8
BLACK
6
CONTINUOUS
10
9.05651
20
-5.5132
11
9.05512
21
-5.51378
0
LINE
8
BLACK
6
CONTINUOUS
10
9.05512
20
-5.51378
11
3.14961
21
-5.51378
0
LINE
8
BLACK
6
CONTINUOUS
10
3.14961
20
-5.51378
11
3.14821
21
-5.5132
0
LINE
8
BLACK
6
CONTINUOUS
10
3.14821
20
-5.5132
11
3.14764
21
-5.51181
0
LINE
8
BLACK
6
CONTINUOUS
10
3.14764
20
-5.51181
11
3.14764
21
-4.45079
0
LINE
8
BLACK
6
CONTINUOUS
10
3.14764
20
-4.45079
11
2.28346
21
-4.45079
0
LINE
8
BLACK
6
CONTINUOUS
10
2.28346
20
-4.45079
11
2.28207
21
-4.45021
0
LINE
8
BLACK
6
CONTINUOUS
10
2.28207
20
-4.45021
11
2.2815
21
-4.44882
0
LINE
8
BLACK
6
CONTINUOUS
10
2.2815
20
-4.44882
11
2.2815
21
-2.3622
0
LINE
8
BLACK
6
CONTINUOUS
10
2.2815
20
-2.3622
11
2.28207
21
-2.36081
0
LINE
8
BLACK
6
CONTINUOUS
10
2.28207
20
-2.36081
11
2.28346
21
-2.36024
0
LINE
8
BLACK
6
CONTINUOUS
10
2.28346
20
-2.36024
11
9.92126
21
-2.36024
0
LINE
8
BLACK
6
CONTINUOUS
10
2.28543
20
-2.36417
11
2.28543
21
-4.44685
0
LINE
8
BLACK
6
CONTINUOUS
10
2.28543
20
-4.44685
11
3.14961
21
-4.44685
0
LINE
8
BLACK
6
CONTINUOUS
10
3.14961
20
-4.44685
11
3.151
21
-4.44743
0
LINE
8
BLACK
6
CONTINUOUS
10
3.151
20
-4.44743
11
3.15157
21
-4.44882
0
LINE
8
BLACK
6
CONTINUOUS
10
3.15157
20
-4.44882
11
3.15157
21
-5.50984
0
LINE
8
BLACK
6
CONTINUOUS
10
3.15157
20
-5.50984
11
9.05315
21
-5.50984
0
LINE
8
BLACK
6
CONTINUOUS
10
9.05315
20
-5.50984
11
9.05315
21
-4.44882
0
LINE
8
BLACK
6
CONTINUOUS
10
9.05315
20
-4.44882
11
9.05373
21
-4.44743
0
LINE
8
BLACK
6
CONTINUOUS
10
9.05373
20
-4.44743
11
9.05512
21
-4.44685
0
LINE
8
BLACK
6
CONTINUOUS
10
9.05512
20
-4.44685
11
9.91929
21
-4.44685
0
LINE
8
BLACK
6
CONTINUOUS
10
9.91929
20
-4.44685
11
9.91929
21
-2.36417
0
LINE
8
BLACK
6
CONTINUOUS
10
9.91929
20
-2.36417
11
2.28543
21
-2.36417
0
LINE
8
BLACK
6
CONTINUOUS
10
10.056
20
-2.36065
11
10.0566
21
-2.36204
0
LINE
8
BLACK
6
CONTINUOUS
10
10.0566
20
-2.36204
11
10.056
21
-2.36343
0
LINE
8
BLACK
6
CONTINUOUS
10
10.056
20
-2.36343
11
10.0546
21
-2.36401
0
LINE
8
BLACK
6
CONTINUOUS
10
10.0546
20
-2.36401
11
10.0347
21
-2.36404
0
LINE
8
BLACK
6
CONTINUOUS
10
10.0347
20
-2.36404
11
10.0564
21
-2.40548
0
LINE
8
BLACK
6
CONTINUOUS
10
10.0564
20
-2.40548
11
10.0565
21
-2.40698
0
LINE
8
BLACK
6
CONTINUOUS
10
10.0565
20
-2.40698
11
10.0555
21
-2.40814
0
LINE
8
BLACK
6
CONTINUOUS
10
10.0555
20
-2.40814
11
10.054
21
-2.40827
0
LINE
8
BLACK
6
CONTINUOUS
10
10.054
20
-2.40827
11
10.0529
21
-2.4073
0
LINE
8
BLACK
6
CONTINUOUS
10
10.0529
20
-2.4073
11
10.0335
21
-2.37011
0
LINE
8
BLACK
6
CONTINUOUS
10
10.0335
20
-2.37011
11
10.0374
21
-5.50363
0
LINE
8
BLACK
6
CONTINUOUS
10
10.0374
20
-5.50363
11
10.0567
21
-5.46639
0
LINE
8
BLACK
6
CONTINUOUS
10
10.0567
20
-5.46639
11
10.0579
21
-5.46542
0
LINE
8
BLACK
6
CONTINUOUS
10
10.0579
20
-5.46542
11
10.0594
21
-5.46555
0
LINE
8
BLACK
6
CONTINUOUS
10
10.0594
20
-5.46555
11
10.0603
21
-5.4667
0
LINE
8
BLACK
6
CONTINUOUS
10
10.0603
20
-5.4667
11
10.0602
21
-5.46821
0
LINE
8
BLACK
6
CONTINUOUS
10
10.0602
20
-5.46821
11
10.0387
21
-5.50971
0
LINE
8
BLACK
6
CONTINUOUS
10
10.0387
20
-5.50971
11
10.0585
21
-5.50968
0
LINE
8
BLACK
6
CONTINUOUS
10
10.0585
20
-5.50968
11
10.0599
21
-5.51026
0
LINE
8
BLACK
6
CONTINUOUS
10
10.0599
20
-5.51026
11
10.0605
21
-5.51165
0
LINE
8
BLACK
6
CONTINUOUS
10
10.0605
20
-5.51165
11
10.0599
21
-5.51304
0
LINE
8
BLACK
6
CONTINUOUS
10
10.0599
20
-5.51304
11
10.0585
21
-5.51362
0
LINE
8
BLACK
6
CONTINUOUS
10
10.0585
20
-5.51362
11
9.94882
21
-5.51375
0
LINE
8
BLACK
6
CONTINUOUS
10
9.94882
20
-5.51375
11
9.94743
21
-5.51318
0
LINE
8
BLACK
6
CONTINUOUS
10
9.94743
20
-5.51318
11
9.94685
21
-5.51179
0
LINE
8
BLACK
6
CONTINUOUS
10
9.94685
20
-5.51179
11
9.94743
21
-5.5104
0
LINE
8
BLACK
6
CONTINUOUS
10
9.94743
20
-5.5104
11
9.94882
21
-5.50982
0
LINE
8
BLACK
6
CONTINUOUS
10
9.94882
20
-5.50982
11
10.0322
21
-5.50971
0
LINE
8
BLACK
6
CONTINUOUS
10
10.0322
20
-5.50971
11
10.0105
21
-5.46827
0
LINE
8
BLACK
6
CONTINUOUS
10
10.0105
20
-5.46827
11
10.0104
21
-5.46677
0
LINE
8
BLACK
6
CONTINUOUS
10
10.0104
20
-5.46677
11
10.0114
21
-5.46561
0
LINE
8
BLACK
6
CONTINUOUS
10
10.0114
20
-5.46561
11
10.0129
21
-5.46548
0
LINE
8
BLACK
6
CONTINUOUS
10
10.0129
20
-5.46548
11
10.014
21
-5.46645
0
LINE
8
BLACK
6
CONTINUOUS
10
10.014
20
-5.46645
11
10.0335
21
-5.50364
0
LINE
8
BLACK
6
CONTINUOUS
10
10.0335
20
-5.50364
11
10.0295
21
-2.37012
0
LINE
8
BLACK
6
CONTINUOUS
10
10.0295
20
-2.37012
11
10.0102
21
-2.40736
0
LINE
8
BLACK
6
CONTINUOUS
10
10.0102
20
-2.40736
11
10.0091
21
-2.40833
0
LINE
8
BLACK
6
CONTINUOUS
10
10.0091
20
-2.40833
11
10.0076
21
-2.4082
0
LINE
8
BLACK
6
CONTINUOUS
10
10.0076
20
-2.4082
11
10.0066
21
-2.40705
0
LINE
8
BLACK
6
CONTINUOUS
10
10.0066
20
-2.40705
11
10.0067
21
-2.40554
0
LINE
8
BLACK
6
CONTINUOUS
10
10.0067
20
-2.40554
11
10.0283
21
-2.36404
0
LINE
8
BLACK
6
CONTINUOUS
10
10.0283
20
-2.36404
11
9.94488
21
-2.36415
0
LINE
8
BLACK
6
CONTINUOUS
10
9.94488
20
-2.36415
11
9.94349
21
-2.36357
0
LINE
8
BLACK
6
CONTINUOUS
10
9.94349
20
-2.36357
11
9.94291
21
-2.36218
0
LINE
8
BLACK
6
CONTINUOUS
10
9.94291
20
-2.36218
11
9.94349
21
-2.36079
0
LINE
8
BLACK
6
CONTINUOUS
10
9.94349
20
-2.36079
11
9.94488
21
-2.36021
0
LINE
8
BLACK
6
CONTINUOUS
10
9.94488
20
-2.36021
11
10.0315
21
-2.3601
0
LINE
8
BLACK
6
CONTINUOUS
10
10.0315
20
-2.3601
11
10.0315
21
-2.3601
0
LINE
8
BLACK
6
CONTINUOUS
10
10.0315
20
-2.3601
11
10.0546
21
-2.36007
0
LINE
8
BLACK
6
CONTINUOUS
10
10.0546
20
-2.36007
11
10.056
21
-2.36065
0
LINE
8
BLACK
6
CONTINUOUS
10
10.0883
20
-4.08026
11
10.0898
21
-4.08156
0
LINE
8
BLACK
6
CONTINUOUS
10
10.0898
20
-4.08156
11
10.0902
21
-4.08355
0
LINE
8
BLACK
6
CONTINUOUS
10
10.0902
20
-4.08355
11
10.0892
21
-4.0853
0
LINE
8
BLACK
6
CONTINUOUS
10
10.0892
20
-4.0853
11
10.0889
21
-4.08539
0
LINE
8
BLACK
6
CONTINUOUS
10
10.0889
20
-4.08539
11
10.0899
21
-4.08734
0
LINE
8
BLACK
6
CONTINUOUS
10
10.0899
20
-4.08734
11
10.0902
21
-4.08832
0
LINE
8
BLACK
6
CONTINUOUS
10
10.0902
20
-4.08832
11
10.0902
21
-4.08849
0
LINE
8
BLACK
6
CONTINUOUS
10
10.0902
20
-4.08849
11
10.0902
21
-4.08866
0
LINE
8
BLACK
6
CONTINUOUS
10
10.0902
20
-4.08866
11
10.0902
21
-4.09428
0
LINE
8
BLACK
6
CONTINUOUS
10
10.0902
20
-4.09428
11
10.0901
21
-4.09529
0
LINE
8
BLACK
6
CONTINUOUS
10
10.0901
20
-4.09529
11
10.0899
21
-4.09543
0
LINE
8
BLACK
6
CONTINUOUS
10
10.0899
20
-4.09543
11
10.0899
21
-4.09561
0
LINE
8
BLACK
6
CONTINUOUS
10
10.0899
20
-4.09561
11
10.088
21
-4.09936
0
LINE
8
BLACK
6
CONTINUOUS
10
10.088
20
-4.09936
11
10.0876
21
-4.09993
0
LINE
8
BLACK
6
CONTINUOUS
10
10.0876
20
-4.09993
11
10.0877
21
-4.10016
0
LINE
8
BLACK
6
CONTINUOUS
10
10.0877
20
-4.10016
11
10.0881
21
-4.10047
0
LINE
8
BLACK
6
CONTINUOUS
10
10.0881
20
-4.10047
11
10.0899
21
-4.10421
0
LINE
8
BLACK
6
CONTINUOUS
10
10.0899
20
-4.10421
11
10.0902
21
-4.1052
0
LINE
8
BLACK
6
CONTINUOUS
10
10.0902
20
-4.1052
11
10.0902
21
-4.10537
0
LINE
8
BLACK
6
CONTINUOUS
10
10.0902
20
-4.10537
11
10.0902
21
-4.10553
0
LINE
8
BLACK
6
CONTINUOUS
10
10.0902
20
-4.10553
11
10.0903
21
-4.11116
0
LINE
8
BLACK
6
CONTINUOUS
10
10.0903
20
-4.11116
11
10.0901
21
-4.11217
0
LINE
8
BLACK
6
CONTINUOUS
10
10.0901
20
-4.11217
11
10.09
21
-4.1123
0
LINE
8
BLACK
6
CONTINUOUS
10
10.09
20
-4.1123
11
10.0899
21
-4.11248
0
LINE
8
BLACK
6
CONTINUOUS
10
10.0899
20
-4.11248
11
10.0881
21
-4.11623
0
LINE
8
BLACK
6
CONTINUOUS
10
10.0881
20
-4.11623
11
10.0875
21
-4.11705
0
LINE
8
BLACK
6
CONTINUOUS
10
10.0875
20
-4.11705
11
10.0871
21
-4.11723
0
LINE
8
BLACK
6
CONTINUOUS
10
10.0871
20
-4.11723
11
10.0868
21
-4.11755
0
LINE
8
BLACK
6
CONTINUOUS
10
10.0868
20
-4.11755
11
10.083
21
-4.11943
0
LINE
8
BLACK
6
CONTINUOUS
10
10.083
20
-4.11943
11
10.082
21
-4.11973
0
LINE
8
BLACK
6
CONTINUOUS
10
10.082
20
-4.11973
11
10.0819
21
-4.11968
0
LINE
8
BLACK
6
CONTINUOUS
10
10.0819
20
-4.11968
11
10.0817
21
-4.11975
0
LINE
8
BLACK
6
CONTINUOUS
10
10.0817
20
-4.11975
11
10.0611
21
-4.11977
0
LINE
8
BLACK
6
CONTINUOUS
10
10.0611
20
-4.11977
11
10.0601
21
-4.11959
0
LINE
8
BLACK
6
CONTINUOUS
10
10.0601
20
-4.11959
11
10.0585
21
-4.1183
0
LINE
8
BLACK
6
CONTINUOUS
10
10.0585
20
-4.1183
11
10.0582
21
-4.11631
0
LINE
8
BLACK
6
CONTINUOUS
10
10.0582
20
-4.11631
11
10.0592
21
-4.11456
0
LINE
8
BLACK
6
CONTINUOUS
10
10.0592
20
-4.11456
11
10.0611
21
-4.11387
0
LINE
8
BLACK
6
CONTINUOUS
10
10.0611
20
-4.11387
11
10.081
21
-4.11384
0
LINE
8
BLACK
6
CONTINUOUS
10
10.081
20
-4.11384
11
10.0832
21
-4.11271
0
LINE
8
BLACK
6
CONTINUOUS
10
10.0832
20
-4.11271
11
10.0843
21
-4.11047
0
LINE
8
BLACK
6
CONTINUOUS
10
10.0843
20
-4.11047
11
10.0843
21
-4.10624
0
LINE
8
BLACK
6
CONTINUOUS
10
10.0843
20
-4.10624
11
10.0832
21
-4.10399
0
LINE
8
BLACK
6
CONTINUOUS
10
10.0832
20
-4.10399
11
10.081
21
-4.10287
0
LINE
8
BLACK
6
CONTINUOUS
10
10.081
20
-4.10287
11
10.061
21
-4.1029
0
LINE
8
BLACK
6
CONTINUOUS
10
10.061
20
-4.1029
11
10.06
21
-4.10272
0
LINE
8
BLACK
6
CONTINUOUS
10
10.06
20
-4.10272
11
10.0585
21
-4.10142
0
LINE
8
BLACK
6
CONTINUOUS
10
10.0585
20
-4.10142
11
10.0581
21
-4.09944
0
LINE
8
BLACK
6
CONTINUOUS
10
10.0581
20
-4.09944
11
10.0591
21
-4.09769
0
LINE
8
BLACK
6
CONTINUOUS
10
10.0591
20
-4.09769
11
10.061
21
-4.09699
0
LINE
8
BLACK
6
CONTINUOUS
10
10.061
20
-4.09699
11
10.081
21
-4.09697
0
LINE
8
BLACK
6
CONTINUOUS
10
10.081
20
-4.09697
11
10.0832
21
-4.09584
0
LINE
8
BLACK
6
CONTINUOUS
10
10.0832
20
-4.09584
11
10.0843
21
-4.09359
0
LINE
8
BLACK
6
CONTINUOUS
10
10.0843
20
-4.09359
11
10.0843
21
-4.08936
0
LINE
8
BLACK
6
CONTINUOUS
10
10.0843
20
-4.08936
11
10.083
21
-4.08667
0
LINE
8
BLACK
6
CONTINUOUS
10
10.083
20
-4.08667
11
10.0823
21
-4.086
0
LINE
8
BLACK
6
CONTINUOUS
10
10.0823
20
-4.086
11
10.061
21
-4.08603
0
LINE
8
BLACK
6
CONTINUOUS
10
10.061
20
-4.08603
11
10.06
21
-4.08585
0
LINE
8
BLACK
6
CONTINUOUS
10
10.06
20
-4.08585
11
10.0585
21
-4.08455
0
LINE
8
BLACK
6
CONTINUOUS
10
10.0585
20
-4.08455
11
10.0581
21
-4.08256
0
LINE
8
BLACK
6
CONTINUOUS
10
10.0581
20
-4.08256
11
10.0591
21
-4.08081
0
LINE
8
BLACK
6
CONTINUOUS
10
10.0591
20
-4.08081
11
10.061
21
-4.08012
0
LINE
8
BLACK
6
CONTINUOUS
10
10.061
20
-4.08012
11
10.0873
21
-4.08009
0
LINE
8
BLACK
6
CONTINUOUS
10
10.0873
20
-4.08009
11
10.0883
21
-4.08026
0
LINE
8
BLACK
6
CONTINUOUS
10
10.0882
20
-4.02777
11
10.0898
21
-4.02907
0
LINE
8
BLACK
6
CONTINUOUS
10
10.0898
20
-4.02907
11
10.0901
21
-4.03106
0
LINE
8
BLACK
6
CONTINUOUS
10
10.0901
20
-4.03106
11
10.0891
21
-4.03281
0
LINE
8
BLACK
6
CONTINUOUS
10
10.0891
20
-4.03281
11
10.0889
21
-4.03289
0
LINE
8
BLACK
6
CONTINUOUS
10
10.0889
20
-4.03289
11
10.0898
21
-4.03485
0
LINE
8
BLACK
6
CONTINUOUS
10
10.0898
20
-4.03485
11
10.0901
21
-4.03583
0
LINE
8
BLACK
6
CONTINUOUS
10
10.0901
20
-4.03583
11
10.0901
21
-4.036
0
LINE
8
BLACK
6
CONTINUOUS
10
10.0901
20
-4.036
11
10.0902
21
-4.03617
0
LINE
8
BLACK
6
CONTINUOUS
10
10.0902
20
-4.03617
11
10.0902
21
-4.04179
0
LINE
8
BLACK
6
CONTINUOUS
10
10.0902
20
-4.04179
11
10.09
21
-4.0428
0
LINE
8
BLACK
6
CONTINUOUS
10
10.09
20
-4.0428
11
10.0899
21
-4.04294
0
LINE
8
BLACK
6
CONTINUOUS
10
10.0899
20
-4.04294
11
10.0899
21
-4.04311
0
LINE
8
BLACK
6
CONTINUOUS
10
10.0899
20
-4.04311
11
10.088
21
-4.04686
0
LINE
8
BLACK
6
CONTINUOUS
10
10.088
20
-4.04686
11
10.0876
21
-4.04743
0
LINE
8
BLACK
6
CONTINUOUS
10
10.0876
20
-4.04743
11
10.0877
21
-4.04767
0
LINE
8
BLACK
6
CONTINUOUS
10
10.0877
20
-4.04767
11
10.088
21
-4.04797
0
LINE
8
BLACK
6
CONTINUOUS
10
10.088
20
-4.04797
11
10.0899
21
-4.05172
0
LINE
8
BLACK
6
CONTINUOUS
10
10.0899
20
-4.05172
11
10.0902
21
-4.0527
0
LINE
8
BLACK
6
CONTINUOUS
10
10.0902
20
-4.0527
11
10.0901
21
-4.05287
0
LINE
8
BLACK
6
CONTINUOUS
10
10.0901
20
-4.05287
11
10.0902
21
-4.05304
0
LINE
8
BLACK
6
CONTINUOUS
10
10.0902
20
-4.05304
11
10.0902
21
-4.05866
0
LINE
8
BLACK
6
CONTINUOUS
10
10.0902
20
-4.05866
11
10.09
21
-4.05967
0
LINE
8
BLACK
6
CONTINUOUS
10
10.09
20
-4.05967
11
10.0899
21
-4.05981
0
LINE
8
BLACK
6
CONTINUOUS
10
10.0899
20
-4.05981
11
10.0899
21
-4.05998
0
LINE
8
BLACK
6
CONTINUOUS
10
10.0899
20
-4.05998
11
10.088
21
-4.06374
0
LINE
8
BLACK
6
CONTINUOUS
10
10.088
20
-4.06374
11
10.0874
21
-4.06456
0
LINE
8
BLACK
6
CONTINUOUS
10
10.0874
20
-4.06456
11
10.087
21
-4.06474
0
LINE
8
BLACK
6
CONTINUOUS
10
10.087
20
-4.06474
11
10.0867
21
-4.06506
0
LINE
8
BLACK
6
CONTINUOUS
10
10.0867
20
-4.06506
11
10.0829
21
-4.06694
0
LINE
8
BLACK
6
CONTINUOUS
10
10.0829
20
-4.06694
11
10.082
21
-4.06723
0
LINE
8
BLACK
6
CONTINUOUS
10
10.082
20
-4.06723
11
10.0818
21
-4.06719
0
LINE
8
BLACK
6
CONTINUOUS
10
10.0818
20
-4.06719
11
10.0816
21
-4.06725
0
LINE
8
BLACK
6
CONTINUOUS
10
10.0816
20
-4.06725
11
10.061
21
-4.06728
0
LINE
8
BLACK
6
CONTINUOUS
10
10.061
20
-4.06728
11
10.06
21
-4.0671
0
LINE
8
BLACK
6
CONTINUOUS
10
10.06
20
-4.0671
11
10.0584
21
-4.0658
0
LINE
8
BLACK
6
CONTINUOUS
10
10.0584
20
-4.0658
11
10.0581
21
-4.06382
0
LINE
8
BLACK
6
CONTINUOUS
10
10.0581
20
-4.06382
11
10.0591
21
-4.06207
0
LINE
8
BLACK
6
CONTINUOUS
10
10.0591
20
-4.06207
11
10.061
21
-4.06137
0
LINE
8
BLACK
6
CONTINUOUS
10
10.061
20
-4.06137
11
10.0809
21
-4.06135
0
LINE
8
BLACK
6
CONTINUOUS
10
10.0809
20
-4.06135
11
10.0832
21
-4.06022
0
LINE
8
BLACK
6
CONTINUOUS
10
10.0832
20
-4.06022
11
10.0843
21
-4.05797
0
LINE
8
BLACK
6
CONTINUOUS
10
10.0843
20
-4.05797
11
10.0843
21
-4.05374
0
LINE
8
BLACK
6
CONTINUOUS
10
10.0843
20
-4.05374
11
10.0831
21
-4.0515
0
LINE
8
BLACK
6
CONTINUOUS
10
10.0831
20
-4.0515
11
10.0809
21
-4.05038
0
LINE
8
BLACK
6
CONTINUOUS
10
10.0809
20
-4.05038
11
10.061
21
-4.0504
0
LINE
8
BLACK
6
CONTINUOUS
10
10.061
20
-4.0504
11
10.06
21
-4.05023
0
LINE
8
BLACK
6
CONTINUOUS
10
10.06
20
-4.05023
11
10.0584
21
-4.04893
0
LINE
8
BLACK
6
CONTINUOUS
10
10.0584
20
-4.04893
11
10.0581
21
-4.04694
0
LINE
8
BLACK
6
CONTINUOUS
10
10.0581
20
-4.04694
11
10.0591
21
-4.04519
0
LINE
8
BLACK
6
CONTINUOUS
10
10.0591
20
-4.04519
11
10.061
21
-4.0445
0
LINE
8
BLACK
6
CONTINUOUS
10
10.061
20
-4.0445
11
10.0809
21
-4.04447
0
LINE
8
BLACK
6
CONTINUOUS
10
10.0809
20
-4.04447
11
10.0831
21
-4.04335
0
LINE
8
BLACK
6
CONTINUOUS
10
10.0831
20
-4.04335
11
10.0843
21
-4.0411
0
LINE
8
BLACK
6
CONTINUOUS
10
10.0843
20
-4.0411
11
10.0843
21
-4.03687
0
LINE
8
BLACK
6
CONTINUOUS
10
10.0843
20
-4.03687
11
10.0829
21
-4.03418
0
LINE
8
BLACK
6
CONTINUOUS
10
10.0829
20
-4.03418
11
10.0822
21
-4.03351
0
LINE
8
BLACK
6
CONTINUOUS
10
10.0822
20
-4.03351
11
10.061
21
-4.03353
0
LINE
8
BLACK
6
CONTINUOUS
10
10.061
20
-4.03353
11
10.0599
21
-4.03335
0
LINE
8
BLACK
6
CONTINUOUS
10
10.0599
20
-4.03335
11
10.0584
21
-4.03206
0
LINE
8
BLACK
6
CONTINUOUS
10
10.0584
20
-4.03206
11
10.058
21
-4.03007
0
LINE
8
BLACK
6
CONTINUOUS
10
10.058
20
-4.03007
11
10.0591
21
-4.02832
0
LINE
8
BLACK
6
CONTINUOUS
10
10.0591
20
-4.02832
11
10.0609
21
-4.02763
0
LINE
8
BLACK
6
CONTINUOUS
10
10.0609
20
-4.02763
11
10.0872
21
-4.02759
0
LINE
8
BLACK
6
CONTINUOUS
10
10.0872
20
-4.02759
11
10.0882
21
-4.02777
0
LINE
8
BLACK
6
CONTINUOUS
10
10.0631
20
-3.95931
11
10.0638
21
-3.96121
0
LINE
8
BLACK
6
CONTINUOUS
10
10.0638
20
-3.96121
11
10.0638
21
-3.9695
0
LINE
8
BLACK
6
CONTINUOUS
10
10.0638
20
-3.9695
11
10.0912
21
-3.96947
0
LINE
8
BLACK
6
CONTINUOUS
10
10.0912
20
-3.96947
11
10.0888
21
-3.96702
0
LINE
8
BLACK
6
CONTINUOUS
10
10.0888
20
-3.96702
11
10.0883
21
-3.96629
0
LINE
8
BLACK
6
CONTINUOUS
10
10.0883
20
-3.96629
11
10.0882
21
-3.96625
0
LINE
8
BLACK
6
CONTINUOUS
10
10.0882
20
-3.96625
11
10.0863
21
-3.9625
0
LINE
8
BLACK
6
CONTINUOUS
10
10.0863
20
-3.9625
11
10.0861
21
-3.96152
0
LINE
8
BLACK
6
CONTINUOUS
10
10.0861
20
-3.96152
11
10.0865
21
-3.95955
0
LINE
8
BLACK
6
CONTINUOUS
10
10.0865
20
-3.95955
11
10.0881
21
-3.95835
0
LINE
8
BLACK
6
CONTINUOUS
10
10.0881
20
-3.95835
11
10.0902
21
-3.95847
0
LINE
8
BLACK
6
CONTINUOUS
10
10.0902
20
-3.95847
11
10.0916
21
-3.95985
0
LINE
8
BLACK
6
CONTINUOUS
10
10.0916
20
-3.95985
11
10.0933
21
-3.96317
0
LINE
8
BLACK
6
CONTINUOUS
10
10.0933
20
-3.96317
11
10.0965
21
-3.96637
0
LINE
8
BLACK
6
CONTINUOUS
10
10.0965
20
-3.96637
11
10.1019
21
-3.96995
0
LINE
8
BLACK
6
CONTINUOUS
10
10.1019
20
-3.96995
11
10.1026
21
-3.97066
0
LINE
8
BLACK
6
CONTINUOUS
10
10.1026
20
-3.97066
11
10.1027
21
-3.97082
0
LINE
8
BLACK
6
CONTINUOUS
10
10.1027
20
-3.97082
11
10.1028
21
-3.97093
0
LINE
8
BLACK
6
CONTINUOUS
10
10.1028
20
-3.97093
11
10.103
21
-3.97178
0
LINE
8
BLACK
6
CONTINUOUS
10
10.103
20
-3.97178
11
10.1032
21
-3.9726
0
LINE
8
BLACK
6
CONTINUOUS
10
10.1032
20
-3.9726
11
10.1031
21
-3.97275
0
LINE
8
BLACK
6
CONTINUOUS
10
10.1031
20
-3.97275
11
10.1032
21
-3.97292
0
LINE
8
BLACK
6
CONTINUOUS
10
10.1032
20
-3.97292
11
10.1027
21
-3.97366
0
LINE
8
BLACK
6
CONTINUOUS
10
10.1027
20
-3.97366
11
10.1024
21
-3.97445
0
LINE
8
BLACK
6
CONTINUOUS
10
10.1024
20
-3.97445
11
10.1022
21
-3.97452
0
LINE
8
BLACK
6
CONTINUOUS
10
10.1022
20
-3.97452
11
10.1021
21
-3.97467
0
LINE
8
BLACK
6
CONTINUOUS
10
10.1021
20
-3.97467
11
10.1013
21
-3.97497
0
LINE
8
BLACK
6
CONTINUOUS
10
10.1013
20
-3.97497
11
10.1006
21
-3.97535
0
LINE
8
BLACK
6
CONTINUOUS
10
10.1006
20
-3.97535
11
10.1004
21
-3.97531
0
LINE
8
BLACK
6
CONTINUOUS
10
10.1004
20
-3.97531
11
10.1003
21
-3.97536
0
LINE
8
BLACK
6
CONTINUOUS
10
10.1003
20
-3.97536
11
10.0638
21
-3.97541
0
LINE
8
BLACK
6
CONTINUOUS
10
10.0638
20
-3.97541
11
10.0638
21
-3.98371
0
LINE
8
BLACK
6
CONTINUOUS
10
10.0638
20
-3.98371
11
10.0637
21
-3.98472
0
LINE
8
BLACK
6
CONTINUOUS
10
10.0637
20
-3.98472
11
10.0624
21
-3.98627
0
LINE
8
BLACK
6
CONTINUOUS
10
10.0624
20
-3.98627
11
10.0604
21
-3.98662
0
LINE
8
BLACK
6
CONTINUOUS
10
10.0604
20
-3.98662
11
10.0586
21
-3.98561
0
LINE
8
BLACK
6
CONTINUOUS
10
10.0586
20
-3.98561
11
10.0579
21
-3.98371
0
LINE
8
BLACK
6
CONTINUOUS
10
10.0579
20
-3.98371
11
10.0579
21
-3.96122
0
LINE
8
BLACK
6
CONTINUOUS
10
10.0579
20
-3.96122
11
10.0581
21
-3.96021
0
LINE
8
BLACK
6
CONTINUOUS
10
10.0581
20
-3.96021
11
10.0594
21
-3.95866
0
LINE
8
BLACK
6
CONTINUOUS
10
10.0594
20
-3.95866
11
10.0614
21
-3.9583
0
LINE
8
BLACK
6
CONTINUOUS
10
10.0614
20
-3.9583
11
10.0631
21
-3.95931
0
LINE
8
BLACK
6
CONTINUOUS
10
10.0858
20
-3.92084
11
10.0859
21
-3.92082
0
LINE
8
BLACK
6
CONTINUOUS
10
10.0859
20
-3.92082
11
10.0934
21
-3.92269
0
LINE
8
BLACK
6
CONTINUOUS
10
10.0934
20
-3.92269
11
10.0939
21
-3.92289
0
LINE
8
BLACK
6
CONTINUOUS
10
10.0939
20
-3.92289
11
10.094
21
-3.92291
0
LINE
8
BLACK
6
CONTINUOUS
10
10.094
20
-3.92291
11
10.0978
21
-3.92478
0
LINE
8
BLACK
6
CONTINUOUS
10
10.0978
20
-3.92478
11
10.0985
21
-3.9253
0
LINE
8
BLACK
6
CONTINUOUS
10
10.0985
20
-3.9253
11
10.0985
21
-3.92533
0
LINE
8
BLACK
6
CONTINUOUS
10
10.0985
20
-3.92533
11
10.1004
21
-3.9272
0
LINE
8
BLACK
6
CONTINUOUS
10
10.1004
20
-3.9272
11
10.1009
21
-3.92793
0
LINE
8
BLACK
6
CONTINUOUS
10
10.1009
20
-3.92793
11
10.101
21
-3.92797
0
LINE
8
BLACK
6
CONTINUOUS
10
10.101
20
-3.92797
11
10.1028
21
-3.93172
0
LINE
8
BLACK
6
CONTINUOUS
10
10.1028
20
-3.93172
11
10.1031
21
-3.9327
0
LINE
8
BLACK
6
CONTINUOUS
10
10.1031
20
-3.9327
11
10.1031
21
-3.93287
0
LINE
8
BLACK
6
CONTINUOUS
10
10.1031
20
-3.93287
11
10.1032
21
-3.93304
0
LINE
8
BLACK
6
CONTINUOUS
10
10.1032
20
-3.93304
11
10.1032
21
-3.93679
0
LINE
8
BLACK
6
CONTINUOUS
10
10.1032
20
-3.93679
11
10.103
21
-3.9378
0
LINE
8
BLACK
6
CONTINUOUS
10
10.103
20
-3.9378
11
10.1029
21
-3.93793
0
LINE
8
BLACK
6
CONTINUOUS
10
10.1029
20
-3.93793
11
10.1028
21
-3.93811
0
LINE
8
BLACK
6
CONTINUOUS
10
10.1028
20
-3.93811
11
10.101
21
-3.94186
0
LINE
8
BLACK
6
CONTINUOUS
10
10.101
20
-3.94186
11
10.1005
21
-3.94257
0
LINE
8
BLACK
6
CONTINUOUS
10
10.1005
20
-3.94257
11
10.1004
21
-3.94263
0
LINE
8
BLACK
6
CONTINUOUS
10
10.1004
20
-3.94263
11
10.0986
21
-3.94451
0
LINE
8
BLACK
6
CONTINUOUS
10
10.0986
20
-3.94451
11
10.0978
21
-3.94501
0
LINE
8
BLACK
6
CONTINUOUS
10
10.0978
20
-3.94501
11
10.0978
21
-3.94506
0
LINE
8
BLACK
6
CONTINUOUS
10
10.0978
20
-3.94506
11
10.094
21
-3.94694
0
LINE
8
BLACK
6
CONTINUOUS
10
10.094
20
-3.94694
11
10.0935
21
-3.94709
0
LINE
8
BLACK
6
CONTINUOUS
10
10.0935
20
-3.94709
11
10.0934
21
-3.94716
0
LINE
8
BLACK
6
CONTINUOUS
10
10.0934
20
-3.94716
11
10.0859
21
-3.94905
0
LINE
8
BLACK
6
CONTINUOUS
10
10.0859
20
-3.94905
11
10.0853
21
-3.94909
0
LINE
8
BLACK
6
CONTINUOUS
10
10.0853
20
-3.94909
11
10.0852
21
-3.94914
0
LINE
8
BLACK
6
CONTINUOUS
10
10.0852
20
-3.94914
11
10.0758
21
-3.94915
0
LINE
8
BLACK
6
CONTINUOUS
10
10.0758
20
-3.94915
11
10.0753
21
-3.94905
0
LINE
8
BLACK
6
CONTINUOUS
10
10.0753
20
-3.94905
11
10.0751
21
-3.94906
0
LINE
8
BLACK
6
CONTINUOUS
10
10.0751
20
-3.94906
11
10.0676
21
-3.9472
0
LINE
8
BLACK
6
CONTINUOUS
10
10.0676
20
-3.9472
11
10.0672
21
-3.94699
0
LINE
8
BLACK
6
CONTINUOUS
10
10.0672
20
-3.94699
11
10.067
21
-3.94697
0
LINE
8
BLACK
6
CONTINUOUS
10
10.067
20
-3.94697
11
10.0633
21
-3.9451
0
LINE
8
BLACK
6
CONTINUOUS
10
10.0633
20
-3.9451
11
10.0626
21
-3.94458
0
LINE
8
BLACK
6
CONTINUOUS
10
10.0626
20
-3.94458
11
10.0625
21
-3.94455
0
LINE
8
BLACK
6
CONTINUOUS
10
10.0625
20
-3.94455
11
10.0606
21
-3.94268
0
LINE
8
BLACK
6
CONTINUOUS
10
10.0606
20
-3.94268
11
10.0601
21
-3.94196
0
LINE
8
BLACK
6
CONTINUOUS
10
10.0601
20
-3.94196
11
10.0601
21
-3.94191
0
LINE
8
BLACK
6
CONTINUOUS
10
10.0601
20
-3.94191
11
10.0582
21
-3.93816
0
LINE
8
BLACK
6
CONTINUOUS
10
10.0582
20
-3.93816
11
10.0579
21
-3.93718
0
LINE
8
BLACK
6
CONTINUOUS
10
10.0579
20
-3.93718
11
10.0579
21
-3.93701
0
LINE
8
BLACK
6
CONTINUOUS
10
10.0579
20
-3.93701
11
10.0579
21
-3.93684
0
LINE
8
BLACK
6
CONTINUOUS
10
10.0579
20
-3.93684
11
10.0579
21
-3.93309
0
LINE
8
BLACK
6
CONTINUOUS
10
10.0579
20
-3.93309
11
10.0581
21
-3.93208
0
LINE
8
BLACK
6
CONTINUOUS
10
10.0581
20
-3.93208
11
10.0582
21
-3.93195
0
LINE
8
BLACK
6
CONTINUOUS
10
10.0582
20
-3.93195
11
10.0582
21
-3.93177
0
LINE
8
BLACK
6
CONTINUOUS
10
10.0582
20
-3.93177
11
10.0601
21
-3.92802
0
LINE
8
BLACK
6
CONTINUOUS
10
10.0601
20
-3.92802
11
10.0606
21
-3.92731
0
LINE
8
BLACK
6
CONTINUOUS
10
10.0606
20
-3.92731
11
10.0606
21
-3.92725
0
LINE
8
BLACK
6
CONTINUOUS
10
10.0606
20
-3.92725
11
10.0625
21
-3.92538
0
LINE
8
BLACK
6
CONTINUOUS
10
10.0625
20
-3.92538
11
10.0632
21
-3.92487
0
LINE
8
BLACK
6
CONTINUOUS
10
10.0632
20
-3.92487
11
10.0632
21
-3.92482
0
LINE
8
BLACK
6
CONTINUOUS
10
10.0632
20
-3.92482
11
10.067
21
-3.92294
0
LINE
8
BLACK
6
CONTINUOUS
10
10.067
20
-3.92294
11
10.0675
21
-3.9228
0
LINE
8
BLACK
6
CONTINUOUS
10
10.0675
20
-3.9228
11
10.0676
21
-3.92272
0
LINE
8
BLACK
6
CONTINUOUS
10
10.0676
20
-3.92272
11
10.0751
21
-3.92083
0
LINE
8
BLACK
6
CONTINUOUS
10
10.0751
20
-3.92083
11
10.0757
21
-3.92079
0
LINE
8
BLACK
6
CONTINUOUS
10
10.0757
20
-3.92079
11
10.0758
21
-3.92075
0
LINE
8
BLACK
6
CONTINUOUS
10
10.0758
20
-3.92075
11
10.0852
21
-3.92073
0
LINE
8
BLACK
6
CONTINUOUS
10
10.0852
20
-3.92073
11
10.0858
21
-3.92084
0
LINE
8
BLACK
6
CONTINUOUS
10
10.0762
20
-3.92665
11
10.0694
21
-3.92837
0
LINE
8
BLACK
6
CONTINUOUS
10
10.0694
20
-3.92837
11
10.0663
21
-3.92989
0
LINE
8
BLACK
6
CONTINUOUS
10
10.0663
20
-3.92989
11
10.0651
21
-3.93109
0
LINE
8
BLACK
6
CONTINUOUS
10
10.0651
20
-3.93109
11
10.0638
21
-3.93378
0
LINE
8
BLACK
6
CONTINUOUS
10
10.0638
20
-3.93378
11
10.0638
21
-3.93614
0
LINE
8
BLACK
6
CONTINUOUS
10
10.0638
20
-3.93614
11
10.0651
21
-3.93884
0
LINE
8
BLACK
6
CONTINUOUS
10
10.0651
20
-3.93884
11
10.0663
21
-3.94003
0
LINE
8
BLACK
6
CONTINUOUS
10
10.0663
20
-3.94003
11
10.0694
21
-3.94154
0
LINE
8
BLACK
6
CONTINUOUS
10
10.0694
20
-3.94154
11
10.0762
21
-3.94324
0
LINE
8
BLACK
6
CONTINUOUS
10
10.0762
20
-3.94324
11
10.0849
21
-3.94323
0
LINE
8
BLACK
6
CONTINUOUS
10
10.0849
20
-3.94323
11
10.0917
21
-3.94152
0
LINE
8
BLACK
6
CONTINUOUS
10
10.0917
20
-3.94152
11
10.0947
21
-3.94
0
LINE
8
BLACK
6
CONTINUOUS
10
10.0947
20
-3.94
11
10.0959
21
-3.9388
0
LINE
8
BLACK
6
CONTINUOUS
10
10.0959
20
-3.9388
11
10.0973
21
-3.9361
0
LINE
8
BLACK
6
CONTINUOUS
10
10.0973
20
-3.9361
11
10.0972
21
-3.93374
0
LINE
8
BLACK
6
CONTINUOUS
10
10.0972
20
-3.93374
11
10.0959
21
-3.93105
0
LINE
8
BLACK
6
CONTINUOUS
10
10.0959
20
-3.93105
11
10.0947
21
-3.92985
0
LINE
8
BLACK
6
CONTINUOUS
10
10.0947
20
-3.92985
11
10.0917
21
-3.92834
0
LINE
8
BLACK
6
CONTINUOUS
10
10.0917
20
-3.92834
11
10.0848
21
-3.92664
0
LINE
8
BLACK
6
CONTINUOUS
10
10.0848
20
-3.92664
11
10.0762
21
-3.92665
0
LINE
8
BLACK
6
CONTINUOUS
10
10.0857
20
-3.88334
11
10.0859
21
-3.88333
0
LINE
8
BLACK
6
CONTINUOUS
10
10.0859
20
-3.88333
11
10.0934
21
-3.88519
0
LINE
8
BLACK
6
CONTINUOUS
10
10.0934
20
-3.88519
11
10.0938
21
-3.8854
0
LINE
8
BLACK
6
CONTINUOUS
10
10.0938
20
-3.8854
11
10.094
21
-3.88541
0
LINE
8
BLACK
6
CONTINUOUS
10
10.094
20
-3.88541
11
10.0977
21
-3.88728
0
LINE
8
BLACK
6
CONTINUOUS
10
10.0977
20
-3.88728
11
10.0984
21
-3.88781
0
LINE
8
BLACK
6
CONTINUOUS
10
10.0984
20
-3.88781
11
10.0985
21
-3.88784
0
LINE
8
BLACK
6
CONTINUOUS
10
10.0985
20
-3.88784
11
10.1004
21
-3.88971
0
LINE
8
BLACK
6
CONTINUOUS
10
10.1004
20
-3.88971
11
10.1009
21
-3.89043
0
LINE
8
BLACK
6
CONTINUOUS
10
10.1009
20
-3.89043
11
10.1009
21
-3.89048
0
LINE
8
BLACK
6
CONTINUOUS
10
10.1009
20
-3.89048
11
10.1028
21
-3.89422
0
LINE
8
BLACK
6
CONTINUOUS
10
10.1028
20
-3.89422
11
10.1031
21
-3.89521
0
LINE
8
BLACK
6
CONTINUOUS
10
10.1031
20
-3.89521
11
10.103
21
-3.89538
0
LINE
8
BLACK
6
CONTINUOUS
10
10.103
20
-3.89538
11
10.1031
21
-3.89554
0
LINE
8
BLACK
6
CONTINUOUS
10
10.1031
20
-3.89554
11
10.1031
21
-3.89929
0
LINE
8
BLACK
6
CONTINUOUS
10
10.1031
20
-3.89929
11
10.1029
21
-3.9003
0
LINE
8
BLACK
6
CONTINUOUS
10
10.1029
20
-3.9003
11
10.1028
21
-3.90044
0
LINE
8
BLACK
6
CONTINUOUS
10
10.1028
20
-3.90044
11
10.1028
21
-3.90061
0
LINE
8
BLACK
6
CONTINUOUS
10
10.1028
20
-3.90061
11
10.1009
21
-3.90437
0
LINE
8
BLACK
6
CONTINUOUS
10
10.1009
20
-3.90437
11
10.1004
21
-3.90508
0
LINE
8
BLACK
6
CONTINUOUS
10
10.1004
20
-3.90508
11
10.1004
21
-3.90513
0
LINE
8
BLACK
6
CONTINUOUS
10
10.1004
20
-3.90513
11
10.0985
21
-3.90701
0
LINE
8
BLACK
6
CONTINUOUS
10
10.0985
20
-3.90701
11
10.0978
21
-3.90752
0
LINE
8
BLACK
6
CONTINUOUS
10
10.0978
20
-3.90752
11
10.0977
21
-3.90756
0
LINE
8
BLACK
6
CONTINUOUS
10
10.0977
20
-3.90756
11
10.094
21
-3.90944
0
LINE
8
BLACK
6
CONTINUOUS
10
10.094
20
-3.90944
11
10.0935
21
-3.90959
0
LINE
8
BLACK
6
CONTINUOUS
10
10.0935
20
-3.90959
11
10.0934
21
-3.90967
0
LINE
8
BLACK
6
CONTINUOUS
10
10.0934
20
-3.90967
11
10.0859
21
-3.91155
0
LINE
8
BLACK
6
CONTINUOUS
10
10.0859
20
-3.91155
11
10.0853
21
-3.91159
0
LINE
8
BLACK
6
CONTINUOUS
10
10.0853
20
-3.91159
11
10.0852
21
-3.91164
0
LINE
8
BLACK
6
CONTINUOUS
10
10.0852
20
-3.91164
11
10.0758
21
-3.91165
0
LINE
8
BLACK
6
CONTINUOUS
10
10.0758
20
-3.91165
11
10.0752
21
-3.91155
0
LINE
8
BLACK
6
CONTINUOUS
10
10.0752
20
-3.91155
11
10.0751
21
-3.91157
0
LINE
8
BLACK
6
CONTINUOUS
10
10.0751
20
-3.91157
11
10.0676
21
-3.9097
0
LINE
8
BLACK
6
CONTINUOUS
10
10.0676
20
-3.9097
11
10.0671
21
-3.90949
0
LINE
8
BLACK
6
CONTINUOUS
10
10.0671
20
-3.90949
11
10.067
21
-3.90948
0
LINE
8
BLACK
6
CONTINUOUS
10
10.067
20
-3.90948
11
10.0632
21
-3.90761
0
LINE
8
BLACK
6
CONTINUOUS
10
10.0632
20
-3.90761
11
10.0625
21
-3.90708
0
LINE
8
BLACK
6
CONTINUOUS
10
10.0625
20
-3.90708
11
10.0625
21
-3.90706
0
LINE
8
BLACK
6
CONTINUOUS
10
10.0625
20
-3.90706
11
10.0606
21
-3.90518
0
LINE
8
BLACK
6
CONTINUOUS
10
10.0606
20
-3.90518
11
10.0601
21
-3.90446
0
LINE
8
BLACK
6
CONTINUOUS
10
10.0601
20
-3.90446
11
10.06
21
-3.90442
0
LINE
8
BLACK
6
CONTINUOUS
10
10.06
20
-3.90442
11
10.0581
21
-3.90067
0
LINE
8
BLACK
6
CONTINUOUS
10
10.0581
20
-3.90067
11
10.0579
21
-3.89969
0
LINE
8
BLACK
6
CONTINUOUS
10
10.0579
20
-3.89969
11
10.0579
21
-3.89951
0
LINE
8
BLACK
6
CONTINUOUS
10
10.0579
20
-3.89951
11
10.0578
21
-3.89935
0
LINE
8
BLACK
6
CONTINUOUS
10
10.0578
20
-3.89935
11
10.0578
21
-3.8956
0
LINE
8
BLACK
6
CONTINUOUS
10
10.0578
20
-3.8956
11
10.058
21
-3.89459
0
LINE
8
BLACK
6
CONTINUOUS
10
10.058
20
-3.89459
11
10.0581
21
-3.89445
0
LINE
8
BLACK
6
CONTINUOUS
10
10.0581
20
-3.89445
11
10.0581
21
-3.89428
0
LINE
8
BLACK
6
CONTINUOUS
10
10.0581
20
-3.89428
11
10.06
21
-3.89053
0
LINE
8
BLACK
6
CONTINUOUS
10
10.06
20
-3.89053
11
10.0605
21
-3.88982
0
LINE
8
BLACK
6
CONTINUOUS
10
10.0605
20
-3.88982
11
10.0606
21
-3.88976
0
LINE
8
BLACK
6
CONTINUOUS
10
10.0606
20
-3.88976
11
10.0624
21
-3.88788
0
LINE
8
BLACK
6
CONTINUOUS
10
10.0624
20
-3.88788
11
10.0632
21
-3.88737
0
LINE
8
BLACK
6
CONTINUOUS
10
10.0632
20
-3.88737
11
10.0632
21
-3.88733
0
LINE
8
BLACK
6
CONTINUOUS
10
10.0632
20
-3.88733
11
10.0669
21
-3.88545
0
LINE
8
BLACK
6
CONTINUOUS
10
10.0669
20
-3.88545
11
10.0674
21
-3.8853
0
LINE
8
BLACK
6
CONTINUOUS
10
10.0674
20
-3.8853
11
10.0676
21
-3.88522
0
LINE
8
BLACK
6
CONTINUOUS
10
10.0676
20
-3.88522
11
10.075
21
-3.88334
0
LINE
8
BLACK
6
CONTINUOUS
10
10.075
20
-3.88334
11
10.0756
21
-3.8833
0
LINE
8
BLACK
6
CONTINUOUS
10
10.0756
20
-3.8833
11
10.0758
21
-3.88325
0
LINE
8
BLACK
6
CONTINUOUS
10
10.0758
20
-3.88325
11
10.0851
21
-3.88324
0
LINE
8
BLACK
6
CONTINUOUS
10
10.0851
20
-3.88324
11
10.0857
21
-3.88334
0
LINE
8
BLACK
6
CONTINUOUS
10
10.0761
20
-3.88916
11
10.0693
21
-3.89087
0
LINE
8
BLACK
6
CONTINUOUS
10
10.0693
20
-3.89087
11
10.0663
21
-3.89239
0
LINE
8
BLACK
6
CONTINUOUS
10
10.0663
20
-3.89239
11
10.0651
21
-3.89359
0
LINE
8
BLACK
6
CONTINUOUS
10
10.0651
20
-3.89359
11
10.0637
21
-3.89629
0
LINE
8
BLACK
6
CONTINUOUS
10
10.0637
20
-3.89629
11
10.0637
21
-3.89864
0
LINE
8
BLACK
6
CONTINUOUS
10
10.0637
20
-3.89864
11
10.0651
21
-3.90134
0
LINE
8
BLACK
6
CONTINUOUS
10
10.0651
20
-3.90134
11
10.0663
21
-3.90254
0
LINE
8
BLACK
6
CONTINUOUS
10
10.0663
20
-3.90254
11
10.0693
21
-3.90405
0
LINE
8
BLACK
6
CONTINUOUS
10
10.0693
20
-3.90405
11
10.0762
21
-3.90575
0
LINE
8
BLACK
6
CONTINUOUS
10
10.0762
20
-3.90575
11
10.0848
21
-3.90574
0
LINE
8
BLACK
6
CONTINUOUS
10
10.0848
20
-3.90574
11
10.0916
21
-3.90402
0
LINE
8
BLACK
6
CONTINUOUS
10
10.0916
20
-3.90402
11
10.0947
21
-3.9025
0
LINE
8
BLACK
6
CONTINUOUS
10
10.0947
20
-3.9025
11
10.0959
21
-3.9013
0
LINE
8
BLACK
6
CONTINUOUS
10
10.0959
20
-3.9013
11
10.0972
21
-3.8986
0
LINE
8
BLACK
6
CONTINUOUS
10
10.0972
20
-3.8986
11
10.0972
21
-3.89625
0
LINE
8
BLACK
6
CONTINUOUS
10
10.0972
20
-3.89625
11
10.0958
21
-3.89355
0
LINE
8
BLACK
6
CONTINUOUS
10
10.0958
20
-3.89355
11
10.0946
21
-3.89236
0
LINE
8
BLACK
6
CONTINUOUS
10
10.0946
20
-3.89236
11
10.0916
21
-3.89084
0
LINE
8
BLACK
6
CONTINUOUS
10
10.0916
20
-3.89084
11
10.0848
21
-3.88914
0
LINE
8
BLACK
6
CONTINUOUS
10
10.0848
20
-3.88914
11
10.0761
21
-3.88916
0
LINE
8
BLACK
6
CONTINUOUS
10
10.0857
20
-3.84585
11
10.0858
21
-3.84583
0
LINE
8
BLACK
6
CONTINUOUS
10
10.0858
20
-3.84583
11
10.0933
21
-3.8477
0
LINE
8
BLACK
6
CONTINUOUS
10
10.0933
20
-3.8477
11
10.0938
21
-3.8479
0
LINE
8
BLACK
6
CONTINUOUS
10
10.0938
20
-3.8479
11
10.0939
21
-3.84792
0
LINE
8
BLACK
6
CONTINUOUS
10
10.0939
20
-3.84792
11
10.0977
21
-3.84979
0
LINE
8
BLACK
6
CONTINUOUS
10
10.0977
20
-3.84979
11
10.0984
21
-3.85031
0
LINE
8
BLACK
6
CONTINUOUS
10
10.0984
20
-3.85031
11
10.0984
21
-3.85034
0
LINE
8
BLACK
6
CONTINUOUS
10
10.0984
20
-3.85034
11
10.1003
21
-3.85221
0
LINE
8
BLACK
6
CONTINUOUS
10
10.1003
20
-3.85221
11
10.1008
21
-3.85294
0
LINE
8
BLACK
6
CONTINUOUS
10
10.1008
20
-3.85294
11
10.1009
21
-3.85298
0
LINE
8
BLACK
6
CONTINUOUS
10
10.1009
20
-3.85298
11
10.1027
21
-3.85673
0
LINE
8
BLACK
6
CONTINUOUS
10
10.1027
20
-3.85673
11
10.103
21
-3.85771
0
LINE
8
BLACK
6
CONTINUOUS
10
10.103
20
-3.85771
11
10.103
21
-3.85788
0
LINE
8
BLACK
6
CONTINUOUS
10
10.103
20
-3.85788
11
10.1031
21
-3.85805
0
LINE
8
BLACK
6
CONTINUOUS
10
10.1031
20
-3.85805
11
10.1031
21
-3.8618
0
LINE
8
BLACK
6
CONTINUOUS
10
10.1031
20
-3.8618
11
10.1029
21
-3.86281
0
LINE
8
BLACK
6
CONTINUOUS
10
10.1029
20
-3.86281
11
10.1028
21
-3.86294
0
LINE
8
BLACK
6
CONTINUOUS
10
10.1028
20
-3.86294
11
10.1028
21
-3.86312
0
LINE
8
BLACK
6
CONTINUOUS
10
10.1028
20
-3.86312
11
10.1009
21
-3.86687
0
LINE
8
BLACK
6
CONTINUOUS
10
10.1009
20
-3.86687
11
10.1004
21
-3.86758
0
LINE
8
BLACK
6
CONTINUOUS
10
10.1004
20
-3.86758
11
10.1003
21
-3.86764
0
LINE
8
BLACK
6
CONTINUOUS
10
10.1003
20
-3.86764
11
10.0985
21
-3.86952
0
LINE
8
BLACK
6
CONTINUOUS
10
10.0985
20
-3.86952
11
10.0977
21
-3.87002
0
LINE
8
BLACK
6
CONTINUOUS
10
10.0977
20
-3.87002
11
10.0977
21
-3.87007
0
LINE
8
BLACK
6
CONTINUOUS
10
10.0977
20
-3.87007
11
10.0939
21
-3.87195
0
LINE
8
BLACK
6
CONTINUOUS
10
10.0939
20
-3.87195
11
10.0935
21
-3.87209
0
LINE
8
BLACK
6
CONTINUOUS
10
10.0935
20
-3.87209
11
10.0933
21
-3.87217
0
LINE
8
BLACK
6
CONTINUOUS
10
10.0933
20
-3.87217
11
10.0858
21
-3.87406
0
LINE
8
BLACK
6
CONTINUOUS
10
10.0858
20
-3.87406
11
10.0853
21
-3.8741
0
LINE
8
BLACK
6
CONTINUOUS
10
10.0853
20
-3.8741
11
10.0851
21
-3.87415
0
LINE
8
BLACK
6
CONTINUOUS
10
10.0851
20
-3.87415
11
10.0758
21
-3.87416
0
LINE
8
BLACK
6
CONTINUOUS
10
10.0758
20
-3.87416
11
10.0752
21
-3.87406
0
LINE
8
BLACK
6
CONTINUOUS
10
10.0752
20
-3.87406
11
10.075
21
-3.87407
0
LINE
8
BLACK
6
CONTINUOUS
10
10.075
20
-3.87407
11
10.0675
21
-3.87221
0
LINE
8
BLACK
6
CONTINUOUS
10
10.0675
20
-3.87221
11
10.0671
21
-3.872
0
LINE
8
BLACK
6
CONTINUOUS
10
10.0671
20
-3.872
11
10.0669
21
-3.87198
0
LINE
8
BLACK
6
CONTINUOUS
10
10.0669
20
-3.87198
11
10.0632
21
-3.87011
0
LINE
8
BLACK
6
CONTINUOUS
10
10.0632
20
-3.87011
11
10.0625
21
-3.86959
0
LINE
8
BLACK
6
CONTINUOUS
10
10.0625
20
-3.86959
11
10.0624
21
-3.86956
0
LINE
8
BLACK
6
CONTINUOUS
10
10.0624
20
-3.86956
11
10.0605
21
-3.86769
0
LINE
8
BLACK
6
CONTINUOUS
10
10.0605
20
-3.86769
11
10.06
21
-3.86697
0
LINE
8
BLACK
6
CONTINUOUS
10
10.06
20
-3.86697
11
10.06
21
-3.86692
0
LINE
8
BLACK
6
CONTINUOUS
10
10.06
20
-3.86692
11
10.0581
21
-3.86317
0
LINE
8
BLACK
6
CONTINUOUS
10
10.0581
20
-3.86317
11
10.0578
21
-3.86219
0
LINE
8
BLACK
6
CONTINUOUS
10
10.0578
20
-3.86219
11
10.0578
21
-3.86202
0
LINE
8
BLACK
6
CONTINUOUS
10
10.0578
20
-3.86202
11
10.0578
21
-3.86185
0
LINE
8
BLACK
6
CONTINUOUS
10
10.0578
20
-3.86185
11
10.0578
21
-3.8581
0
LINE
8
BLACK
6
CONTINUOUS
10
10.0578
20
-3.8581
11
10.058
21
-3.85709
0
LINE
8
BLACK
6
CONTINUOUS
10
10.058
20
-3.85709
11
10.0581
21
-3.85696
0
LINE
8
BLACK
6
CONTINUOUS
10
10.0581
20
-3.85696
11
10.0581
21
-3.85678
0
LINE
8
BLACK
6
CONTINUOUS
10
10.0581
20
-3.85678
11
10.06
21
-3.85303
0
LINE
8
BLACK
6
CONTINUOUS
10
10.06
20
-3.85303
11
10.0605
21
-3.85232
0
LINE
8
BLACK
6
CONTINUOUS
10
10.0605
20
-3.85232
11
10.0605
21
-3.85226
0
LINE
8
BLACK
6
CONTINUOUS
10
10.0605
20
-3.85226
11
10.0624
21
-3.85039
0
LINE
8
BLACK
6
CONTINUOUS
10
10.0624
20
-3.85039
11
10.0631
21
-3.84988
0
LINE
8
BLACK
6
CONTINUOUS
10
10.0631
20
-3.84988
11
10.0632
21
-3.84983
0
LINE
8
BLACK
6
CONTINUOUS
10
10.0632
20
-3.84983
11
10.0669
21
-3.84795
0
LINE
8
BLACK
6
CONTINUOUS
10
10.0669
20
-3.84795
11
10.0674
21
-3.84781
0
LINE
8
BLACK
6
CONTINUOUS
10
10.0674
20
-3.84781
11
10.0675
21
-3.84773
0
LINE
8
BLACK
6
CONTINUOUS
10
10.0675
20
-3.84773
11
10.075
21
-3.84584
0
LINE
8
BLACK
6
CONTINUOUS
10
10.075
20
-3.84584
11
10.0756
21
-3.8458
0
LINE
8
BLACK
6
CONTINUOUS
10
10.0756
20
-3.8458
11
10.0757
21
-3.84576
0
LINE
8
BLACK
6
CONTINUOUS
10
10.0757
20
-3.84576
11
10.0851
21
-3.84574
0
LINE
8
BLACK
6
CONTINUOUS
10
10.0851
20
-3.84574
11
10.0857
21
-3.84585
0
LINE
8
BLACK
6
CONTINUOUS
10
10.0761
20
-3.85166
11
10.0693
21
-3.85338
0
LINE
8
BLACK
6
CONTINUOUS
10
10.0693
20
-3.85338
11
10.0662
21
-3.8549
0
LINE
8
BLACK
6
CONTINUOUS
10
10.0662
20
-3.8549
11
10.065
21
-3.85609
0
LINE
8
BLACK
6
CONTINUOUS
10
10.065
20
-3.85609
11
10.0637
21
-3.85879
0
LINE
8
BLACK
6
CONTINUOUS
10
10.0637
20
-3.85879
11
10.0637
21
-3.86115
0
LINE
8
BLACK
6
CONTINUOUS
10
10.0637
20
-3.86115
11
10.065
21
-3.86385
0
LINE
8
BLACK
6
CONTINUOUS
10
10.065
20
-3.86385
11
10.0662
21
-3.86504
0
LINE
8
BLACK
6
CONTINUOUS
10
10.0662
20
-3.86504
11
10.0693
21
-3.86655
0
LINE
8
BLACK
6
CONTINUOUS
10
10.0693
20
-3.86655
11
10.0761
21
-3.86825
0
LINE
8
BLACK
6
CONTINUOUS
10
10.0761
20
-3.86825
11
10.0848
21
-3.86824
0
LINE
8
BLACK
6
CONTINUOUS
10
10.0848
20
-3.86824
11
10.0916
21
-3.86652
0
LINE
8
BLACK
6
CONTINUOUS
10
10.0916
20
-3.86652
11
10.0946
21
-3.86501
0
LINE
8
BLACK
6
CONTINUOUS
10
10.0946
20
-3.86501
11
10.0958
21
-3.86381
0
LINE
8
BLACK
6
CONTINUOUS
10
10.0958
20
-3.86381
11
10.0972
21
-3.86111
0
LINE
8
BLACK
6
CONTINUOUS
10
10.0972
20
-3.86111
11
10.0972
21
-3.85875
0
LINE
8
BLACK
6
CONTINUOUS
10
10.0972
20
-3.85875
11
10.0958
21
-3.85606
0
LINE
8
BLACK
6
CONTINUOUS
10
10.0958
20
-3.85606
11
10.0946
21
-3.85486
0
LINE
8
BLACK
6
CONTINUOUS
10
10.0946
20
-3.85486
11
10.0916
21
-3.85335
0
LINE
8
BLACK
6
CONTINUOUS
10
10.0916
20
-3.85335
11
10.0847
21
-3.85165
0
LINE
8
BLACK
6
CONTINUOUS
10
10.0847
20
-3.85165
11
10.0761
21
-3.85166
0
LINE
8
BLACK
6
CONTINUOUS
10
10.0572
20
-3.8279
11
10.0587
21
-3.82943
0
LINE
8
BLACK
6
CONTINUOUS
10
10.0587
20
-3.82943
11
10.0614
21
-3.83078
0
LINE
8
BLACK
6
CONTINUOUS
10
10.0614
20
-3.83078
11
10.0626
21
-3.83077
0
LINE
8
BLACK
6
CONTINUOUS
10
10.0626
20
-3.83077
11
10.0636
21
-3.83095
0
LINE
8
BLACK
6
CONTINUOUS
10
10.0636
20
-3.83095
11
10.0651
21
-3.83225
0
LINE
8
BLACK
6
CONTINUOUS
10
10.0651
20
-3.83225
11
10.0655
21
-3.83424
0
LINE
8
BLACK
6
CONTINUOUS
10
10.0655
20
-3.83424
11
10.0645
21
-3.83599
0
LINE
8
BLACK
6
CONTINUOUS
10
10.0645
20
-3.83599
11
10.0626
21
-3.83668
0
LINE
8
BLACK
6
CONTINUOUS
10
10.0626
20
-3.83668
11
10.0607
21
-3.83668
0
LINE
8
BLACK
6
CONTINUOUS
10
10.0607
20
-3.83668
11
10.0597
21
-3.8365
0
LINE
8
BLACK
6
CONTINUOUS
10
10.0597
20
-3.8365
11
10.0596
21
-3.83639
0
LINE
8
BLACK
6
CONTINUOUS
10
10.0596
20
-3.83639
11
10.0594
21
-3.83637
0
LINE
8
BLACK
6
CONTINUOUS
10
10.0594
20
-3.83637
11
10.0556
21
-3.8345
0
LINE
8
BLACK
6
CONTINUOUS
10
10.0556
20
-3.8345
11
10.0549
21
-3.83398
0
LINE
8
BLACK
6
CONTINUOUS
10
10.0549
20
-3.83398
11
10.0549
21
-3.83395
0
LINE
8
BLACK
6
CONTINUOUS
10
10.0549
20
-3.83395
11
10.053
21
-3.83208
0
LINE
8
BLACK
6
CONTINUOUS
10
10.053
20
-3.83208
11
10.0524
21
-3.83124
0
LINE
8
BLACK
6
CONTINUOUS
10
10.0524
20
-3.83124
11
10.0522
21
-3.82923
0
LINE
8
BLACK
6
CONTINUOUS
10
10.0522
20
-3.82923
11
10.0534
21
-3.82757
0
LINE
8
BLACK
6
CONTINUOUS
10
10.0534
20
-3.82757
11
10.0553
21
-3.82704
0
LINE
8
BLACK
6
CONTINUOUS
10
10.0553
20
-3.82704
11
10.0572
21
-3.8279
0
LINE
8
BLACK
6
CONTINUOUS
10
10.0856
20
-3.7896
11
10.0857
21
-3.78959
0
LINE
8
BLACK
6
CONTINUOUS
10
10.0857
20
-3.78959
11
10.0932
21
-3.79145
0
LINE
8
BLACK
6
CONTINUOUS
10
10.0932
20
-3.79145
11
10.0937
21
-3.79166
0
LINE
8
BLACK
6
CONTINUOUS
10
10.0937
20
-3.79166
11
10.0938
21
-3.79168
0
LINE
8
BLACK
6
CONTINUOUS
10
10.0938
20
-3.79168
11
10.0976
21
-3.79355
0
LINE
8
BLACK
6
CONTINUOUS
10
10.0976
20
-3.79355
11
10.0983
21
-3.79407
0
LINE
8
BLACK
6
CONTINUOUS
10
10.0983
20
-3.79407
11
10.0984
21
-3.7941
0
LINE
8
BLACK
6
CONTINUOUS
10
10.0984
20
-3.7941
11
10.1002
21
-3.79597
0
LINE
8
BLACK
6
CONTINUOUS
10
10.1002
20
-3.79597
11
10.1007
21
-3.79669
0
LINE
8
BLACK
6
CONTINUOUS
10
10.1007
20
-3.79669
11
10.1008
21
-3.79674
0
LINE
8
BLACK
6
CONTINUOUS
10
10.1008
20
-3.79674
11
10.1027
21
-3.80048
0
LINE
8
BLACK
6
CONTINUOUS
10
10.1027
20
-3.80048
11
10.103
21
-3.80147
0
LINE
8
BLACK
6
CONTINUOUS
10
10.103
20
-3.80147
11
10.1029
21
-3.80164
0
LINE
8
BLACK
6
CONTINUOUS
10
10.1029
20
-3.80164
11
10.103
21
-3.8018
0
LINE
8
BLACK
6
CONTINUOUS
10
10.103
20
-3.8018
11
10.103
21
-3.80555
0
LINE
8
BLACK
6
CONTINUOUS
10
10.103
20
-3.80555
11
10.1028
21
-3.80656
0
LINE
8
BLACK
6
CONTINUOUS
10
10.1028
20
-3.80656
11
10.1027
21
-3.8067
0
LINE
8
BLACK
6
CONTINUOUS
10
10.1027
20
-3.8067
11
10.1027
21
-3.80688
0
LINE
8
BLACK
6
CONTINUOUS
10
10.1027
20
-3.80688
11
10.1008
21
-3.81063
0
LINE
8
BLACK
6
CONTINUOUS
10
10.1008
20
-3.81063
11
10.1003
21
-3.81134
0
LINE
8
BLACK
6
CONTINUOUS
10
10.1003
20
-3.81134
11
10.1003
21
-3.8114
0
LINE
8
BLACK
6
CONTINUOUS
10
10.1003
20
-3.8114
11
10.0984
21
-3.81327
0
LINE
8
BLACK
6
CONTINUOUS
10
10.0984
20
-3.81327
11
10.0977
21
-3.81378
0
LINE
8
BLACK
6
CONTINUOUS
10
10.0977
20
-3.81378
11
10.0976
21
-3.81383
0
LINE
8
BLACK
6
CONTINUOUS
10
10.0976
20
-3.81383
11
10.0939
21
-3.81571
0
LINE
8
BLACK
6
CONTINUOUS
10
10.0939
20
-3.81571
11
10.0934
21
-3.81585
0
LINE
8
BLACK
6
CONTINUOUS
10
10.0934
20
-3.81585
11
10.0933
21
-3.81593
0
LINE
8
BLACK
6
CONTINUOUS
10
10.0933
20
-3.81593
11
10.0858
21
-3.81781
0
LINE
8
BLACK
6
CONTINUOUS
10
10.0858
20
-3.81781
11
10.0852
21
-3.81786
0
LINE
8
BLACK
6
CONTINUOUS
10
10.0852
20
-3.81786
11
10.0851
21
-3.8179
0
LINE
8
BLACK
6
CONTINUOUS
10
10.0851
20
-3.8179
11
10.0757
21
-3.81792
0
LINE
8
BLACK
6
CONTINUOUS
10
10.0757
20
-3.81792
11
10.0751
21
-3.81781
0
LINE
8
BLACK
6
CONTINUOUS
10
10.0751
20
-3.81781
11
10.075
21
-3.81783
0
LINE
8
BLACK
6
CONTINUOUS
10
10.075
20
-3.81783
11
10.0675
21
-3.81596
0
LINE
8
BLACK
6
CONTINUOUS
10
10.0675
20
-3.81596
11
10.067
21
-3.81576
0
LINE
8
BLACK
6
CONTINUOUS
10
10.067
20
-3.81576
11
10.0669
21
-3.81574
0
LINE
8
BLACK
6
CONTINUOUS
10
10.0669
20
-3.81574
11
10.0631
21
-3.81387
0
LINE
8
BLACK
6
CONTINUOUS
10
10.0631
20
-3.81387
11
10.0624
21
-3.81334
0
LINE
8
BLACK
6
CONTINUOUS
10
10.0624
20
-3.81334
11
10.0623
21
-3.81332
0
LINE
8
BLACK
6
CONTINUOUS
10
10.0623
20
-3.81332
11
10.0605
21
-3.81145
0
LINE
8
BLACK
6
CONTINUOUS
10
10.0605
20
-3.81145
11
10.06
21
-3.81072
0
LINE
8
BLACK
6
CONTINUOUS
10
10.06
20
-3.81072
11
10.0599
21
-3.81068
0
LINE
8
BLACK
6
CONTINUOUS
10
10.0599
20
-3.81068
11
10.058
21
-3.80693
0
LINE
8
BLACK
6
CONTINUOUS
10
10.058
20
-3.80693
11
10.0577
21
-3.80595
0
LINE
8
BLACK
6
CONTINUOUS
10
10.0577
20
-3.80595
11
10.0578
21
-3.80578
0
LINE
8
BLACK
6
CONTINUOUS
10
10.0578
20
-3.80578
11
10.0577
21
-3.80561
0
LINE
8
BLACK
6
CONTINUOUS
10
10.0577
20
-3.80561
11
10.0577
21
-3.80186
0
LINE
8
BLACK
6
CONTINUOUS
10
10.0577
20
-3.80186
11
10.0579
21
-3.80085
0
LINE
8
BLACK
6
CONTINUOUS
10
10.0579
20
-3.80085
11
10.058
21
-3.80072
0
LINE
8
BLACK
6
CONTINUOUS
10
10.058
20
-3.80072
11
10.058
21
-3.80054
0
LINE
8
BLACK
6
CONTINUOUS
10
10.058
20
-3.80054
11
10.0599
21
-3.79679
0
LINE
8
BLACK
6
CONTINUOUS
10
10.0599
20
-3.79679
11
10.0604
21
-3.79608
0
LINE
8
BLACK
6
CONTINUOUS
10
10.0604
20
-3.79608
11
10.0604
21
-3.79602
0
LINE
8
BLACK
6
CONTINUOUS
10
10.0604
20
-3.79602
11
10.0623
21
-3.79414
0
LINE
8
BLACK
6
CONTINUOUS
10
10.0623
20
-3.79414
11
10.063
21
-3.79364
0
LINE
8
BLACK
6
CONTINUOUS
10
10.063
20
-3.79364
11
10.0631
21
-3.79359
0
LINE
8
BLACK
6
CONTINUOUS
10
10.0631
20
-3.79359
11
10.0668
21
-3.79171
0
LINE
8
BLACK
6
CONTINUOUS
10
10.0668
20
-3.79171
11
10.0673
21
-3.79156
0
LINE
8
BLACK
6
CONTINUOUS
10
10.0673
20
-3.79156
11
10.0674
21
-3.79149
0
LINE
8
BLACK
6
CONTINUOUS
10
10.0674
20
-3.79149
11
10.0749
21
-3.7896
0
LINE
8
BLACK
6
CONTINUOUS
10
10.0749
20
-3.7896
11
10.0755
21
-3.78956
0
LINE
8
BLACK
6
CONTINUOUS
10
10.0755
20
-3.78956
11
10.0756
21
-3.78951
0
LINE
8
BLACK
6
CONTINUOUS
10
10.0756
20
-3.78951
11
10.085
21
-3.7895
0
LINE
8
BLACK
6
CONTINUOUS
10
10.085
20
-3.7895
11
10.0856
21
-3.7896
0
LINE
8
BLACK
6
CONTINUOUS
10
10.076
20
-3.79542
11
10.0692
21
-3.79713
0
LINE
8
BLACK
6
CONTINUOUS
10
10.0692
20
-3.79713
11
10.0662
21
-3.79865
0
LINE
8
BLACK
6
CONTINUOUS
10
10.0662
20
-3.79865
11
10.065
21
-3.79985
0
LINE
8
BLACK
6
CONTINUOUS
10
10.065
20
-3.79985
11
10.0636
21
-3.80255
0
LINE
8
BLACK
6
CONTINUOUS
10
10.0636
20
-3.80255
11
10.0636
21
-3.80491
0
LINE
8
BLACK
6
CONTINUOUS
10
10.0636
20
-3.80491
11
10.065
21
-3.8076
0
LINE
8
BLACK
6
CONTINUOUS
10
10.065
20
-3.8076
11
10.0662
21
-3.8088
0
LINE
8
BLACK
6
CONTINUOUS
10
10.0662
20
-3.8088
11
10.0692
21
-3.81031
0
LINE
8
BLACK
6
CONTINUOUS
10
10.0692
20
-3.81031
11
10.076
21
-3.81201
0
LINE
8
BLACK
6
CONTINUOUS
10
10.076
20
-3.81201
11
10.0847
21
-3.812
0
LINE
8
BLACK
6
CONTINUOUS
10
10.0847
20
-3.812
11
10.0915
21
-3.81028
0
LINE
8
BLACK
6
CONTINUOUS
10
10.0915
20
-3.81028
11
10.0945
21
-3.80876
0
LINE
8
BLACK
6
CONTINUOUS
10
10.0945
20
-3.80876
11
10.0957
21
-3.80756
0
LINE
8
BLACK
6
CONTINUOUS
10
10.0957
20
-3.80756
11
10.0971
21
-3.80486
0
LINE
8
BLACK
6
CONTINUOUS
10
10.0971
20
-3.80486
11
10.0971
21
-3.80251
0
LINE
8
BLACK
6
CONTINUOUS
10
10.0971
20
-3.80251
11
10.0957
21
-3.79981
0
LINE
8
BLACK
6
CONTINUOUS
10
10.0957
20
-3.79981
11
10.0945
21
-3.79862
0
LINE
8
BLACK
6
CONTINUOUS
10
10.0945
20
-3.79862
11
10.0915
21
-3.79711
0
LINE
8
BLACK
6
CONTINUOUS
10
10.0915
20
-3.79711
11
10.0847
21
-3.79541
0
LINE
8
BLACK
6
CONTINUOUS
10
10.0847
20
-3.79541
11
10.076
21
-3.79542
0
LINE
8
BLACK
6
CONTINUOUS
10
10.0935
20
-3.75217
11
10.0936
21
-3.75229
0
LINE
8
BLACK
6
CONTINUOUS
10
10.0936
20
-3.75229
11
10.0938
21
-3.75231
0
LINE
8
BLACK
6
CONTINUOUS
10
10.0938
20
-3.75231
11
10.0975
21
-3.75418
0
LINE
8
BLACK
6
CONTINUOUS
10
10.0975
20
-3.75418
11
10.0983
21
-3.7547
0
LINE
8
BLACK
6
CONTINUOUS
10
10.0983
20
-3.7547
11
10.0983
21
-3.75473
0
LINE
8
BLACK
6
CONTINUOUS
10
10.0983
20
-3.75473
11
10.1002
21
-3.7566
0
LINE
8
BLACK
6
CONTINUOUS
10
10.1002
20
-3.7566
11
10.1007
21
-3.75732
0
LINE
8
BLACK
6
CONTINUOUS
10
10.1007
20
-3.75732
11
10.1007
21
-3.75737
0
LINE
8
BLACK
6
CONTINUOUS
10
10.1007
20
-3.75737
11
10.1026
21
-3.76111
0
LINE
8
BLACK
6
CONTINUOUS
10
10.1026
20
-3.76111
11
10.1029
21
-3.7621
0
LINE
8
BLACK
6
CONTINUOUS
10
10.1029
20
-3.7621
11
10.1029
21
-3.76227
0
LINE
8
BLACK
6
CONTINUOUS
10
10.1029
20
-3.76227
11
10.1029
21
-3.76243
0
LINE
8
BLACK
6
CONTINUOUS
10
10.1029
20
-3.76243
11
10.1029
21
-3.76993
0
LINE
8
BLACK
6
CONTINUOUS
10
10.1029
20
-3.76993
11
10.1028
21
-3.77094
0
LINE
8
BLACK
6
CONTINUOUS
10
10.1028
20
-3.77094
11
10.1027
21
-3.77108
0
LINE
8
BLACK
6
CONTINUOUS
10
10.1027
20
-3.77108
11
10.1026
21
-3.77125
0
LINE
8
BLACK
6
CONTINUOUS
10
10.1026
20
-3.77125
11
10.1008
21
-3.77501
0
LINE
8
BLACK
6
CONTINUOUS
10
10.1008
20
-3.77501
11
10.1002
21
-3.77572
0
LINE
8
BLACK
6
CONTINUOUS
10
10.1002
20
-3.77572
11
10.1002
21
-3.77577
0
LINE
8
BLACK
6
CONTINUOUS
10
10.1002
20
-3.77577
11
10.0983
21
-3.77765
0
LINE
8
BLACK
6
CONTINUOUS
10
10.0983
20
-3.77765
11
10.0976
21
-3.77816
0
LINE
8
BLACK
6
CONTINUOUS
10
10.0976
20
-3.77816
11
10.0976
21
-3.77821
0
LINE
8
BLACK
6
CONTINUOUS
10
10.0976
20
-3.77821
11
10.0938
21
-3.78009
0
LINE
8
BLACK
6
CONTINUOUS
10
10.0938
20
-3.78009
11
10.0928
21
-3.78038
0
LINE
8
BLACK
6
CONTINUOUS
10
10.0928
20
-3.78038
11
10.0927
21
-3.78034
0
LINE
8
BLACK
6
CONTINUOUS
10
10.0927
20
-3.78034
11
10.0925
21
-3.7804
0
LINE
8
BLACK
6
CONTINUOUS
10
10.0925
20
-3.7804
11
10.0906
21
-3.7804
0
LINE
8
BLACK
6
CONTINUOUS
10
10.0906
20
-3.7804
11
10.0896
21
-3.78022
0
LINE
8
BLACK
6
CONTINUOUS
10
10.0896
20
-3.78022
11
10.0895
21
-3.78011
0
LINE
8
BLACK
6
CONTINUOUS
10
10.0895
20
-3.78011
11
10.0893
21
-3.78009
0
LINE
8
BLACK
6
CONTINUOUS
10
10.0893
20
-3.78009
11
10.0856
21
-3.77822
0
LINE
8
BLACK
6
CONTINUOUS
10
10.0856
20
-3.77822
11
10.0849
21
-3.7777
0
LINE
8
BLACK
6
CONTINUOUS
10
10.0849
20
-3.7777
11
10.0848
21
-3.77767
0
LINE
8
BLACK
6
CONTINUOUS
10
10.0848
20
-3.77767
11
10.0831
21
-3.77601
0
LINE
8
BLACK
6
CONTINUOUS
10
10.0831
20
-3.77601
11
10.0815
21
-3.77767
0
LINE
8
BLACK
6
CONTINUOUS
10
10.0815
20
-3.77767
11
10.0807
21
-3.77818
0
LINE
8
BLACK
6
CONTINUOUS
10
10.0807
20
-3.77818
11
10.0807
21
-3.77823
0
LINE
8
BLACK
6
CONTINUOUS
10
10.0807
20
-3.77823
11
10.077
21
-3.78011
0
LINE
8
BLACK
6
CONTINUOUS
10
10.077
20
-3.78011
11
10.076
21
-3.7804
0
LINE
8
BLACK
6
CONTINUOUS
10
10.076
20
-3.7804
11
10.0758
21
-3.78036
0
LINE
8
BLACK
6
CONTINUOUS
10
10.0758
20
-3.78036
11
10.0756
21
-3.78042
0
LINE
8
BLACK
6
CONTINUOUS
10
10.0756
20
-3.78042
11
10.0681
21
-3.78043
0
LINE
8
BLACK
6
CONTINUOUS
10
10.0681
20
-3.78043
11
10.0671
21
-3.78025
0
LINE
8
BLACK
6
CONTINUOUS
10
10.0671
20
-3.78025
11
10.067
21
-3.78014
0
LINE
8
BLACK
6
CONTINUOUS
10
10.067
20
-3.78014
11
10.0668
21
-3.78012
0
LINE
8
BLACK
6
CONTINUOUS
10
10.0668
20
-3.78012
11
10.0631
21
-3.77825
0
LINE
8
BLACK
6
CONTINUOUS
10
10.0631
20
-3.77825
11
10.0624
21
-3.77772
0
LINE
8
BLACK
6
CONTINUOUS
10
10.0624
20
-3.77772
11
10.0623
21
-3.7777
0
LINE
8
BLACK
6
CONTINUOUS
10
10.0623
20
-3.7777
11
10.0604
21
-3.77582
0
LINE
8
BLACK
6
CONTINUOUS
10
10.0604
20
-3.77582
11
10.0599
21
-3.7751
0
LINE
8
BLACK
6
CONTINUOUS
10
10.0599
20
-3.7751
11
10.0599
21
-3.77506
0
LINE
8
BLACK
6
CONTINUOUS
10
10.0599
20
-3.77506
11
10.058
21
-3.77131
0
LINE
8
BLACK
6
CONTINUOUS
10
10.058
20
-3.77131
11
10.0577
21
-3.77033
0
LINE
8
BLACK
6
CONTINUOUS
10
10.0577
20
-3.77033
11
10.0577
21
-3.77016
0
LINE
8
BLACK
6
CONTINUOUS
10
10.0577
20
-3.77016
11
10.0577
21
-3.76999
0
LINE
8
BLACK
6
CONTINUOUS
10
10.0577
20
-3.76999
11
10.0577
21
-3.76249
0
LINE
8
BLACK
6
CONTINUOUS
10
10.0577
20
-3.76249
11
10.0578
21
-3.76148
0
LINE
8
BLACK
6
CONTINUOUS
10
10.0578
20
-3.76148
11
10.058
21
-3.76135
0
LINE
8
BLACK
6
CONTINUOUS
10
10.058
20
-3.76135
11
10.058
21
-3.76117
0
LINE
8
BLACK
6
CONTINUOUS
10
10.058
20
-3.76117
11
10.0598
21
-3.75742
0
LINE
8
BLACK
6
CONTINUOUS
10
10.0598
20
-3.75742
11
10.0604
21
-3.75671
0
LINE
8
BLACK
6
CONTINUOUS
10
10.0604
20
-3.75671
11
10.0604
21
-3.75665
0
LINE
8
BLACK
6
CONTINUOUS
10
10.0604
20
-3.75665
11
10.0623
21
-3.75477
0
LINE
8
BLACK
6
CONTINUOUS
10
10.0623
20
-3.75477
11
10.063
21
-3.75427
0
LINE
8
BLACK
6
CONTINUOUS
10
10.063
20
-3.75427
11
10.063
21
-3.75422
0
LINE
8
BLACK
6
CONTINUOUS
10
10.063
20
-3.75422
11
10.0668
21
-3.75234
0
LINE
8
BLACK
6
CONTINUOUS
10
10.0668
20
-3.75234
11
10.0678
21
-3.75205
0
LINE
8
BLACK
6
CONTINUOUS
10
10.0678
20
-3.75205
11
10.0679
21
-3.75209
0
LINE
8
BLACK
6
CONTINUOUS
10
10.0679
20
-3.75209
11
10.0681
21
-3.75203
0
LINE
8
BLACK
6
CONTINUOUS
10
10.0681
20
-3.75203
11
10.0756
21
-3.75202
0
LINE
8
BLACK
6
CONTINUOUS
10
10.0756
20
-3.75202
11
10.0766
21
-3.75219
0
LINE
8
BLACK
6
CONTINUOUS
10
10.0766
20
-3.75219
11
10.0767
21
-3.75231
0
LINE
8
BLACK
6
CONTINUOUS
10
10.0767
20
-3.75231
11
10.0769
21
-3.75233
0
LINE
8
BLACK
6
CONTINUOUS
10
10.0769
20
-3.75233
11
10.0807
21
-3.7542
0
LINE
8
BLACK
6
CONTINUOUS
10
10.0807
20
-3.7542
11
10.0814
21
-3.75472
0
LINE
8
BLACK
6
CONTINUOUS
10
10.0814
20
-3.75472
11
10.0814
21
-3.75475
0
LINE
8
BLACK
6
CONTINUOUS
10
10.0814
20
-3.75475
11
10.0831
21
-3.75641
0
LINE
8
BLACK
6
CONTINUOUS
10
10.0831
20
-3.75641
11
10.0848
21
-3.75475
0
LINE
8
BLACK
6
CONTINUOUS
10
10.0848
20
-3.75475
11
10.0855
21
-3.75424
0
LINE
8
BLACK
6
CONTINUOUS
10
10.0855
20
-3.75424
11
10.0855
21
-3.75419
0
LINE
8
BLACK
6
CONTINUOUS
10
10.0855
20
-3.75419
11
10.0893
21
-3.75231
0
LINE
8
BLACK
6
CONTINUOUS
10
10.0893
20
-3.75231
11
10.0903
21
-3.75202
0
LINE
8
BLACK
6
CONTINUOUS
10
10.0903
20
-3.75202
11
10.0904
21
-3.75206
0
LINE
8
BLACK
6
CONTINUOUS
10
10.0904
20
-3.75206
11
10.0906
21
-3.752
0
LINE
8
BLACK
6
CONTINUOUS
10
10.0906
20
-3.752
11
10.0925
21
-3.752
0
LINE
8
BLACK
6
CONTINUOUS
10
10.0925
20
-3.752
11
10.0935
21
-3.75217
0
LINE
8
BLACK
6
CONTINUOUS
10
10.0688
20
-3.75793
11
10.0661
21
-3.75928
0
LINE
8
BLACK
6
CONTINUOUS
10
10.0661
20
-3.75928
11
10.0649
21
-3.76048
0
LINE
8
BLACK
6
CONTINUOUS
10
10.0649
20
-3.76048
11
10.0636
21
-3.76318
0
LINE
8
BLACK
6
CONTINUOUS
10
10.0636
20
-3.76318
11
10.0636
21
-3.76929
0
LINE
8
BLACK
6
CONTINUOUS
10
10.0636
20
-3.76929
11
10.0649
21
-3.77198
0
LINE
8
BLACK
6
CONTINUOUS
10
10.0649
20
-3.77198
11
10.0661
21
-3.77318
0
LINE
8
BLACK
6
CONTINUOUS
10
10.0661
20
-3.77318
11
10.0688
21
-3.77452
0
LINE
8
BLACK
6
CONTINUOUS
10
10.0688
20
-3.77452
11
10.0749
21
-3.77452
0
LINE
8
BLACK
6
CONTINUOUS
10
10.0749
20
-3.77452
11
10.0776
21
-3.77316
0
LINE
8
BLACK
6
CONTINUOUS
10
10.0776
20
-3.77316
11
10.0788
21
-3.77196
0
LINE
8
BLACK
6
CONTINUOUS
10
10.0788
20
-3.77196
11
10.0802
21
-3.76927
0
LINE
8
BLACK
6
CONTINUOUS
10
10.0802
20
-3.76927
11
10.0802
21
-3.76316
0
LINE
8
BLACK
6
CONTINUOUS
10
10.0802
20
-3.76316
11
10.0788
21
-3.76046
0
LINE
8
BLACK
6
CONTINUOUS
10
10.0788
20
-3.76046
11
10.0776
21
-3.75927
0
LINE
8
BLACK
6
CONTINUOUS
10
10.0776
20
-3.75927
11
10.0749
21
-3.75792
0
LINE
8
BLACK
6
CONTINUOUS
10
10.0749
20
-3.75792
11
10.0688
21
-3.75793
0
LINE
8
BLACK
6
CONTINUOUS
10
10.0913
20
-3.7579
11
10.0886
21
-3.75926
0
LINE
8
BLACK
6
CONTINUOUS
10
10.0886
20
-3.75926
11
10.0874
21
-3.76045
0
LINE
8
BLACK
6
CONTINUOUS
10
10.0874
20
-3.76045
11
10.0861
21
-3.76315
0
LINE
8
BLACK
6
CONTINUOUS
10
10.0861
20
-3.76315
11
10.0861
21
-3.76926
0
LINE
8
BLACK
6
CONTINUOUS
10
10.0861
20
-3.76926
11
10.0874
21
-3.77195
0
LINE
8
BLACK
6
CONTINUOUS
10
10.0874
20
-3.77195
11
10.0886
21
-3.77315
0
LINE
8
BLACK
6
CONTINUOUS
10
10.0886
20
-3.77315
11
10.0913
21
-3.77449
0
LINE
8
BLACK
6
CONTINUOUS
10
10.0913
20
-3.77449
11
10.0918
21
-3.77449
0
LINE
8
BLACK
6
CONTINUOUS
10
10.0918
20
-3.77449
11
10.0945
21
-3.77314
0
LINE
8
BLACK
6
CONTINUOUS
10
10.0945
20
-3.77314
11
10.0957
21
-3.77194
0
LINE
8
BLACK
6
CONTINUOUS
10
10.0957
20
-3.77194
11
10.097
21
-3.76924
0
LINE
8
BLACK
6
CONTINUOUS
10
10.097
20
-3.76924
11
10.097
21
-3.76314
0
LINE
8
BLACK
6
CONTINUOUS
10
10.097
20
-3.76314
11
10.0957
21
-3.76044
0
LINE
8
BLACK
6
CONTINUOUS
10
10.0957
20
-3.76044
11
10.0945
21
-3.75925
0
LINE
8
BLACK
6
CONTINUOUS
10
10.0945
20
-3.75925
11
10.0918
21
-3.7579
0
LINE
8
BLACK
6
CONTINUOUS
10
10.0918
20
-3.7579
11
10.0913
21
-3.7579
0
LINE
8
BLACK
6
CONTINUOUS
10
9.92659
20
-2.24324
11
9.92717
21
-2.24463
0
LINE
8
BLACK
6
CONTINUOUS
10
9.92717
20
-2.24463
11
9.92717
21
-2.34252
0
LINE
8
BLACK
6
CONTINUOUS
10
9.92717
20
-2.34252
11
9.92659
21
-2.34391
0
LINE
8
BLACK
6
CONTINUOUS
10
9.92659
20
-2.34391
11
9.9252
21
-2.34449
0
LINE
8
BLACK
6
CONTINUOUS
10
9.9252
20
-2.34449
11
9.9238
21
-2.34391
0
LINE
8
BLACK
6
CONTINUOUS
10
9.9238
20
-2.34391
11
9.92323
21
-2.34252
0
LINE
8
BLACK
6
CONTINUOUS
10
9.92323
20
-2.34252
11
9.92323
21
-2.27096
0
LINE
8
BLACK
6
CONTINUOUS
10
9.92323
20
-2.27096
11
9.88176
21
-2.29255
0
LINE
8
BLACK
6
CONTINUOUS
10
9.88176
20
-2.29255
11
9.88025
21
-2.29268
0
LINE
8
BLACK
6
CONTINUOUS
10
9.88025
20
-2.29268
11
9.8791
21
-2.29171
0
LINE
8
BLACK
6
CONTINUOUS
10
9.8791
20
-2.29171
11
9.87897
21
-2.29021
0
LINE
8
BLACK
6
CONTINUOUS
10
9.87897
20
-2.29021
11
9.87994
21
-2.28906
0
LINE
8
BLACK
6
CONTINUOUS
10
9.87994
20
-2.28906
11
9.91715
21
-2.26969
0
LINE
8
BLACK
6
CONTINUOUS
10
9.91715
20
-2.26969
11
2.29545
21
-2.26969
0
LINE
8
BLACK
6
CONTINUOUS
10
2.29545
20
-2.26969
11
2.33266
21
-2.28906
0
LINE
8
BLACK
6
CONTINUOUS
10
2.33266
20
-2.28906
11
2.33363
21
-2.29021
0
LINE
8
BLACK
6
CONTINUOUS
10
2.33363
20
-2.29021
11
2.3335
21
-2.29171
0
LINE
8
BLACK
6
CONTINUOUS
10
2.3335
20
-2.29171
11
2.33234
21
-2.29268
0
LINE
8
BLACK
6
CONTINUOUS
10
2.33234
20
-2.29268
11
2.33084
21
-2.29255
0
LINE
8
BLACK
6
CONTINUOUS
10
2.33084
20
-2.29255
11
2.28937
21
-2.27096
0
LINE
8
BLACK
6
CONTINUOUS
10
2.28937
20
-2.27096
11
2.28937
21
-2.34252
0
LINE
8
BLACK
6
CONTINUOUS
10
2.28937
20
-2.34252
11
2.28879
21
-2.34391
0
LINE
8
BLACK
6
CONTINUOUS
10
2.28879
20
-2.34391
11
2.2874
21
-2.34449
0
LINE
8
BLACK
6
CONTINUOUS
10
2.2874
20
-2.34449
11
2.28601
21
-2.34391
0
LINE
8
BLACK
6
CONTINUOUS
10
2.28601
20
-2.34391
11
2.28543
21
-2.34252
0
LINE
8
BLACK
6
CONTINUOUS
10
2.28543
20
-2.34252
11
2.28543
21
-2.24463
0
LINE
8
BLACK
6
CONTINUOUS
10
2.28543
20
-2.24463
11
2.28601
21
-2.24324
0
LINE
8
BLACK
6
CONTINUOUS
10
2.28601
20
-2.24324
11
2.2874
21
-2.24266
0
LINE
8
BLACK
6
CONTINUOUS
10
2.2874
20
-2.24266
11
2.28879
21
-2.24324
0
LINE
8
BLACK
6
CONTINUOUS
10
2.28879
20
-2.24324
11
2.28937
21
-2.24463
0
LINE
8
BLACK
6
CONTINUOUS
10
2.28937
20
-2.24463
11
2.28937
21
-2.26447
0
LINE
8
BLACK
6
CONTINUOUS
10
2.28937
20
-2.26447
11
2.33084
21
-2.24288
0
LINE
8
BLACK
6
CONTINUOUS
10
2.33084
20
-2.24288
11
2.33234
21
-2.24275
0
LINE
8
BLACK
6
CONTINUOUS
10
2.33234
20
-2.24275
11
2.3335
21
-2.24372
0
LINE
8
BLACK
6
CONTINUOUS
10
2.3335
20
-2.24372
11
2.33363
21
-2.24522
0
LINE
8
BLACK
6
CONTINUOUS
10
2.33363
20
-2.24522
11
2.33266
21
-2.24638
0
LINE
8
BLACK
6
CONTINUOUS
10
2.33266
20
-2.24638
11
2.29545
21
-2.26575
0
LINE
8
BLACK
6
CONTINUOUS
10
2.29545
20
-2.26575
11
9.91715
21
-2.26575
0
LINE
8
BLACK
6
CONTINUOUS
10
9.91715
20
-2.26575
11
9.87994
21
-2.24638
0
LINE
8
BLACK
6
CONTINUOUS
10
9.87994
20
-2.24638
11
9.87897
21
-2.24522
0
LINE
8
BLACK
6
CONTINUOUS
10
9.87897
20
-2.24522
11
9.8791
21
-2.24372
0
LINE
8
BLACK
6
CONTINUOUS
10
9.8791
20
-2.24372
11
9.88025
21
-2.24275
0
LINE
8
BLACK
6
CONTINUOUS
10
9.88025
20
-2.24275
11
9.88176
21
-2.24288
0
LINE
8
BLACK
6
CONTINUOUS
10
9.88176
20
-2.24288
11
9.92323
21
-2.26447
0
LINE
8
BLACK
6
CONTINUOUS
10
9.92323
20
-2.26447
11
9.92323
21
-2.24463
0
LINE
8
BLACK
6
CONTINUOUS
10
9.92323
20
-2.24463
11
9.9238
21
-2.24324
0
LINE
8
BLACK
6
CONTINUOUS
10
9.9238
20
-2.24324
11
9.9252
21
-2.24266
0
LINE
8
BLACK
6
CONTINUOUS
10
9.9252
20
-2.24266
11
9.92659
21
-2.24324
0
LINE
8
BLACK
6
CONTINUOUS
10
6.0242
20
-2.23657
11
6.02489
21
-2.23847
0
LINE
8
BLACK
6
CONTINUOUS
10
6.02489
20
-2.23847
11
6.02489
21
-2.24035
0
LINE
8
BLACK
6
CONTINUOUS
10
6.02489
20
-2.24035
11
6.02471
21
-2.24136
0
LINE
8
BLACK
6
CONTINUOUS
10
6.02471
20
-2.24136
11
6.0246
21
-2.24149
0
LINE
8
BLACK
6
CONTINUOUS
10
6.0246
20
-2.24149
11
6.02458
21
-2.24167
0
LINE
8
BLACK
6
CONTINUOUS
10
6.02458
20
-2.24167
11
6.0227
21
-2.24542
0
LINE
8
BLACK
6
CONTINUOUS
10
6.0227
20
-2.24542
11
6.02218
21
-2.24613
0
LINE
8
BLACK
6
CONTINUOUS
10
6.02218
20
-2.24613
11
6.02215
21
-2.24618
0
LINE
8
BLACK
6
CONTINUOUS
10
6.02215
20
-2.24618
11
6.02027
21
-2.24806
0
LINE
8
BLACK
6
CONTINUOUS
10
6.02027
20
-2.24806
11
6.01943
21
-2.24865
0
LINE
8
BLACK
6
CONTINUOUS
10
6.01943
20
-2.24865
11
6.01742
21
-2.24882
0
LINE
8
BLACK
6
CONTINUOUS
10
6.01742
20
-2.24882
11
6.01577
21
-2.24767
0
LINE
8
BLACK
6
CONTINUOUS
10
6.01577
20
-2.24767
11
6.01524
21
-2.24571
0
LINE
8
BLACK
6
CONTINUOUS
10
6.01524
20
-2.24571
11
6.0161
21
-2.24388
0
LINE
8
BLACK
6
CONTINUOUS
10
6.0161
20
-2.24388
11
6.01763
21
-2.24235
0
LINE
8
BLACK
6
CONTINUOUS
10
6.01763
20
-2.24235
11
6.01898
21
-2.23965
0
LINE
8
BLACK
6
CONTINUOUS
10
6.01898
20
-2.23965
11
6.01898
21
-2.23847
0
LINE
8
BLACK
6
CONTINUOUS
10
6.01898
20
-2.23847
11
6.01916
21
-2.23746
0
LINE
8
BLACK
6
CONTINUOUS
10
6.01916
20
-2.23746
11
6.02046
21
-2.23592
0
LINE
8
BLACK
6
CONTINUOUS
10
6.02046
20
-2.23592
11
6.02245
21
-2.23556
0
LINE
8
BLACK
6
CONTINUOUS
10
6.02245
20
-2.23556
11
6.0242
21
-2.23657
0
LINE
8
BLACK
6
CONTINUOUS
10
5.91729
20
-2.1981
11
5.91746
21
-2.19807
0
LINE
8
BLACK
6
CONTINUOUS
10
5.91746
20
-2.19807
11
5.9182
21
-2.1985
0
LINE
8
BLACK
6
CONTINUOUS
10
5.9182
20
-2.1985
11
5.91899
21
-2.19884
0
LINE
8
BLACK
6
CONTINUOUS
10
5.91899
20
-2.19884
11
5.91906
21
-2.19899
0
LINE
8
BLACK
6
CONTINUOUS
10
5.91906
20
-2.19899
11
5.91921
21
-2.19908
0
LINE
8
BLACK
6
CONTINUOUS
10
5.91921
20
-2.19908
11
5.9195
21
-2.19988
0
LINE
8
BLACK
6
CONTINUOUS
10
5.9195
20
-2.19988
11
5.91988
21
-2.20065
0
LINE
8
BLACK
6
CONTINUOUS
10
5.91988
20
-2.20065
11
5.91984
21
-2.20082
0
LINE
8
BLACK
6
CONTINUOUS
10
5.91984
20
-2.20082
11
5.9199
21
-2.20098
0
LINE
8
BLACK
6
CONTINUOUS
10
5.9199
20
-2.20098
11
5.9199
21
-2.23739
0
LINE
8
BLACK
6
CONTINUOUS
10
5.9199
20
-2.23739
11
5.9282
21
-2.23739
0
LINE
8
BLACK
6
CONTINUOUS
10
5.9282
20
-2.23739
11
5.92921
21
-2.23757
0
LINE
8
BLACK
6
CONTINUOUS
10
5.92921
20
-2.23757
11
5.93075
21
-2.23887
0
LINE
8
BLACK
6
CONTINUOUS
10
5.93075
20
-2.23887
11
5.9311
21
-2.24086
0
LINE
8
BLACK
6
CONTINUOUS
10
5.9311
20
-2.24086
11
5.93009
21
-2.24261
0
LINE
8
BLACK
6
CONTINUOUS
10
5.93009
20
-2.24261
11
5.9282
21
-2.2433
0
LINE
8
BLACK
6
CONTINUOUS
10
5.9282
20
-2.2433
11
5.9057
21
-2.2433
0
LINE
8
BLACK
6
CONTINUOUS
10
5.9057
20
-2.2433
11
5.90469
21
-2.24312
0
LINE
8
BLACK
6
CONTINUOUS
10
5.90469
20
-2.24312
11
5.90314
21
-2.24182
0
LINE
8
BLACK
6
CONTINUOUS
10
5.90314
20
-2.24182
11
5.90279
21
-2.23983
0
LINE
8
BLACK
6
CONTINUOUS
10
5.90279
20
-2.23983
11
5.9038
21
-2.23809
0
LINE
8
BLACK
6
CONTINUOUS
10
5.9038
20
-2.23809
11
5.9057
21
-2.23739
0
LINE
8
BLACK
6
CONTINUOUS
10
5.9057
20
-2.23739
11
5.914
21
-2.23739
0
LINE
8
BLACK
6
CONTINUOUS
10
5.914
20
-2.23739
11
5.914
21
-2.20998
0
LINE
8
BLACK
6
CONTINUOUS
10
5.914
20
-2.20998
11
5.91154
21
-2.21244
0
LINE
8
BLACK
6
CONTINUOUS
10
5.91154
20
-2.21244
11
5.91081
21
-2.21295
0
LINE
8
BLACK
6
CONTINUOUS
10
5.91081
20
-2.21295
11
5.91077
21
-2.21299
0
LINE
8
BLACK
6
CONTINUOUS
10
5.91077
20
-2.21299
11
5.90702
21
-2.21487
0
LINE
8
BLACK
6
CONTINUOUS
10
5.90702
20
-2.21487
11
5.90604
21
-2.21516
0
LINE
8
BLACK
6
CONTINUOUS
10
5.90604
20
-2.21516
11
5.90407
21
-2.21469
0
LINE
8
BLACK
6
CONTINUOUS
10
5.90407
20
-2.21469
11
5.90287
21
-2.21307
0
LINE
8
BLACK
6
CONTINUOUS
10
5.90287
20
-2.21307
11
5.90299
21
-2.21105
0
LINE
8
BLACK
6
CONTINUOUS
10
5.90299
20
-2.21105
11
5.90438
21
-2.20958
0
LINE
8
BLACK
6
CONTINUOUS
10
5.90438
20
-2.20958
11
5.9077
21
-2.20792
0
LINE
8
BLACK
6
CONTINUOUS
10
5.9077
20
-2.20792
11
5.9109
21
-2.20472
0
LINE
8
BLACK
6
CONTINUOUS
10
5.9109
20
-2.20472
11
5.91449
21
-2.19934
0
LINE
8
BLACK
6
CONTINUOUS
10
5.91449
20
-2.19934
11
5.9152
21
-2.1986
0
LINE
8
BLACK
6
CONTINUOUS
10
5.9152
20
-2.1986
11
5.91536
21
-2.19855
0
LINE
8
BLACK
6
CONTINUOUS
10
5.91536
20
-2.19855
11
5.91547
21
-2.19842
0
LINE
8
BLACK
6
CONTINUOUS
10
5.91547
20
-2.19842
11
5.91632
21
-2.19827
0
LINE
8
BLACK
6
CONTINUOUS
10
5.91632
20
-2.19827
11
5.91714
21
-2.19803
0
LINE
8
BLACK
6
CONTINUOUS
10
5.91714
20
-2.19803
11
5.91729
21
-2.1981
0
LINE
8
BLACK
6
CONTINUOUS
10
5.9592
20
-2.1982
11
5.95934
21
-2.19832
0
LINE
8
BLACK
6
CONTINUOUS
10
5.95934
20
-2.19832
11
5.95951
21
-2.19834
0
LINE
8
BLACK
6
CONTINUOUS
10
5.95951
20
-2.19834
11
5.96326
21
-2.20021
0
LINE
8
BLACK
6
CONTINUOUS
10
5.96326
20
-2.20021
11
5.96397
21
-2.20074
0
LINE
8
BLACK
6
CONTINUOUS
10
5.96397
20
-2.20074
11
5.96403
21
-2.20076
0
LINE
8
BLACK
6
CONTINUOUS
10
5.96403
20
-2.20076
11
5.9659
21
-2.20264
0
LINE
8
BLACK
6
CONTINUOUS
10
5.9659
20
-2.20264
11
5.96641
21
-2.20336
0
LINE
8
BLACK
6
CONTINUOUS
10
5.96641
20
-2.20336
11
5.96646
21
-2.20341
0
LINE
8
BLACK
6
CONTINUOUS
10
5.96646
20
-2.20341
11
5.96833
21
-2.20716
0
LINE
8
BLACK
6
CONTINUOUS
10
5.96833
20
-2.20716
11
5.96863
21
-2.20814
0
LINE
8
BLACK
6
CONTINUOUS
10
5.96863
20
-2.20814
11
5.96858
21
-2.20831
0
LINE
8
BLACK
6
CONTINUOUS
10
5.96858
20
-2.20831
11
5.96864
21
-2.20848
0
LINE
8
BLACK
6
CONTINUOUS
10
5.96864
20
-2.20848
11
5.96864
21
-2.22347
0
LINE
8
BLACK
6
CONTINUOUS
10
5.96864
20
-2.22347
11
5.96854
21
-2.22405
0
LINE
8
BLACK
6
CONTINUOUS
10
5.96854
20
-2.22405
11
5.96856
21
-2.22419
0
LINE
8
BLACK
6
CONTINUOUS
10
5.96856
20
-2.22419
11
5.96668
21
-2.23169
0
LINE
8
BLACK
6
CONTINUOUS
10
5.96668
20
-2.23169
11
5.96628
21
-2.23259
0
LINE
8
BLACK
6
CONTINUOUS
10
5.96628
20
-2.23259
11
5.96627
21
-2.23261
0
LINE
8
BLACK
6
CONTINUOUS
10
5.96627
20
-2.23261
11
5.96252
21
-2.23824
0
LINE
8
BLACK
6
CONTINUOUS
10
5.96252
20
-2.23824
11
5.96221
21
-2.23856
0
LINE
8
BLACK
6
CONTINUOUS
10
5.96221
20
-2.23856
11
5.96216
21
-2.23869
0
LINE
8
BLACK
6
CONTINUOUS
10
5.96216
20
-2.23869
11
5.96028
21
-2.24056
0
LINE
8
BLACK
6
CONTINUOUS
10
5.96028
20
-2.24056
11
5.95956
21
-2.24107
0
LINE
8
BLACK
6
CONTINUOUS
10
5.95956
20
-2.24107
11
5.95951
21
-2.24111
0
LINE
8
BLACK
6
CONTINUOUS
10
5.95951
20
-2.24111
11
5.95576
21
-2.24299
0
LINE
8
BLACK
6
CONTINUOUS
10
5.95576
20
-2.24299
11
5.95478
21
-2.24328
0
LINE
8
BLACK
6
CONTINUOUS
10
5.95478
20
-2.24328
11
5.95461
21
-2.24324
0
LINE
8
BLACK
6
CONTINUOUS
10
5.95461
20
-2.24324
11
5.95444
21
-2.2433
0
LINE
8
BLACK
6
CONTINUOUS
10
5.95444
20
-2.2433
11
5.94694
21
-2.2433
0
LINE
8
BLACK
6
CONTINUOUS
10
5.94694
20
-2.2433
11
5.94593
21
-2.24312
0
LINE
8
BLACK
6
CONTINUOUS
10
5.94593
20
-2.24312
11
5.94439
21
-2.24182
0
LINE
8
BLACK
6
CONTINUOUS
10
5.94439
20
-2.24182
11
5.94404
21
-2.23983
0
LINE
8
BLACK
6
CONTINUOUS
10
5.94404
20
-2.23983
11
5.94505
21
-2.23809
0
LINE
8
BLACK
6
CONTINUOUS
10
5.94505
20
-2.23809
11
5.94694
21
-2.23739
0
LINE
8
BLACK
6
CONTINUOUS
10
5.94694
20
-2.23739
11
5.95375
21
-2.23739
0
LINE
8
BLACK
6
CONTINUOUS
10
5.95375
20
-2.23739
11
5.95644
21
-2.23605
0
LINE
8
BLACK
6
CONTINUOUS
10
5.95644
20
-2.23605
11
5.95777
21
-2.23472
0
LINE
8
BLACK
6
CONTINUOUS
10
5.95777
20
-2.23472
11
5.96108
21
-2.22976
0
LINE
8
BLACK
6
CONTINUOUS
10
5.96108
20
-2.22976
11
5.96181
21
-2.22684
0
LINE
8
BLACK
6
CONTINUOUS
10
5.96181
20
-2.22684
11
5.95951
21
-2.22799
0
LINE
8
BLACK
6
CONTINUOUS
10
5.95951
20
-2.22799
11
5.95853
21
-2.22828
0
LINE
8
BLACK
6
CONTINUOUS
10
5.95853
20
-2.22828
11
5.95836
21
-2.22824
0
LINE
8
BLACK
6
CONTINUOUS
10
5.95836
20
-2.22824
11
5.95819
21
-2.2283
0
LINE
8
BLACK
6
CONTINUOUS
10
5.95819
20
-2.2283
11
5.95069
21
-2.2283
0
LINE
8
BLACK
6
CONTINUOUS
10
5.95069
20
-2.2283
11
5.94968
21
-2.22812
0
LINE
8
BLACK
6
CONTINUOUS
10
5.94968
20
-2.22812
11
5.94955
21
-2.22801
0
LINE
8
BLACK
6
CONTINUOUS
10
5.94955
20
-2.22801
11
5.94937
21
-2.22799
0
LINE
8
BLACK
6
CONTINUOUS
10
5.94937
20
-2.22799
11
5.94562
21
-2.22612
0
LINE
8
BLACK
6
CONTINUOUS
10
5.94562
20
-2.22612
11
5.94491
21
-2.22559
0
LINE
8
BLACK
6
CONTINUOUS
10
5.94491
20
-2.22559
11
5.94486
21
-2.22556
0
LINE
8
BLACK
6
CONTINUOUS
10
5.94486
20
-2.22556
11
5.94298
21
-2.22369
0
LINE
8
BLACK
6
CONTINUOUS
10
5.94298
20
-2.22369
11
5.94248
21
-2.22296
0
LINE
8
BLACK
6
CONTINUOUS
10
5.94248
20
-2.22296
11
5.94243
21
-2.22292
0
LINE
8
BLACK
6
CONTINUOUS
10
5.94243
20
-2.22292
11
5.94055
21
-2.21917
0
LINE
8
BLACK
6
CONTINUOUS
10
5.94055
20
-2.21917
11
5.94026
21
-2.21819
0
LINE
8
BLACK
6
CONTINUOUS
10
5.94026
20
-2.21819
11
5.9403
21
-2.21802
0
LINE
8
BLACK
6
CONTINUOUS
10
5.9403
20
-2.21802
11
5.94024
21
-2.21785
0
LINE
8
BLACK
6
CONTINUOUS
10
5.94024
20
-2.21785
11
5.94024
21
-2.20848
0
LINE
8
BLACK
6
CONTINUOUS
10
5.94024
20
-2.20848
11
5.94042
21
-2.20747
0
LINE
8
BLACK
6
CONTINUOUS
10
5.94042
20
-2.20747
11
5.94053
21
-2.20733
0
LINE
8
BLACK
6
CONTINUOUS
10
5.94053
20
-2.20733
11
5.94055
21
-2.20716
0
LINE
8
BLACK
6
CONTINUOUS
10
5.94055
20
-2.20716
11
5.94243
21
-2.20341
0
LINE
8
BLACK
6
CONTINUOUS
10
5.94243
20
-2.20341
11
5.94295
21
-2.2027
0
LINE
8
BLACK
6
CONTINUOUS
10
5.94295
20
-2.2027
11
5.94298
21
-2.20264
0
LINE
8
BLACK
6
CONTINUOUS
10
5.94298
20
-2.20264
11
5.94486
21
-2.20076
0
LINE
8
BLACK
6
CONTINUOUS
10
5.94486
20
-2.20076
11
5.94558
21
-2.20026
0
LINE
8
BLACK
6
CONTINUOUS
10
5.94558
20
-2.20026
11
5.94562
21
-2.20021
0
LINE
8
BLACK
6
CONTINUOUS
10
5.94562
20
-2.20021
11
5.94937
21
-2.19834
0
LINE
8
BLACK
6
CONTINUOUS
10
5.94937
20
-2.19834
11
5.95036
21
-2.19804
0
LINE
8
BLACK
6
CONTINUOUS
10
5.95036
20
-2.19804
11
5.95053
21
-2.19808
0
LINE
8
BLACK
6
CONTINUOUS
10
5.95053
20
-2.19808
11
5.95069
21
-2.19802
0
LINE
8
BLACK
6
CONTINUOUS
10
5.95069
20
-2.19802
11
5.95819
21
-2.19802
0
LINE
8
BLACK
6
CONTINUOUS
10
5.95819
20
-2.19802
11
5.9592
21
-2.1982
0
LINE
8
BLACK
6
CONTINUOUS
10
5.94869
20
-2.20528
11
5.9475
21
-2.20648
0
LINE
8
BLACK
6
CONTINUOUS
10
5.9475
20
-2.20648
11
5.94615
21
-2.20917
0
LINE
8
BLACK
6
CONTINUOUS
10
5.94615
20
-2.20917
11
5.94615
21
-2.21715
0
LINE
8
BLACK
6
CONTINUOUS
10
5.94615
20
-2.21715
11
5.9475
21
-2.21985
0
LINE
8
BLACK
6
CONTINUOUS
10
5.9475
20
-2.21985
11
5.94869
21
-2.22105
0
LINE
8
BLACK
6
CONTINUOUS
10
5.94869
20
-2.22105
11
5.95139
21
-2.2224
0
LINE
8
BLACK
6
CONTINUOUS
10
5.95139
20
-2.2224
11
5.9575
21
-2.2224
0
LINE
8
BLACK
6
CONTINUOUS
10
5.9575
20
-2.2224
11
5.96019
21
-2.22105
0
LINE
8
BLACK
6
CONTINUOUS
10
5.96019
20
-2.22105
11
5.96139
21
-2.21985
0
LINE
8
BLACK
6
CONTINUOUS
10
5.96139
20
-2.21985
11
5.96274
21
-2.21715
0
LINE
8
BLACK
6
CONTINUOUS
10
5.96274
20
-2.21715
11
5.96274
21
-2.20917
0
LINE
8
BLACK
6
CONTINUOUS
10
5.96274
20
-2.20917
11
5.96139
21
-2.20648
0
LINE
8
BLACK
6
CONTINUOUS
10
5.96139
20
-2.20648
11
5.96019
21
-2.20528
0
LINE
8
BLACK
6
CONTINUOUS
10
5.96019
20
-2.20528
11
5.9575
21
-2.20393
0
LINE
8
BLACK
6
CONTINUOUS
10
5.9575
20
-2.20393
11
5.95139
21
-2.20393
0
LINE
8
BLACK
6
CONTINUOUS
10
5.95139
20
-2.20393
11
5.94869
21
-2.20528
0
LINE
8
BLACK
6
CONTINUOUS
10
6.05107
20
-2.1982
11
6.0512
21
-2.19832
0
LINE
8
BLACK
6
CONTINUOUS
10
6.0512
20
-2.19832
11
6.05138
21
-2.19834
0
LINE
8
BLACK
6
CONTINUOUS
10
6.05138
20
-2.19834
11
6.05513
21
-2.20021
0
LINE
8
BLACK
6
CONTINUOUS
10
6.05513
20
-2.20021
11
6.05584
21
-2.20074
0
LINE
8
BLACK
6
CONTINUOUS
10
6.05584
20
-2.20074
11
6.05589
21
-2.20076
0
LINE
8
BLACK
6
CONTINUOUS
10
6.05589
20
-2.20076
11
6.05777
21
-2.20264
0
LINE
8
BLACK
6
CONTINUOUS
10
6.05777
20
-2.20264
11
6.05827
21
-2.20336
0
LINE
8
BLACK
6
CONTINUOUS
10
6.05827
20
-2.20336
11
6.05832
21
-2.20341
0
LINE
8
BLACK
6
CONTINUOUS
10
6.05832
20
-2.20341
11
6.0602
21
-2.20716
0
LINE
8
BLACK
6
CONTINUOUS
10
6.0602
20
-2.20716
11
6.06034
21
-2.20764
0
LINE
8
BLACK
6
CONTINUOUS
10
6.06034
20
-2.20764
11
6.06042
21
-2.20776
0
LINE
8
BLACK
6
CONTINUOUS
10
6.06042
20
-2.20776
11
6.06229
21
-2.21526
0
LINE
8
BLACK
6
CONTINUOUS
10
6.06229
20
-2.21526
11
6.06234
21
-2.21585
0
LINE
8
BLACK
6
CONTINUOUS
10
6.06234
20
-2.21585
11
6.06238
21
-2.21598
0
LINE
8
BLACK
6
CONTINUOUS
10
6.06238
20
-2.21598
11
6.06238
21
-2.22535
0
LINE
8
BLACK
6
CONTINUOUS
10
6.06238
20
-2.22535
11
6.06228
21
-2.22593
0
LINE
8
BLACK
6
CONTINUOUS
10
6.06228
20
-2.22593
11
6.06229
21
-2.22607
0
LINE
8
BLACK
6
CONTINUOUS
10
6.06229
20
-2.22607
11
6.06042
21
-2.23356
0
LINE
8
BLACK
6
CONTINUOUS
10
6.06042
20
-2.23356
11
6.06021
21
-2.23403
0
LINE
8
BLACK
6
CONTINUOUS
10
6.06021
20
-2.23403
11
6.0602
21
-2.23417
0
LINE
8
BLACK
6
CONTINUOUS
10
6.0602
20
-2.23417
11
6.05832
21
-2.23792
0
LINE
8
BLACK
6
CONTINUOUS
10
6.05832
20
-2.23792
11
6.0578
21
-2.23863
0
LINE
8
BLACK
6
CONTINUOUS
10
6.0578
20
-2.23863
11
6.05777
21
-2.23869
0
LINE
8
BLACK
6
CONTINUOUS
10
6.05777
20
-2.23869
11
6.05589
21
-2.24056
0
LINE
8
BLACK
6
CONTINUOUS
10
6.05589
20
-2.24056
11
6.05517
21
-2.24107
0
LINE
8
BLACK
6
CONTINUOUS
10
6.05517
20
-2.24107
11
6.05513
21
-2.24111
0
LINE
8
BLACK
6
CONTINUOUS
10
6.05513
20
-2.24111
11
6.05138
21
-2.24299
0
LINE
8
BLACK
6
CONTINUOUS
10
6.05138
20
-2.24299
11
6.05039
21
-2.24328
0
LINE
8
BLACK
6
CONTINUOUS
10
6.05039
20
-2.24328
11
6.05022
21
-2.24324
0
LINE
8
BLACK
6
CONTINUOUS
10
6.05022
20
-2.24324
11
6.05006
21
-2.2433
0
LINE
8
BLACK
6
CONTINUOUS
10
6.05006
20
-2.2433
11
6.04631
21
-2.2433
0
LINE
8
BLACK
6
CONTINUOUS
10
6.04631
20
-2.2433
11
6.0453
21
-2.24312
0
LINE
8
BLACK
6
CONTINUOUS
10
6.0453
20
-2.24312
11
6.04516
21
-2.24301
0
LINE
8
BLACK
6
CONTINUOUS
10
6.04516
20
-2.24301
11
6.04499
21
-2.24299
0
LINE
8
BLACK
6
CONTINUOUS
10
6.04499
20
-2.24299
11
6.04124
21
-2.24111
0
LINE
8
BLACK
6
CONTINUOUS
10
6.04124
20
-2.24111
11
6.04053
21
-2.24059
0
LINE
8
BLACK
6
CONTINUOUS
10
6.04053
20
-2.24059
11
6.04047
21
-2.24056
0
LINE
8
BLACK
6
CONTINUOUS
10
6.04047
20
-2.24056
11
6.03859
21
-2.23869
0
LINE
8
BLACK
6
CONTINUOUS
10
6.03859
20
-2.23869
11
6.03809
21
-2.23796
0
LINE
8
BLACK
6
CONTINUOUS
10
6.03809
20
-2.23796
11
6.03804
21
-2.23792
0
LINE
8
BLACK
6
CONTINUOUS
10
6.03804
20
-2.23792
11
6.03617
21
-2.23417
0
LINE
8
BLACK
6
CONTINUOUS
10
6.03617
20
-2.23417
11
6.03602
21
-2.23368
0
LINE
8
BLACK
6
CONTINUOUS
10
6.03602
20
-2.23368
11
6.03594
21
-2.23356
0
LINE
8
BLACK
6
CONTINUOUS
10
6.03594
20
-2.23356
11
6.03407
21
-2.22607
0
LINE
8
BLACK
6
CONTINUOUS
10
6.03407
20
-2.22607
11
6.03403
21
-2.22548
0
LINE
8
BLACK
6
CONTINUOUS
10
6.03403
20
-2.22548
11
6.03398
21
-2.22535
0
LINE
8
BLACK
6
CONTINUOUS
10
6.03398
20
-2.22535
11
6.03398
21
-2.21598
0
LINE
8
BLACK
6
CONTINUOUS
10
6.03398
20
-2.21598
11
6.03408
21
-2.21539
0
LINE
8
BLACK
6
CONTINUOUS
10
6.03408
20
-2.21539
11
6.03407
21
-2.21526
0
LINE
8
BLACK
6
CONTINUOUS
10
6.03407
20
-2.21526
11
6.03594
21
-2.20776
0
LINE
8
BLACK
6
CONTINUOUS
10
6.03594
20
-2.20776
11
6.03615
21
-2.20729
0
LINE
8
BLACK
6
CONTINUOUS
10
6.03615
20
-2.20729
11
6.03617
21
-2.20716
0
LINE
8
BLACK
6
CONTINUOUS
10
6.03617
20
-2.20716
11
6.03804
21
-2.20341
0
LINE
8
BLACK
6
CONTINUOUS
10
6.03804
20
-2.20341
11
6.03857
21
-2.2027
0
LINE
8
BLACK
6
CONTINUOUS
10
6.03857
20
-2.2027
11
6.03859
21
-2.20264
0
LINE
8
BLACK
6
CONTINUOUS
10
6.03859
20
-2.20264
11
6.04047
21
-2.20076
0
LINE
8
BLACK
6
CONTINUOUS
10
6.04047
20
-2.20076
11
6.04119
21
-2.20026
0
LINE
8
BLACK
6
CONTINUOUS
10
6.04119
20
-2.20026
11
6.04124
21
-2.20021
0
LINE
8
BLACK
6
CONTINUOUS
10
6.04124
20
-2.20021
11
6.04499
21
-2.19834
0
LINE
8
BLACK
6
CONTINUOUS
10
6.04499
20
-2.19834
11
6.04597
21
-2.19804
0
LINE
8
BLACK
6
CONTINUOUS
10
6.04597
20
-2.19804
11
6.04614
21
-2.19808
0
LINE
8
BLACK
6
CONTINUOUS
10
6.04614
20
-2.19808
11
6.04631
21
-2.19802
0
LINE
8
BLACK
6
CONTINUOUS
10
6.04631
20
-2.19802
11
6.05006
21
-2.19802
0
LINE
8
BLACK
6
CONTINUOUS
10
6.05006
20
-2.19802
11
6.05107
21
-2.1982
0
LINE
8
BLACK
6
CONTINUOUS
10
6.04431
20
-2.20528
11
6.04311
21
-2.20648
0
LINE
8
BLACK
6
CONTINUOUS
10
6.04311
20
-2.20648
11
6.04159
21
-2.20951
0
LINE
8
BLACK
6
CONTINUOUS
10
6.04159
20
-2.20951
11
6.03989
21
-2.21634
0
LINE
8
BLACK
6
CONTINUOUS
10
6.03989
20
-2.21634
11
6.03989
21
-2.22499
0
LINE
8
BLACK
6
CONTINUOUS
10
6.03989
20
-2.22499
11
6.04159
21
-2.23182
0
LINE
8
BLACK
6
CONTINUOUS
10
6.04159
20
-2.23182
11
6.04311
21
-2.23485
0
LINE
8
BLACK
6
CONTINUOUS
10
6.04311
20
-2.23485
11
6.04431
21
-2.23605
0
LINE
8
BLACK
6
CONTINUOUS
10
6.04431
20
-2.23605
11
6.047
21
-2.23739
0
LINE
8
BLACK
6
CONTINUOUS
10
6.047
20
-2.23739
11
6.04936
21
-2.23739
0
LINE
8
BLACK
6
CONTINUOUS
10
6.04936
20
-2.23739
11
6.05206
21
-2.23605
0
LINE
8
BLACK
6
CONTINUOUS
10
6.05206
20
-2.23605
11
6.05325
21
-2.23485
0
LINE
8
BLACK
6
CONTINUOUS
10
6.05325
20
-2.23485
11
6.05477
21
-2.23182
0
LINE
8
BLACK
6
CONTINUOUS
10
6.05477
20
-2.23182
11
6.05648
21
-2.22499
0
LINE
8
BLACK
6
CONTINUOUS
10
6.05648
20
-2.22499
11
6.05648
21
-2.21634
0
LINE
8
BLACK
6
CONTINUOUS
10
6.05648
20
-2.21634
11
6.05477
21
-2.20951
0
LINE
8
BLACK
6
CONTINUOUS
10
6.05477
20
-2.20951
11
6.05325
21
-2.20648
0
LINE
8
BLACK
6
CONTINUOUS
10
6.05325
20
-2.20648
11
6.05206
21
-2.20528
0
LINE
8
BLACK
6
CONTINUOUS
10
6.05206
20
-2.20528
11
6.04936
21
-2.20393
0
LINE
8
BLACK
6
CONTINUOUS
10
6.04936
20
-2.20393
11
6.047
21
-2.20393
0
LINE
8
BLACK
6
CONTINUOUS
10
6.047
20
-2.20393
11
6.04431
21
-2.20528
0
LINE
8
BLACK
6
CONTINUOUS
10
6.08856
20
-2.1982
11
6.0887
21
-2.19832
0
LINE
8
BLACK
6
CONTINUOUS
10
6.0887
20
-2.19832
11
6.08887
21
-2.19834
0
LINE
8
BLACK
6
CONTINUOUS
10
6.08887
20
-2.19834
11
6.09262
21
-2.20021
0
LINE
8
BLACK
6
CONTINUOUS
10
6.09262
20
-2.20021
11
6.09333
21
-2.20074
0
LINE
8
BLACK
6
CONTINUOUS
10
6.09333
20
-2.20074
11
6.09339
21
-2.20076
0
LINE
8
BLACK
6
CONTINUOUS
10
6.09339
20
-2.20076
11
6.09526
21
-2.20264
0
LINE
8
BLACK
6
CONTINUOUS
10
6.09526
20
-2.20264
11
6.09577
21
-2.20336
0
LINE
8
BLACK
6
CONTINUOUS
10
6.09577
20
-2.20336
11
6.09582
21
-2.20341
0
LINE
8
BLACK
6
CONTINUOUS
10
6.09582
20
-2.20341
11
6.09769
21
-2.20716
0
LINE
8
BLACK
6
CONTINUOUS
10
6.09769
20
-2.20716
11
6.09784
21
-2.20764
0
LINE
8
BLACK
6
CONTINUOUS
10
6.09784
20
-2.20764
11
6.09792
21
-2.20776
0
LINE
8
BLACK
6
CONTINUOUS
10
6.09792
20
-2.20776
11
6.09979
21
-2.21526
0
LINE
8
BLACK
6
CONTINUOUS
10
6.09979
20
-2.21526
11
6.09983
21
-2.21585
0
LINE
8
BLACK
6
CONTINUOUS
10
6.09983
20
-2.21585
11
6.09988
21
-2.21598
0
LINE
8
BLACK
6
CONTINUOUS
10
6.09988
20
-2.21598
11
6.09988
21
-2.22535
0
LINE
8
BLACK
6
CONTINUOUS
10
6.09988
20
-2.22535
11
6.09978
21
-2.22593
0
LINE
8
BLACK
6
CONTINUOUS
10
6.09978
20
-2.22593
11
6.09979
21
-2.22607
0
LINE
8
BLACK
6
CONTINUOUS
10
6.09979
20
-2.22607
11
6.09792
21
-2.23356
0
LINE
8
BLACK
6
CONTINUOUS
10
6.09792
20
-2.23356
11
6.09771
21
-2.23403
0
LINE
8
BLACK
6
CONTINUOUS
10
6.09771
20
-2.23403
11
6.09769
21
-2.23417
0
LINE
8
BLACK
6
CONTINUOUS
10
6.09769
20
-2.23417
11
6.09582
21
-2.23792
0
LINE
8
BLACK
6
CONTINUOUS
10
6.09582
20
-2.23792
11
6.09529
21
-2.23863
0
LINE
8
BLACK
6
CONTINUOUS
10
6.09529
20
-2.23863
11
6.09526
21
-2.23869
0
LINE
8
BLACK
6
CONTINUOUS
10
6.09526
20
-2.23869
11
6.09339
21
-2.24056
0
LINE
8
BLACK
6
CONTINUOUS
10
6.09339
20
-2.24056
11
6.09267
21
-2.24107
0
LINE
8
BLACK
6
CONTINUOUS
10
6.09267
20
-2.24107
11
6.09262
21
-2.24111
0
LINE
8
BLACK
6
CONTINUOUS
10
6.09262
20
-2.24111
11
6.08887
21
-2.24299
0
LINE
8
BLACK
6
CONTINUOUS
10
6.08887
20
-2.24299
11
6.08789
21
-2.24328
0
LINE
8
BLACK
6
CONTINUOUS
10
6.08789
20
-2.24328
11
6.08772
21
-2.24324
0
LINE
8
BLACK
6
CONTINUOUS
10
6.08772
20
-2.24324
11
6.08755
21
-2.2433
0
LINE
8
BLACK
6
CONTINUOUS
10
6.08755
20
-2.2433
11
6.0838
21
-2.2433
0
LINE
8
BLACK
6
CONTINUOUS
10
6.0838
20
-2.2433
11
6.08279
21
-2.24312
0
LINE
8
BLACK
6
CONTINUOUS
10
6.08279
20
-2.24312
11
6.08266
21
-2.24301
0
LINE
8
BLACK
6
CONTINUOUS
10
6.08266
20
-2.24301
11
6.08248
21
-2.24299
0
LINE
8
BLACK
6
CONTINUOUS
10
6.08248
20
-2.24299
11
6.07873
21
-2.24111
0
LINE
8
BLACK
6
CONTINUOUS
10
6.07873
20
-2.24111
11
6.07802
21
-2.24059
0
LINE
8
BLACK
6
CONTINUOUS
10
6.07802
20
-2.24059
11
6.07796
21
-2.24056
0
LINE
8
BLACK
6
CONTINUOUS
10
6.07796
20
-2.24056
11
6.07609
21
-2.23869
0
LINE
8
BLACK
6
CONTINUOUS
10
6.07609
20
-2.23869
11
6.07558
21
-2.23796
0
LINE
8
BLACK
6
CONTINUOUS
10
6.07558
20
-2.23796
11
6.07554
21
-2.23792
0
LINE
8
BLACK
6
CONTINUOUS
10
6.07554
20
-2.23792
11
6.07366
21
-2.23417
0
LINE
8
BLACK
6
CONTINUOUS
10
6.07366
20
-2.23417
11
6.07352
21
-2.23368
0
LINE
8
BLACK
6
CONTINUOUS
10
6.07352
20
-2.23368
11
6.07344
21
-2.23356
0
LINE
8
BLACK
6
CONTINUOUS
10
6.07344
20
-2.23356
11
6.07156
21
-2.22607
0
LINE
8
BLACK
6
CONTINUOUS
10
6.07156
20
-2.22607
11
6.07152
21
-2.22548
0
LINE
8
BLACK
6
CONTINUOUS
10
6.07152
20
-2.22548
11
6.07148
21
-2.22535
0
LINE
8
BLACK
6
CONTINUOUS
10
6.07148
20
-2.22535
11
6.07148
21
-2.21598
0
LINE
8
BLACK
6
CONTINUOUS
10
6.07148
20
-2.21598
11
6.07158
21
-2.21539
0
LINE
8
BLACK
6
CONTINUOUS
10
6.07158
20
-2.21539
11
6.07156
21
-2.21526
0
LINE
8
BLACK
6
CONTINUOUS
10
6.07156
20
-2.21526
11
6.07344
21
-2.20776
0
LINE
8
BLACK
6
CONTINUOUS
10
6.07344
20
-2.20776
11
6.07365
21
-2.20729
0
LINE
8
BLACK
6
CONTINUOUS
10
6.07365
20
-2.20729
11
6.07366
21
-2.20716
0
LINE
8
BLACK
6
CONTINUOUS
10
6.07366
20
-2.20716
11
6.07554
21
-2.20341
0
LINE
8
BLACK
6
CONTINUOUS
10
6.07554
20
-2.20341
11
6.07606
21
-2.2027
0
LINE
8
BLACK
6
CONTINUOUS
10
6.07606
20
-2.2027
11
6.07609
21
-2.20264
0
LINE
8
BLACK
6
CONTINUOUS
10
6.07609
20
-2.20264
11
6.07796
21
-2.20076
0
LINE
8
BLACK
6
CONTINUOUS
10
6.07796
20
-2.20076
11
6.07869
21
-2.20026
0
LINE
8
BLACK
6
CONTINUOUS
10
6.07869
20
-2.20026
11
6.07873
21
-2.20021
0
LINE
8
BLACK
6
CONTINUOUS
10
6.07873
20
-2.20021
11
6.08248
21
-2.19834
0
LINE
8
BLACK
6
CONTINUOUS
10
6.08248
20
-2.19834
11
6.08346
21
-2.19804
0
LINE
8
BLACK
6
CONTINUOUS
10
6.08346
20
-2.19804
11
6.08364
21
-2.19808
0
LINE
8
BLACK
6
CONTINUOUS
10
6.08364
20
-2.19808
11
6.0838
21
-2.19802
0
LINE
8
BLACK
6
CONTINUOUS
10
6.0838
20
-2.19802
11
6.08755
21
-2.19802
0
LINE
8
BLACK
6
CONTINUOUS
10
6.08755
20
-2.19802
11
6.08856
21
-2.1982
0
LINE
8
BLACK
6
CONTINUOUS
10
6.0818
20
-2.20528
11
6.0806
21
-2.20648
0
LINE
8
BLACK
6
CONTINUOUS
10
6.0806
20
-2.20648
11
6.07909
21
-2.20951
0
LINE
8
BLACK
6
CONTINUOUS
10
6.07909
20
-2.20951
11
6.07738
21
-2.21634
0
LINE
8
BLACK
6
CONTINUOUS
10
6.07738
20
-2.21634
11
6.07738
21
-2.22499
0
LINE
8
BLACK
6
CONTINUOUS
10
6.07738
20
-2.22499
11
6.07909
21
-2.23182
0
LINE
8
BLACK
6
CONTINUOUS
10
6.07909
20
-2.23182
11
6.0806
21
-2.23485
0
LINE
8
BLACK
6
CONTINUOUS
10
6.0806
20
-2.23485
11
6.0818
21
-2.23605
0
LINE
8
BLACK
6
CONTINUOUS
10
6.0818
20
-2.23605
11
6.0845
21
-2.23739
0
LINE
8
BLACK
6
CONTINUOUS
10
6.0845
20
-2.23739
11
6.08685
21
-2.23739
0
LINE
8
BLACK
6
CONTINUOUS
10
6.08685
20
-2.23739
11
6.08955
21
-2.23605
0
LINE
8
BLACK
6
CONTINUOUS
10
6.08955
20
-2.23605
11
6.09075
21
-2.23485
0
LINE
8
BLACK
6
CONTINUOUS
10
6.09075
20
-2.23485
11
6.09226
21
-2.23182
0
LINE
8
BLACK
6
CONTINUOUS
10
6.09226
20
-2.23182
11
6.09397
21
-2.22499
0
LINE
8
BLACK
6
CONTINUOUS
10
6.09397
20
-2.22499
11
6.09397
21
-2.21634
0
LINE
8
BLACK
6
CONTINUOUS
10
6.09397
20
-2.21634
11
6.09226
21
-2.20951
0
LINE
8
BLACK
6
CONTINUOUS
10
6.09226
20
-2.20951
11
6.09075
21
-2.20648
0
LINE
8
BLACK
6
CONTINUOUS
10
6.09075
20
-2.20648
11
6.08955
21
-2.20528
0
LINE
8
BLACK
6
CONTINUOUS
10
6.08955
20
-2.20528
11
6.08685
21
-2.20393
0
LINE
8
BLACK
6
CONTINUOUS
10
6.08685
20
-2.20393
11
6.0845
21
-2.20393
0
LINE
8
BLACK
6
CONTINUOUS
10
6.0845
20
-2.20393
11
6.0818
21
-2.20528
0
LINE
8
BLACK
6
CONTINUOUS
10
6.12606
20
-2.1982
11
6.12619
21
-2.19832
0
LINE
8
BLACK
6
CONTINUOUS
10
6.12619
20
-2.19832
11
6.12637
21
-2.19834
0
LINE
8
BLACK
6
CONTINUOUS
10
6.12637
20
-2.19834
11
6.13012
21
-2.20021
0
LINE
8
BLACK
6
CONTINUOUS
10
6.13012
20
-2.20021
11
6.13083
21
-2.20074
0
LINE
8
BLACK
6
CONTINUOUS
10
6.13083
20
-2.20074
11
6.13088
21
-2.20076
0
LINE
8
BLACK
6
CONTINUOUS
10
6.13088
20
-2.20076
11
6.13276
21
-2.20264
0
LINE
8
BLACK
6
CONTINUOUS
10
6.13276
20
-2.20264
11
6.13327
21
-2.20336
0
LINE
8
BLACK
6
CONTINUOUS
10
6.13327
20
-2.20336
11
6.13331
21
-2.20341
0
LINE
8
BLACK
6
CONTINUOUS
10
6.13331
20
-2.20341
11
6.13519
21
-2.20716
0
LINE
8
BLACK
6
CONTINUOUS
10
6.13519
20
-2.20716
11
6.13533
21
-2.20764
0
LINE
8
BLACK
6
CONTINUOUS
10
6.13533
20
-2.20764
11
6.13541
21
-2.20776
0
LINE
8
BLACK
6
CONTINUOUS
10
6.13541
20
-2.20776
11
6.13729
21
-2.21526
0
LINE
8
BLACK
6
CONTINUOUS
10
6.13729
20
-2.21526
11
6.13733
21
-2.21585
0
LINE
8
BLACK
6
CONTINUOUS
10
6.13733
20
-2.21585
11
6.13737
21
-2.21598
0
LINE
8
BLACK
6
CONTINUOUS
10
6.13737
20
-2.21598
11
6.13737
21
-2.22535
0
LINE
8
BLACK
6
CONTINUOUS
10
6.13737
20
-2.22535
11
6.13727
21
-2.22593
0
LINE
8
BLACK
6
CONTINUOUS
10
6.13727
20
-2.22593
11
6.13729
21
-2.22607
0
LINE
8
BLACK
6
CONTINUOUS
10
6.13729
20
-2.22607
11
6.13541
21
-2.23356
0
LINE
8
BLACK
6
CONTINUOUS
10
6.13541
20
-2.23356
11
6.1352
21
-2.23403
0
LINE
8
BLACK
6
CONTINUOUS
10
6.1352
20
-2.23403
11
6.13519
21
-2.23417
0
LINE
8
BLACK
6
CONTINUOUS
10
6.13519
20
-2.23417
11
6.13331
21
-2.23792
0
LINE
8
BLACK
6
CONTINUOUS
10
6.13331
20
-2.23792
11
6.13279
21
-2.23863
0
LINE
8
BLACK
6
CONTINUOUS
10
6.13279
20
-2.23863
11
6.13276
21
-2.23869
0
LINE
8
BLACK
6
CONTINUOUS
10
6.13276
20
-2.23869
11
6.13088
21
-2.24056
0
LINE
8
BLACK
6
CONTINUOUS
10
6.13088
20
-2.24056
11
6.13016
21
-2.24107
0
LINE
8
BLACK
6
CONTINUOUS
10
6.13016
20
-2.24107
11
6.13012
21
-2.24111
0
LINE
8
BLACK
6
CONTINUOUS
10
6.13012
20
-2.24111
11
6.12637
21
-2.24299
0
LINE
8
BLACK
6
CONTINUOUS
10
6.12637
20
-2.24299
11
6.12538
21
-2.24328
0
LINE
8
BLACK
6
CONTINUOUS
10
6.12538
20
-2.24328
11
6.12521
21
-2.24324
0
LINE
8
BLACK
6
CONTINUOUS
10
6.12521
20
-2.24324
11
6.12505
21
-2.2433
0
LINE
8
BLACK
6
CONTINUOUS
10
6.12505
20
-2.2433
11
6.1213
21
-2.2433
0
LINE
8
BLACK
6
CONTINUOUS
10
6.1213
20
-2.2433
11
6.12029
21
-2.24312
0
LINE
8
BLACK
6
CONTINUOUS
10
6.12029
20
-2.24312
11
6.12015
21
-2.24301
0
LINE
8
BLACK
6
CONTINUOUS
10
6.12015
20
-2.24301
11
6.11998
21
-2.24299
0
LINE
8
BLACK
6
CONTINUOUS
10
6.11998
20
-2.24299
11
6.11623
21
-2.24111
0
LINE
8
BLACK
6
CONTINUOUS
10
6.11623
20
-2.24111
11
6.11552
21
-2.24059
0
LINE
8
BLACK
6
CONTINUOUS
10
6.11552
20
-2.24059
11
6.11546
21
-2.24056
0
LINE
8
BLACK
6
CONTINUOUS
10
6.11546
20
-2.24056
11
6.11359
21
-2.23869
0
LINE
8
BLACK
6
CONTINUOUS
10
6.11359
20
-2.23869
11
6.11308
21
-2.23796
0
LINE
8
BLACK
6
CONTINUOUS
10
6.11308
20
-2.23796
11
6.11303
21
-2.23792
0
LINE
8
BLACK
6
CONTINUOUS
10
6.11303
20
-2.23792
11
6.11116
21
-2.23417
0
LINE
8
BLACK
6
CONTINUOUS
10
6.11116
20
-2.23417
11
6.11101
21
-2.23368
0
LINE
8
BLACK
6
CONTINUOUS
10
6.11101
20
-2.23368
11
6.11093
21
-2.23356
0
LINE
8
BLACK
6
CONTINUOUS
10
6.11093
20
-2.23356
11
6.10906
21
-2.22607
0
LINE
8
BLACK
6
CONTINUOUS
10
6.10906
20
-2.22607
11
6.10902
21
-2.22548
0
LINE
8
BLACK
6
CONTINUOUS
10
6.10902
20
-2.22548
11
6.10897
21
-2.22535
0
LINE
8
BLACK
6
CONTINUOUS
10
6.10897
20
-2.22535
11
6.10897
21
-2.21598
0
LINE
8
BLACK
6
CONTINUOUS
10
6.10897
20
-2.21598
11
6.10907
21
-2.21539
0
LINE
8
BLACK
6
CONTINUOUS
10
6.10907
20
-2.21539
11
6.10906
21
-2.21526
0
LINE
8
BLACK
6
CONTINUOUS
10
6.10906
20
-2.21526
11
6.11093
21
-2.20776
0
LINE
8
BLACK
6
CONTINUOUS
10
6.11093
20
-2.20776
11
6.11114
21
-2.20729
0
LINE
8
BLACK
6
CONTINUOUS
10
6.11114
20
-2.20729
11
6.11116
21
-2.20716
0
LINE
8
BLACK
6
CONTINUOUS
10
6.11116
20
-2.20716
11
6.11303
21
-2.20341
0
LINE
8
BLACK
6
CONTINUOUS
10
6.11303
20
-2.20341
11
6.11356
21
-2.2027
0
LINE
8
BLACK
6
CONTINUOUS
10
6.11356
20
-2.2027
11
6.11359
21
-2.20264
0
LINE
8
BLACK
6
CONTINUOUS
10
6.11359
20
-2.20264
11
6.11546
21
-2.20076
0
LINE
8
BLACK
6
CONTINUOUS
10
6.11546
20
-2.20076
11
6.11618
21
-2.20026
0
LINE
8
BLACK
6
CONTINUOUS
10
6.11618
20
-2.20026
11
6.11623
21
-2.20021
0
LINE
8
BLACK
6
CONTINUOUS
10
6.11623
20
-2.20021
11
6.11998
21
-2.19834
0
LINE
8
BLACK
6
CONTINUOUS
10
6.11998
20
-2.19834
11
6.12096
21
-2.19804
0
LINE
8
BLACK
6
CONTINUOUS
10
6.12096
20
-2.19804
11
6.12113
21
-2.19808
0
LINE
8
BLACK
6
CONTINUOUS
10
6.12113
20
-2.19808
11
6.1213
21
-2.19802
0
LINE
8
BLACK
6
CONTINUOUS
10
6.1213
20
-2.19802
11
6.12505
21
-2.19802
0
LINE
8
BLACK
6
CONTINUOUS
10
6.12505
20
-2.19802
11
6.12606
21
-2.1982
0
LINE
8
BLACK
6
CONTINUOUS
10
6.1193
20
-2.20528
11
6.1181
21
-2.20648
0
LINE
8
BLACK
6
CONTINUOUS
10
6.1181
20
-2.20648
11
6.11658
21
-2.20951
0
LINE
8
BLACK
6
CONTINUOUS
10
6.11658
20
-2.20951
11
6.11488
21
-2.21634
0
LINE
8
BLACK
6
CONTINUOUS
10
6.11488
20
-2.21634
11
6.11488
21
-2.22499
0
LINE
8
BLACK
6
CONTINUOUS
10
6.11488
20
-2.22499
11
6.11658
21
-2.23182
0
LINE
8
BLACK
6
CONTINUOUS
10
6.11658
20
-2.23182
11
6.1181
21
-2.23485
0
LINE
8
BLACK
6
CONTINUOUS
10
6.1181
20
-2.23485
11
6.1193
21
-2.23605
0
LINE
8
BLACK
6
CONTINUOUS
10
6.1193
20
-2.23605
11
6.12199
21
-2.23739
0
LINE
8
BLACK
6
CONTINUOUS
10
6.12199
20
-2.23739
11
6.12435
21
-2.23739
0
LINE
8
BLACK
6
CONTINUOUS
10
6.12435
20
-2.23739
11
6.12705
21
-2.23605
0
LINE
8
BLACK
6
CONTINUOUS
10
6.12705
20
-2.23605
11
6.12824
21
-2.23485
0
LINE
8
BLACK
6
CONTINUOUS
10
6.12824
20
-2.23485
11
6.12976
21
-2.23182
0
LINE
8
BLACK
6
CONTINUOUS
10
6.12976
20
-2.23182
11
6.13147
21
-2.22499
0
LINE
8
BLACK
6
CONTINUOUS
10
6.13147
20
-2.22499
11
6.13147
21
-2.21634
0
LINE
8
BLACK
6
CONTINUOUS
10
6.13147
20
-2.21634
11
6.12976
21
-2.20951
0
LINE
8
BLACK
6
CONTINUOUS
10
6.12976
20
-2.20951
11
6.12824
21
-2.20648
0
LINE
8
BLACK
6
CONTINUOUS
10
6.12824
20
-2.20648
11
6.12705
21
-2.20528
0
LINE
8
BLACK
6
CONTINUOUS
10
6.12705
20
-2.20528
11
6.12435
21
-2.20393
0
LINE
8
BLACK
6
CONTINUOUS
10
6.12435
20
-2.20393
11
6.12199
21
-2.20393
0
LINE
8
BLACK
6
CONTINUOUS
10
6.12199
20
-2.20393
11
6.1193
21
-2.20528
0
LINE
8
BLACK
6
CONTINUOUS
10
6.16355
20
-2.1982
11
6.16369
21
-2.19832
0
LINE
8
BLACK
6
CONTINUOUS
10
6.16369
20
-2.19832
11
6.16386
21
-2.19834
0
LINE
8
BLACK
6
CONTINUOUS
10
6.16386
20
-2.19834
11
6.16761
21
-2.20021
0
LINE
8
BLACK
6
CONTINUOUS
10
6.16761
20
-2.20021
11
6.16832
21
-2.20074
0
LINE
8
BLACK
6
CONTINUOUS
10
6.16832
20
-2.20074
11
6.16838
21
-2.20076
0
LINE
8
BLACK
6
CONTINUOUS
10
6.16838
20
-2.20076
11
6.17025
21
-2.20264
0
LINE
8
BLACK
6
CONTINUOUS
10
6.17025
20
-2.20264
11
6.17076
21
-2.20336
0
LINE
8
BLACK
6
CONTINUOUS
10
6.17076
20
-2.20336
11
6.17081
21
-2.20341
0
LINE
8
BLACK
6
CONTINUOUS
10
6.17081
20
-2.20341
11
6.17268
21
-2.20716
0
LINE
8
BLACK
6
CONTINUOUS
10
6.17268
20
-2.20716
11
6.17283
21
-2.20764
0
LINE
8
BLACK
6
CONTINUOUS
10
6.17283
20
-2.20764
11
6.17291
21
-2.20776
0
LINE
8
BLACK
6
CONTINUOUS
10
6.17291
20
-2.20776
11
6.17478
21
-2.21526
0
LINE
8
BLACK
6
CONTINUOUS
10
6.17478
20
-2.21526
11
6.17482
21
-2.21585
0
LINE
8
BLACK
6
CONTINUOUS
10
6.17482
20
-2.21585
11
6.17487
21
-2.21598
0
LINE
8
BLACK
6
CONTINUOUS
10
6.17487
20
-2.21598
11
6.17487
21
-2.22535
0
LINE
8
BLACK
6
CONTINUOUS
10
6.17487
20
-2.22535
11
6.17477
21
-2.22593
0
LINE
8
BLACK
6
CONTINUOUS
10
6.17477
20
-2.22593
11
6.17478
21
-2.22607
0
LINE
8
BLACK
6
CONTINUOUS
10
6.17478
20
-2.22607
11
6.17291
21
-2.23356
0
LINE
8
BLACK
6
CONTINUOUS
10
6.17291
20
-2.23356
11
6.1727
21
-2.23403
0
LINE
8
BLACK
6
CONTINUOUS
10
6.1727
20
-2.23403
11
6.17268
21
-2.23417
0
LINE
8
BLACK
6
CONTINUOUS
10
6.17268
20
-2.23417
11
6.17081
21
-2.23792
0
LINE
8
BLACK
6
CONTINUOUS
10
6.17081
20
-2.23792
11
6.17028
21
-2.23863
0
LINE
8
BLACK
6
CONTINUOUS
10
6.17028
20
-2.23863
11
6.17025
21
-2.23869
0
LINE
8
BLACK
6
CONTINUOUS
10
6.17025
20
-2.23869
11
6.16838
21
-2.24056
0
LINE
8
BLACK
6
CONTINUOUS
10
6.16838
20
-2.24056
11
6.16766
21
-2.24107
0
LINE
8
BLACK
6
CONTINUOUS
10
6.16766
20
-2.24107
11
6.16761
21
-2.24111
0
LINE
8
BLACK
6
CONTINUOUS
10
6.16761
20
-2.24111
11
6.16386
21
-2.24299
0
LINE
8
BLACK
6
CONTINUOUS
10
6.16386
20
-2.24299
11
6.16288
21
-2.24328
0
LINE
8
BLACK
6
CONTINUOUS
10
6.16288
20
-2.24328
11
6.16271
21
-2.24324
0
LINE
8
BLACK
6
CONTINUOUS
10
6.16271
20
-2.24324
11
6.16254
21
-2.2433
0
LINE
8
BLACK
6
CONTINUOUS
10
6.16254
20
-2.2433
11
6.15879
21
-2.2433
0
LINE
8
BLACK
6
CONTINUOUS
10
6.15879
20
-2.2433
11
6.15778
21
-2.24312
0
LINE
8
BLACK
6
CONTINUOUS
10
6.15778
20
-2.24312
11
6.15765
21
-2.24301
0
LINE
8
BLACK
6
CONTINUOUS
10
6.15765
20
-2.24301
11
6.15747
21
-2.24299
0
LINE
8
BLACK
6
CONTINUOUS
10
6.15747
20
-2.24299
11
6.15372
21
-2.24111
0
LINE
8
BLACK
6
CONTINUOUS
10
6.15372
20
-2.24111
11
6.15301
21
-2.24059
0
LINE
8
BLACK
6
CONTINUOUS
10
6.15301
20
-2.24059
11
6.15296
21
-2.24056
0
LINE
8
BLACK
6
CONTINUOUS
10
6.15296
20
-2.24056
11
6.15108
21
-2.23869
0
LINE
8
BLACK
6
CONTINUOUS
10
6.15108
20
-2.23869
11
6.15057
21
-2.23796
0
LINE
8
BLACK
6
CONTINUOUS
10
6.15057
20
-2.23796
11
6.15053
21
-2.23792
0
LINE
8
BLACK
6
CONTINUOUS
10
6.15053
20
-2.23792
11
6.14865
21
-2.23417
0
LINE
8
BLACK
6
CONTINUOUS
10
6.14865
20
-2.23417
11
6.14851
21
-2.23368
0
LINE
8
BLACK
6
CONTINUOUS
10
6.14851
20
-2.23368
11
6.14843
21
-2.23356
0
LINE
8
BLACK
6
CONTINUOUS
10
6.14843
20
-2.23356
11
6.14655
21
-2.22607
0
LINE
8
BLACK
6
CONTINUOUS
10
6.14655
20
-2.22607
11
6.14651
21
-2.22548
0
LINE
8
BLACK
6
CONTINUOUS
10
6.14651
20
-2.22548
11
6.14647
21
-2.22535
0
LINE
8
BLACK
6
CONTINUOUS
10
6.14647
20
-2.22535
11
6.14647
21
-2.21598
0
LINE
8
BLACK
6
CONTINUOUS
10
6.14647
20
-2.21598
11
6.14657
21
-2.21539
0
LINE
8
BLACK
6
CONTINUOUS
10
6.14657
20
-2.21539
11
6.14655
21
-2.21526
0
LINE
8
BLACK
6
CONTINUOUS
10
6.14655
20
-2.21526
11
6.14843
21
-2.20776
0
LINE
8
BLACK
6
CONTINUOUS
10
6.14843
20
-2.20776
11
6.14864
21
-2.20729
0
LINE
8
BLACK
6
CONTINUOUS
10
6.14864
20
-2.20729
11
6.14865
21
-2.20716
0
LINE
8
BLACK
6
CONTINUOUS
10
6.14865
20
-2.20716
11
6.15053
21
-2.20341
0
LINE
8
BLACK
6
CONTINUOUS
10
6.15053
20
-2.20341
11
6.15105
21
-2.2027
0
LINE
8
BLACK
6
CONTINUOUS
10
6.15105
20
-2.2027
11
6.15108
21
-2.20264
0
LINE
8
BLACK
6
CONTINUOUS
10
6.15108
20
-2.20264
11
6.15296
21
-2.20076
0
LINE
8
BLACK
6
CONTINUOUS
10
6.15296
20
-2.20076
11
6.15368
21
-2.20026
0
LINE
8
BLACK
6
CONTINUOUS
10
6.15368
20
-2.20026
11
6.15372
21
-2.20021
0
LINE
8
BLACK
6
CONTINUOUS
10
6.15372
20
-2.20021
11
6.15747
21
-2.19834
0
LINE
8
BLACK
6
CONTINUOUS
10
6.15747
20
-2.19834
11
6.15846
21
-2.19804
0
LINE
8
BLACK
6
CONTINUOUS
10
6.15846
20
-2.19804
11
6.15863
21
-2.19808
0
LINE
8
BLACK
6
CONTINUOUS
10
6.15863
20
-2.19808
11
6.15879
21
-2.19802
0
LINE
8
BLACK
6
CONTINUOUS
10
6.15879
20
-2.19802
11
6.16254
21
-2.19802
0
LINE
8
BLACK
6
CONTINUOUS
10
6.16254
20
-2.19802
11
6.16355
21
-2.1982
0
LINE
8
BLACK
6
CONTINUOUS
10
6.15679
20
-2.20528
11
6.1556
21
-2.20648
0
LINE
8
BLACK
6
CONTINUOUS
10
6.1556
20
-2.20648
11
6.15408
21
-2.20951
0
LINE
8
BLACK
6
CONTINUOUS
10
6.15408
20
-2.20951
11
6.15237
21
-2.21634
0
LINE
8
BLACK
6
CONTINUOUS
10
6.15237
20
-2.21634
11
6.15237
21
-2.22499
0
LINE
8
BLACK
6
CONTINUOUS
10
6.15237
20
-2.22499
11
6.15408
21
-2.23182
0
LINE
8
BLACK
6
CONTINUOUS
10
6.15408
20
-2.23182
11
6.1556
21
-2.23485
0
LINE
8
BLACK
6
CONTINUOUS
10
6.1556
20
-2.23485
11
6.15679
21
-2.23605
0
LINE
8
BLACK
6
CONTINUOUS
10
6.15679
20
-2.23605
11
6.15949
21
-2.23739
0
LINE
8
BLACK
6
CONTINUOUS
10
6.15949
20
-2.23739
11
6.16185
21
-2.23739
0
LINE
8
BLACK
6
CONTINUOUS
10
6.16185
20
-2.23739
11
6.16454
21
-2.23605
0
LINE
8
BLACK
6
CONTINUOUS
10
6.16454
20
-2.23605
11
6.16574
21
-2.23485
0
LINE
8
BLACK
6
CONTINUOUS
10
6.16574
20
-2.23485
11
6.16726
21
-2.23182
0
LINE
8
BLACK
6
CONTINUOUS
10
6.16726
20
-2.23182
11
6.16896
21
-2.22499
0
LINE
8
BLACK
6
CONTINUOUS
10
6.16896
20
-2.22499
11
6.16896
21
-2.21634
0
LINE
8
BLACK
6
CONTINUOUS
10
6.16896
20
-2.21634
11
6.16726
21
-2.20951
0
LINE
8
BLACK
6
CONTINUOUS
10
6.16726
20
-2.20951
11
6.16574
21
-2.20648
0
LINE
8
BLACK
6
CONTINUOUS
10
6.16574
20
-2.20648
11
6.16454
21
-2.20528
0
LINE
8
BLACK
6
CONTINUOUS
10
6.16454
20
-2.20528
11
6.16185
21
-2.20393
0
LINE
8
BLACK
6
CONTINUOUS
10
6.16185
20
-2.20393
11
6.15949
21
-2.20393
0
LINE
8
BLACK
6
CONTINUOUS
10
6.15949
20
-2.20393
11
6.15679
21
-2.20528
0
LINE
8
BLACK
6
CONTINUOUS
10
5.99147
20
-2.19651
11
5.99281
21
-2.19802
0
LINE
8
BLACK
6
CONTINUOUS
10
5.99281
20
-2.19802
11
5.99286
21
-2.20004
0
LINE
8
BLACK
6
CONTINUOUS
10
5.99286
20
-2.20004
11
5.98479
21
-2.22427
0
LINE
8
BLACK
6
CONTINUOUS
10
5.98479
20
-2.22427
11
5.99648
21
-2.22427
0
LINE
8
BLACK
6
CONTINUOUS
10
5.99648
20
-2.22427
11
5.99648
21
-2.2141
0
LINE
8
BLACK
6
CONTINUOUS
10
5.99648
20
-2.2141
11
5.99666
21
-2.21309
0
LINE
8
BLACK
6
CONTINUOUS
10
5.99666
20
-2.21309
11
5.99796
21
-2.21154
0
LINE
8
BLACK
6
CONTINUOUS
10
5.99796
20
-2.21154
11
5.99995
21
-2.21119
0
LINE
8
BLACK
6
CONTINUOUS
10
5.99995
20
-2.21119
11
6.0017
21
-2.2122
0
LINE
8
BLACK
6
CONTINUOUS
10
6.0017
20
-2.2122
11
6.00239
21
-2.2141
0
LINE
8
BLACK
6
CONTINUOUS
10
6.00239
20
-2.2141
11
6.00239
21
-2.22427
0
LINE
8
BLACK
6
CONTINUOUS
10
6.00239
20
-2.22427
11
6.00506
21
-2.22427
0
LINE
8
BLACK
6
CONTINUOUS
10
6.00506
20
-2.22427
11
6.00607
21
-2.22445
0
LINE
8
BLACK
6
CONTINUOUS
10
6.00607
20
-2.22445
11
6.00762
21
-2.22575
0
LINE
8
BLACK
6
CONTINUOUS
10
6.00762
20
-2.22575
11
6.00797
21
-2.22774
0
LINE
8
BLACK
6
CONTINUOUS
10
6.00797
20
-2.22774
11
6.00696
21
-2.22949
0
LINE
8
BLACK
6
CONTINUOUS
10
6.00696
20
-2.22949
11
6.00506
21
-2.23018
0
LINE
8
BLACK
6
CONTINUOUS
10
6.00506
20
-2.23018
11
6.00239
21
-2.23018
0
LINE
8
BLACK
6
CONTINUOUS
10
6.00239
20
-2.23018
11
6.00239
21
-2.24035
0
LINE
8
BLACK
6
CONTINUOUS
10
6.00239
20
-2.24035
11
6.00221
21
-2.24136
0
LINE
8
BLACK
6
CONTINUOUS
10
6.00221
20
-2.24136
11
6.00091
21
-2.2429
0
LINE
8
BLACK
6
CONTINUOUS
10
6.00091
20
-2.2429
11
5.99892
21
-2.24326
0
LINE
8
BLACK
6
CONTINUOUS
10
5.99892
20
-2.24326
11
5.99718
21
-2.24225
0
LINE
8
BLACK
6
CONTINUOUS
10
5.99718
20
-2.24225
11
5.99648
21
-2.24035
0
LINE
8
BLACK
6
CONTINUOUS
10
5.99648
20
-2.24035
11
5.99648
21
-2.23018
0
LINE
8
BLACK
6
CONTINUOUS
10
5.99648
20
-2.23018
11
5.98069
21
-2.23018
0
LINE
8
BLACK
6
CONTINUOUS
10
5.98069
20
-2.23018
11
5.97968
21
-2.23
0
LINE
8
BLACK
6
CONTINUOUS
10
5.97968
20
-2.23
11
5.97951
21
-2.22985
0
LINE
8
BLACK
6
CONTINUOUS
10
5.97951
20
-2.22985
11
5.97928
21
-2.22982
0
LINE
8
BLACK
6
CONTINUOUS
10
5.97928
20
-2.22982
11
5.97875
21
-2.22922
0
LINE
8
BLACK
6
CONTINUOUS
10
5.97875
20
-2.22922
11
5.97813
21
-2.2287
0
LINE
8
BLACK
6
CONTINUOUS
10
5.97813
20
-2.2287
11
5.97809
21
-2.22848
0
LINE
8
BLACK
6
CONTINUOUS
10
5.97809
20
-2.22848
11
5.97794
21
-2.22831
0
LINE
8
BLACK
6
CONTINUOUS
10
5.97794
20
-2.22831
11
5.97792
21
-2.2275
0
LINE
8
BLACK
6
CONTINUOUS
10
5.97792
20
-2.2275
11
5.97778
21
-2.22671
0
LINE
8
BLACK
6
CONTINUOUS
10
5.97778
20
-2.22671
11
5.97789
21
-2.22652
0
LINE
8
BLACK
6
CONTINUOUS
10
5.97789
20
-2.22652
11
5.97789
21
-2.22629
0
LINE
8
BLACK
6
CONTINUOUS
10
5.97789
20
-2.22629
11
5.98726
21
-2.19817
0
LINE
8
BLACK
6
CONTINUOUS
10
5.98726
20
-2.19817
11
5.98775
21
-2.19727
0
LINE
8
BLACK
6
CONTINUOUS
10
5.98775
20
-2.19727
11
5.98947
21
-2.19621
0
LINE
8
BLACK
6
CONTINUOUS
10
5.98947
20
-2.19621
11
5.99147
21
-2.19651
0
LINE
8
BLACK
6
CONTINUOUS
10
6.23104
20
-2.21133
11
6.23118
21
-2.21144
0
LINE
8
BLACK
6
CONTINUOUS
10
6.23118
20
-2.21144
11
6.23135
21
-2.21146
0
LINE
8
BLACK
6
CONTINUOUS
10
6.23135
20
-2.21146
11
6.2351
21
-2.21333
0
LINE
8
BLACK
6
CONTINUOUS
10
6.2351
20
-2.21333
11
6.23567
21
-2.21376
0
LINE
8
BLACK
6
CONTINUOUS
10
6.23567
20
-2.21376
11
6.23591
21
-2.21366
0
LINE
8
BLACK
6
CONTINUOUS
10
6.23591
20
-2.21366
11
6.23621
21
-2.21333
0
LINE
8
BLACK
6
CONTINUOUS
10
6.23621
20
-2.21333
11
6.23996
21
-2.21146
0
LINE
8
BLACK
6
CONTINUOUS
10
6.23996
20
-2.21146
11
6.24094
21
-2.21117
0
LINE
8
BLACK
6
CONTINUOUS
10
6.24094
20
-2.21117
11
6.24112
21
-2.21121
0
LINE
8
BLACK
6
CONTINUOUS
10
6.24112
20
-2.21121
11
6.24128
21
-2.21115
0
LINE
8
BLACK
6
CONTINUOUS
10
6.24128
20
-2.21115
11
6.24691
21
-2.21115
0
LINE
8
BLACK
6
CONTINUOUS
10
6.24691
20
-2.21115
11
6.24792
21
-2.21133
0
LINE
8
BLACK
6
CONTINUOUS
10
6.24792
20
-2.21133
11
6.24805
21
-2.21144
0
LINE
8
BLACK
6
CONTINUOUS
10
6.24805
20
-2.21144
11
6.24823
21
-2.21146
0
LINE
8
BLACK
6
CONTINUOUS
10
6.24823
20
-2.21146
11
6.25198
21
-2.21333
0
LINE
8
BLACK
6
CONTINUOUS
10
6.25198
20
-2.21333
11
6.2528
21
-2.21395
0
LINE
8
BLACK
6
CONTINUOUS
10
6.2528
20
-2.21395
11
6.25298
21
-2.21435
0
LINE
8
BLACK
6
CONTINUOUS
10
6.25298
20
-2.21435
11
6.2533
21
-2.21465
0
LINE
8
BLACK
6
CONTINUOUS
10
6.2533
20
-2.21465
11
6.25517
21
-2.2184
0
LINE
8
BLACK
6
CONTINUOUS
10
6.25517
20
-2.2184
11
6.25546
21
-2.21939
0
LINE
8
BLACK
6
CONTINUOUS
10
6.25546
20
-2.21939
11
6.25542
21
-2.21956
0
LINE
8
BLACK
6
CONTINUOUS
10
6.25542
20
-2.21956
11
6.25548
21
-2.21972
0
LINE
8
BLACK
6
CONTINUOUS
10
6.25548
20
-2.21972
11
6.25548
21
-2.24035
0
LINE
8
BLACK
6
CONTINUOUS
10
6.25548
20
-2.24035
11
6.25531
21
-2.24136
0
LINE
8
BLACK
6
CONTINUOUS
10
6.25531
20
-2.24136
11
6.25401
21
-2.2429
0
LINE
8
BLACK
6
CONTINUOUS
10
6.25401
20
-2.2429
11
6.25202
21
-2.24326
0
LINE
8
BLACK
6
CONTINUOUS
10
6.25202
20
-2.24326
11
6.25027
21
-2.24225
0
LINE
8
BLACK
6
CONTINUOUS
10
6.25027
20
-2.24225
11
6.24958
21
-2.24035
0
LINE
8
BLACK
6
CONTINUOUS
10
6.24958
20
-2.24035
11
6.24958
21
-2.22042
0
LINE
8
BLACK
6
CONTINUOUS
10
6.24958
20
-2.22042
11
6.24846
21
-2.21818
0
LINE
8
BLACK
6
CONTINUOUS
10
6.24846
20
-2.21818
11
6.24621
21
-2.21705
0
LINE
8
BLACK
6
CONTINUOUS
10
6.24621
20
-2.21705
11
6.24198
21
-2.21705
0
LINE
8
BLACK
6
CONTINUOUS
10
6.24198
20
-2.21705
11
6.23973
21
-2.21818
0
LINE
8
BLACK
6
CONTINUOUS
10
6.23973
20
-2.21818
11
6.23861
21
-2.22042
0
LINE
8
BLACK
6
CONTINUOUS
10
6.23861
20
-2.22042
11
6.23861
21
-2.24035
0
LINE
8
BLACK
6
CONTINUOUS
10
6.23861
20
-2.24035
11
6.23843
21
-2.24136
0
LINE
8
BLACK
6
CONTINUOUS
10
6.23843
20
-2.24136
11
6.23713
21
-2.2429
0
LINE
8
BLACK
6
CONTINUOUS
10
6.23713
20
-2.2429
11
6.23515
21
-2.24326
0
LINE
8
BLACK
6
CONTINUOUS
10
6.23515
20
-2.24326
11
6.2334
21
-2.24225
0
LINE
8
BLACK
6
CONTINUOUS
10
6.2334
20
-2.24225
11
6.23271
21
-2.24035
0
LINE
8
BLACK
6
CONTINUOUS
10
6.23271
20
-2.24035
11
6.23271
21
-2.22042
0
LINE
8
BLACK
6
CONTINUOUS
10
6.23271
20
-2.22042
11
6.23158
21
-2.21818
0
LINE
8
BLACK
6
CONTINUOUS
10
6.23158
20
-2.21818
11
6.22934
21
-2.21705
0
LINE
8
BLACK
6
CONTINUOUS
10
6.22934
20
-2.21705
11
6.22511
21
-2.21705
0
LINE
8
BLACK
6
CONTINUOUS
10
6.22511
20
-2.21705
11
6.22241
21
-2.2184
0
LINE
8
BLACK
6
CONTINUOUS
10
6.22241
20
-2.2184
11
6.22174
21
-2.21907
0
LINE
8
BLACK
6
CONTINUOUS
10
6.22174
20
-2.21907
11
6.22174
21
-2.24035
0
LINE
8
BLACK
6
CONTINUOUS
10
6.22174
20
-2.24035
11
6.22156
21
-2.24136
0
LINE
8
BLACK
6
CONTINUOUS
10
6.22156
20
-2.24136
11
6.22026
21
-2.2429
0
LINE
8
BLACK
6
CONTINUOUS
10
6.22026
20
-2.2429
11
6.21827
21
-2.24326
0
LINE
8
BLACK
6
CONTINUOUS
10
6.21827
20
-2.24326
11
6.21652
21
-2.24225
0
LINE
8
BLACK
6
CONTINUOUS
10
6.21652
20
-2.24225
11
6.21583
21
-2.24035
0
LINE
8
BLACK
6
CONTINUOUS
10
6.21583
20
-2.24035
11
6.21583
21
-2.2141
0
LINE
8
BLACK
6
CONTINUOUS
10
6.21583
20
-2.2141
11
6.21601
21
-2.21309
0
LINE
8
BLACK
6
CONTINUOUS
10
6.21601
20
-2.21309
11
6.21731
21
-2.21154
0
LINE
8
BLACK
6
CONTINUOUS
10
6.21731
20
-2.21154
11
6.2193
21
-2.21119
0
LINE
8
BLACK
6
CONTINUOUS
10
6.2193
20
-2.21119
11
6.22105
21
-2.2122
0
LINE
8
BLACK
6
CONTINUOUS
10
6.22105
20
-2.2122
11
6.22113
21
-2.21244
0
LINE
8
BLACK
6
CONTINUOUS
10
6.22113
20
-2.21244
11
6.22309
21
-2.21146
0
LINE
8
BLACK
6
CONTINUOUS
10
6.22309
20
-2.21146
11
6.22407
21
-2.21117
0
LINE
8
BLACK
6
CONTINUOUS
10
6.22407
20
-2.21117
11
6.22424
21
-2.21121
0
LINE
8
BLACK
6
CONTINUOUS
10
6.22424
20
-2.21121
11
6.22441
21
-2.21115
0
LINE
8
BLACK
6
CONTINUOUS
10
6.22441
20
-2.21115
11
6.23003
21
-2.21115
0
LINE
8
BLACK
6
CONTINUOUS
10
6.23003
20
-2.21115
11
6.23104
21
-2.21133
0
LINE
8
BLACK
6
CONTINUOUS
10
6.28354
20
-2.21133
11
6.28367
21
-2.21144
0
LINE
8
BLACK
6
CONTINUOUS
10
6.28367
20
-2.21144
11
6.28385
21
-2.21146
0
LINE
8
BLACK
6
CONTINUOUS
10
6.28385
20
-2.21146
11
6.2876
21
-2.21333
0
LINE
8
BLACK
6
CONTINUOUS
10
6.2876
20
-2.21333
11
6.28817
21
-2.21376
0
LINE
8
BLACK
6
CONTINUOUS
10
6.28817
20
-2.21376
11
6.2884
21
-2.21366
0
LINE
8
BLACK
6
CONTINUOUS
10
6.2884
20
-2.21366
11
6.28871
21
-2.21333
0
LINE
8
BLACK
6
CONTINUOUS
10
6.28871
20
-2.21333
11
6.29246
21
-2.21146
0
LINE
8
BLACK
6
CONTINUOUS
10
6.29246
20
-2.21146
11
6.29344
21
-2.21117
0
LINE
8
BLACK
6
CONTINUOUS
10
6.29344
20
-2.21117
11
6.29361
21
-2.21121
0
LINE
8
BLACK
6
CONTINUOUS
10
6.29361
20
-2.21121
11
6.29378
21
-2.21115
0
LINE
8
BLACK
6
CONTINUOUS
10
6.29378
20
-2.21115
11
6.2994
21
-2.21115
0
LINE
8
BLACK
6
CONTINUOUS
10
6.2994
20
-2.21115
11
6.30041
21
-2.21133
0
LINE
8
BLACK
6
CONTINUOUS
10
6.30041
20
-2.21133
11
6.30055
21
-2.21144
0
LINE
8
BLACK
6
CONTINUOUS
10
6.30055
20
-2.21144
11
6.30072
21
-2.21146
0
LINE
8
BLACK
6
CONTINUOUS
10
6.30072
20
-2.21146
11
6.30447
21
-2.21333
0
LINE
8
BLACK
6
CONTINUOUS
10
6.30447
20
-2.21333
11
6.30529
21
-2.21395
0
LINE
8
BLACK
6
CONTINUOUS
10
6.30529
20
-2.21395
11
6.30547
21
-2.21435
0
LINE
8
BLACK
6
CONTINUOUS
10
6.30547
20
-2.21435
11
6.30579
21
-2.21465
0
LINE
8
BLACK
6
CONTINUOUS
10
6.30579
20
-2.21465
11
6.30767
21
-2.2184
0
LINE
8
BLACK
6
CONTINUOUS
10
6.30767
20
-2.2184
11
6.30796
21
-2.21939
0
LINE
8
BLACK
6
CONTINUOUS
10
6.30796
20
-2.21939
11
6.30792
21
-2.21956
0
LINE
8
BLACK
6
CONTINUOUS
10
6.30792
20
-2.21956
11
6.30798
21
-2.21972
0
LINE
8
BLACK
6
CONTINUOUS
10
6.30798
20
-2.21972
11
6.30798
21
-2.24035
0
LINE
8
BLACK
6
CONTINUOUS
10
6.30798
20
-2.24035
11
6.3078
21
-2.24136
0
LINE
8
BLACK
6
CONTINUOUS
10
6.3078
20
-2.24136
11
6.3065
21
-2.2429
0
LINE
8
BLACK
6
CONTINUOUS
10
6.3065
20
-2.2429
11
6.30451
21
-2.24326
0
LINE
8
BLACK
6
CONTINUOUS
10
6.30451
20
-2.24326
11
6.30276
21
-2.24225
0
LINE
8
BLACK
6
CONTINUOUS
10
6.30276
20
-2.24225
11
6.30207
21
-2.24035
0
LINE
8
BLACK
6
CONTINUOUS
10
6.30207
20
-2.24035
11
6.30207
21
-2.22042
0
LINE
8
BLACK
6
CONTINUOUS
10
6.30207
20
-2.22042
11
6.30095
21
-2.21818
0
LINE
8
BLACK
6
CONTINUOUS
10
6.30095
20
-2.21818
11
6.2987
21
-2.21705
0
LINE
8
BLACK
6
CONTINUOUS
10
6.2987
20
-2.21705
11
6.29447
21
-2.21705
0
LINE
8
BLACK
6
CONTINUOUS
10
6.29447
20
-2.21705
11
6.29223
21
-2.21818
0
LINE
8
BLACK
6
CONTINUOUS
10
6.29223
20
-2.21818
11
6.2911
21
-2.22042
0
LINE
8
BLACK
6
CONTINUOUS
10
6.2911
20
-2.22042
11
6.2911
21
-2.24035
0
LINE
8
BLACK
6
CONTINUOUS
10
6.2911
20
-2.24035
11
6.29093
21
-2.24136
0
LINE
8
BLACK
6
CONTINUOUS
10
6.29093
20
-2.24136
11
6.28963
21
-2.2429
0
LINE
8
BLACK
6
CONTINUOUS
10
6.28963
20
-2.2429
11
6.28764
21
-2.24326
0
LINE
8
BLACK
6
CONTINUOUS
10
6.28764
20
-2.24326
11
6.28589
21
-2.24225
0
LINE
8
BLACK
6
CONTINUOUS
10
6.28589
20
-2.24225
11
6.2852
21
-2.24035
0
LINE
8
BLACK
6
CONTINUOUS
10
6.2852
20
-2.24035
11
6.2852
21
-2.22042
0
LINE
8
BLACK
6
CONTINUOUS
10
6.2852
20
-2.22042
11
6.28408
21
-2.21818
0
LINE
8
BLACK
6
CONTINUOUS
10
6.28408
20
-2.21818
11
6.28183
21
-2.21705
0
LINE
8
BLACK
6
CONTINUOUS
10
6.28183
20
-2.21705
11
6.2776
21
-2.21705
0
LINE
8
BLACK
6
CONTINUOUS
10
6.2776
20
-2.21705
11
6.2749
21
-2.2184
0
LINE
8
BLACK
6
CONTINUOUS
10
6.2749
20
-2.2184
11
6.27423
21
-2.21907
0
LINE
8
BLACK
6
CONTINUOUS
10
6.27423
20
-2.21907
11
6.27423
21
-2.24035
0
LINE
8
BLACK
6
CONTINUOUS
10
6.27423
20
-2.24035
11
6.27405
21
-2.24136
0
LINE
8
BLACK
6
CONTINUOUS
10
6.27405
20
-2.24136
11
6.27275
21
-2.2429
0
LINE
8
BLACK
6
CONTINUOUS
10
6.27275
20
-2.2429
11
6.27077
21
-2.24326
0
LINE
8
BLACK
6
CONTINUOUS
10
6.27077
20
-2.24326
11
6.26902
21
-2.24225
0
LINE
8
BLACK
6
CONTINUOUS
10
6.26902
20
-2.24225
11
6.26833
21
-2.24035
0
LINE
8
BLACK
6
CONTINUOUS
10
6.26833
20
-2.24035
11
6.26833
21
-2.2141
0
LINE
8
BLACK
6
CONTINUOUS
10
6.26833
20
-2.2141
11
6.2685
21
-2.21309
0
LINE
8
BLACK
6
CONTINUOUS
10
6.2685
20
-2.21309
11
6.2698
21
-2.21154
0
LINE
8
BLACK
6
CONTINUOUS
10
6.2698
20
-2.21154
11
6.27179
21
-2.21119
0
LINE
8
BLACK
6
CONTINUOUS
10
6.27179
20
-2.21119
11
6.27354
21
-2.2122
0
LINE
8
BLACK
6
CONTINUOUS
10
6.27354
20
-2.2122
11
6.27363
21
-2.21244
0
LINE
8
BLACK
6
CONTINUOUS
10
6.27363
20
-2.21244
11
6.27558
21
-2.21146
0
LINE
8
BLACK
6
CONTINUOUS
10
6.27558
20
-2.21146
11
6.27657
21
-2.21117
0
LINE
8
BLACK
6
CONTINUOUS
10
6.27657
20
-2.21117
11
6.27674
21
-2.21121
0
LINE
8
BLACK
6
CONTINUOUS
10
6.27674
20
-2.21121
11
6.2769
21
-2.21115
0
LINE
8
BLACK
6
CONTINUOUS
10
6.2769
20
-2.21115
11
6.28253
21
-2.21115
0
LINE
8
BLACK
6
CONTINUOUS
10
6.28253
20
-2.21115
11
6.28354
21
-2.21133
  0
ENDSEC
  0
EOF
