M48
; DRILL file {KiCad 7.0.8} date Tue Nov 14 09:57:28 2023
; FORMAT={-:-/ absolute / inch / decimal}
; #@! TF.CreationDate,2023-11-14T09:57:28-05:00
; #@! TF.GenerationSoftware,Kicad,Pcbnew,7.0.8
; #@! TF.FileFunction,Plated,1,2,PTH
FMAT,2
INCH
; #@! TA.AperFunction,Plated,PTH,ViaDrill
T1C0.0315
; #@! TA.AperFunction,Plated,PTH,ComponentDrill
T2C0.0315
%
G90
G05
T1
X2.4803Y-2.5591
X2.4803Y-2.9528
X2.874Y-2.5591
X2.874Y-2.9528
X7.0512Y-2.8819
X7.4409Y-3.6181
X7.4488Y-2.8819
X7.6654Y-3.7441
X7.8937Y-3.8386
X8.248Y-3.6142
X8.248Y-3.7402
X8.252Y-3.8386
X9.3307Y-2.5591
X9.3307Y-2.9488
X9.7244Y-2.5591
X9.7244Y-2.9528
T2
X3.1748Y-3.6567
X3.1748Y-3.7567
X3.1748Y-3.8567
X3.1748Y-3.9567
X3.1748Y-4.0567
X3.1748Y-4.1567
X3.1748Y-4.2567
X3.1748Y-4.3567
X3.2236Y-3.4843
X3.3236Y-3.4843
X3.4236Y-3.4843
X3.5236Y-3.4843
X3.6236Y-3.4843
X3.7236Y-3.4843
X3.7748Y-3.6567
X3.7748Y-3.7567
X3.7748Y-3.8567
X3.7748Y-3.9567
X3.7748Y-4.0567
X3.7748Y-4.1567
X3.7748Y-4.2567
X3.7748Y-4.3567
X4.2803Y-3.5504
X4.2803Y-3.6504
X4.2803Y-4.3504
X4.2803Y-4.4504
X4.2835Y-3.0433
X4.3803Y-3.5504
X4.3803Y-3.6504
X4.3803Y-4.3504
X4.3803Y-4.4504
X4.3819Y-3.0433
X4.4803Y-3.5504
X4.4803Y-3.6504
X4.4803Y-4.3504
X4.4803Y-4.4504
X4.5803Y-3.5504
X4.5803Y-3.6504
X4.5803Y-4.3504
X4.5803Y-4.4504
X4.6803Y-3.5504
X4.6803Y-3.6504
X4.6803Y-4.3504
X4.6803Y-4.4504
X4.7803Y-3.5504
X4.7803Y-3.6504
X4.7803Y-4.3504
X4.7803Y-4.4504
X4.8803Y-3.5504
X4.8803Y-3.6504
X4.8803Y-4.3504
X4.8803Y-4.4504
X4.9803Y-3.5504
X4.9803Y-3.6504
X4.9803Y-4.3504
X4.9803Y-4.4504
X5.7811Y-2.8858
X5.8811Y-2.8858
X5.9811Y-2.8858
X6.0811Y-2.8858
X6.1811Y-2.8858
X6.2811Y-2.8858
X6.3811Y-2.8858
X6.7402Y-3.1811
X6.7402Y-3.2795
X7.0472Y-3.7205
X7.0512Y-4.0118
X7.1063Y-4.3425
X7.1142Y-3.0866
X7.1142Y-3.185
X7.1142Y-3.2835
X7.1142Y-3.3819
X7.1472Y-3.7205
X7.2047Y-4.3425
X7.2472Y-3.7205
X7.248Y-4.0118
X7.5992Y-3.9646
X7.6992Y-3.9646
X7.7992Y-3.9646
X8.4705Y-3.6449
X8.4705Y-3.7449
X8.4705Y-3.8449
X8.4705Y-3.9449
X8.4705Y-4.0449
X8.4705Y-4.1449
X8.4705Y-4.2449
X8.4705Y-4.3449
X8.4772Y-3.4685
X8.5772Y-3.4685
X8.6772Y-3.4685
X8.7772Y-3.4685
X8.8772Y-3.4685
X8.9772Y-3.4685
X9.0705Y-3.6449
X9.0705Y-3.7449
X9.0705Y-3.8449
X9.0705Y-3.9449
X9.0705Y-4.0449
X9.0705Y-4.1449
X9.0705Y-4.2449
X9.0705Y-4.3449
T0
M30
