  0
SECTION
  2
HEADER
  9
$ANGBASE
  50
0.0
  9
$ANGDIR
  70
1
  9
$MEASUREMENT
  70
1
  0
ENDSEC
  0
SECTION
  2
TABLES
  0
TABLE
  2
LTYPE
  70
4
  0
LTYPE
  5
40F
  2
CONTINUOUS
  70
0
  3
Solid line
  72
65
  73
0
  40
0.0
  0
LTYPE
  5
410
  2
DASHDOT
 70
0
  3
Dash Dot ____ _ ____ _
 72
65
 73
4
 40
2.0
 49
1.25
 49
-0.25
 49
0.25
 49
-0.25
  0
LTYPE
  5
411
  2
DASHED
 70
0
  3
Dashed __ __ __ __ __
 72
65
 73
2
 40
0.75
 49
0.5
 49
-0.25
  0
LTYPE
  5
43B
  2
DOTTED
 70
0
  3
Dotted .  .  .  .
 72
65
 73
2
 40
0.2
 49
0.0
 49
-0.2
  0
ENDTAB
  0
TABLE
  2
STYLE
  70
4
  0
STYLE
  2
KICAD
  70
0
  40
0
  41
1
  42
1
  50
0
  71
0
  3
isocp.shx
  0
STYLE
  2
KICADB
  70
0
  40
0
  41
1
  42
1
  50
0
  71
0
  3
isocp.shx
  0
STYLE
  2
KICADI
  70
0
  40
0
  41
1
  42
1
  50
15
  71
0
  3
isocp.shx
  0
STYLE
  2
KICADBI
  70
0
  40
0
  41
1
  42
1
  50
15
  71
0
  3
isocp.shx
  0
ENDTAB
  0
TABLE
  2
LAYER
  70
1
  0
LAYER
  2
BLACK
  70
0
  62
7
  6
CONTINUOUS
  0
ENDTAB
  0
ENDSEC
  0
SECTION
  2
ENTITIES
0
LINE
8
BLACK
6
CONTINUOUS
10
156.3
20
-82.9944
11
157.164
21
-83.0733
0
LINE
8
BLACK
6
CONTINUOUS
10
157.164
20
-83.0733
11
158.023
21
-83.1914
0
LINE
8
BLACK
6
CONTINUOUS
10
158.023
20
-83.1914
11
158.876
21
-83.3484
0
LINE
8
BLACK
6
CONTINUOUS
10
158.876
20
-83.3484
11
159.721
21
-83.5442
0
LINE
8
BLACK
6
CONTINUOUS
10
159.721
20
-83.5442
11
160.556
21
-83.7782
0
LINE
8
BLACK
6
CONTINUOUS
10
160.556
20
-83.7782
11
161.379
21
-84.0499
0
LINE
8
BLACK
6
CONTINUOUS
10
161.379
20
-84.0499
11
162.19
21
-84.3589
0
LINE
8
BLACK
6
CONTINUOUS
10
162.19
20
-84.3589
11
162.985
21
-84.7044
0
LINE
8
BLACK
6
CONTINUOUS
10
162.985
20
-84.7044
11
163.764
21
-85.0858
0
LINE
8
BLACK
6
CONTINUOUS
10
163.764
20
-85.0858
11
164.525
21
-85.5022
0
LINE
8
BLACK
6
CONTINUOUS
10
164.525
20
-85.5022
11
165.266
21
-85.9528
0
LINE
8
BLACK
6
CONTINUOUS
10
165.266
20
-85.9528
11
165.986
21
-86.4367
0
LINE
8
BLACK
6
CONTINUOUS
10
165.986
20
-86.4367
11
166.683
21
-86.9529
0
LINE
8
BLACK
6
CONTINUOUS
10
166.683
20
-86.9529
11
167.355
21
-87.5002
0
LINE
8
BLACK
6
CONTINUOUS
10
167.355
20
-87.5002
11
168.003
21
-88.0776
0
LINE
8
BLACK
6
CONTINUOUS
10
168.003
20
-88.0776
11
168.623
21
-88.6838
0
LINE
8
BLACK
6
CONTINUOUS
10
168.623
20
-88.6838
11
169.215
21
-89.3177
0
LINE
8
BLACK
6
CONTINUOUS
10
169.215
20
-89.3177
11
169.777
21
-89.9778
0
LINE
8
BLACK
6
CONTINUOUS
10
169.777
20
-89.9778
11
170.309
21
-90.6628
0
LINE
8
BLACK
6
CONTINUOUS
10
170.309
20
-90.6628
11
170.809
21
-91.3714
0
LINE
8
BLACK
6
CONTINUOUS
10
170.809
20
-91.3714
11
171.277
21
-92.1019
0
LINE
8
BLACK
6
CONTINUOUS
10
171.277
20
-92.1019
11
171.71
21
-92.853
0
LINE
8
BLACK
6
CONTINUOUS
10
171.71
20
-92.853
11
172.109
21
-93.6231
0
LINE
8
BLACK
6
CONTINUOUS
10
172.109
20
-93.6231
11
172.473
21
-94.4105
0
LINE
8
BLACK
6
CONTINUOUS
10
172.473
20
-94.4105
11
172.8
21
-95.2136
0
LINE
8
BLACK
6
CONTINUOUS
10
172.8
20
-95.2136
11
173.091
21
-96.0308
0
LINE
8
BLACK
6
CONTINUOUS
10
173.091
20
-96.0308
11
173.344
21
-96.8604
0
LINE
8
BLACK
6
CONTINUOUS
10
173.344
20
-96.8604
11
173.558
21
-97.7006
0
LINE
8
BLACK
6
CONTINUOUS
10
173.558
20
-97.7006
11
173.735
21
-98.5497
0
LINE
8
BLACK
6
CONTINUOUS
10
173.735
20
-98.5497
11
173.873
21
-99.406
0
LINE
8
BLACK
6
CONTINUOUS
10
173.873
20
-99.406
11
173.971
21
-100.268
0
LINE
8
BLACK
6
CONTINUOUS
10
173.971
20
-100.268
11
174.03
21
-101.133
0
LINE
8
BLACK
6
CONTINUOUS
10
174.03
20
-101.133
11
174.05
21
-102
0
LINE
8
BLACK
6
CONTINUOUS
10
174.05
20
-102
11
174.03
21
-102.867
0
LINE
8
BLACK
6
CONTINUOUS
10
174.03
20
-102.867
11
173.971
21
-103.732
0
LINE
8
BLACK
6
CONTINUOUS
10
173.971
20
-103.732
11
173.873
21
-104.594
0
LINE
8
BLACK
6
CONTINUOUS
10
173.873
20
-104.594
11
173.735
21
-105.45
0
LINE
8
BLACK
6
CONTINUOUS
10
173.735
20
-105.45
11
173.558
21
-106.299
0
LINE
8
BLACK
6
CONTINUOUS
10
173.558
20
-106.299
11
173.344
21
-107.14
0
LINE
8
BLACK
6
CONTINUOUS
10
173.344
20
-107.14
11
173.091
21
-107.969
0
LINE
8
BLACK
6
CONTINUOUS
10
173.091
20
-107.969
11
172.8
21
-108.786
0
LINE
8
BLACK
6
CONTINUOUS
10
172.8
20
-108.786
11
172.473
21
-109.59
0
LINE
8
BLACK
6
CONTINUOUS
10
172.473
20
-109.59
11
172.109
21
-110.377
0
LINE
8
BLACK
6
CONTINUOUS
10
172.109
20
-110.377
11
171.71
21
-111.147
0
LINE
8
BLACK
6
CONTINUOUS
10
171.71
20
-111.147
11
171.277
21
-111.898
0
LINE
8
BLACK
6
CONTINUOUS
10
171.277
20
-111.898
11
170.809
21
-112.629
0
LINE
8
BLACK
6
CONTINUOUS
10
170.809
20
-112.629
11
170.309
21
-113.337
0
LINE
8
BLACK
6
CONTINUOUS
10
170.309
20
-113.337
11
169.777
21
-114.022
0
LINE
8
BLACK
6
CONTINUOUS
10
169.777
20
-114.022
11
169.215
21
-114.682
0
LINE
8
BLACK
6
CONTINUOUS
10
169.215
20
-114.682
11
168.623
21
-115.316
0
LINE
8
BLACK
6
CONTINUOUS
10
168.623
20
-115.316
11
168.003
21
-115.922
0
LINE
8
BLACK
6
CONTINUOUS
10
168.003
20
-115.922
11
167.355
21
-116.5
0
LINE
8
BLACK
6
CONTINUOUS
10
167.355
20
-116.5
11
166.683
21
-117.047
0
LINE
8
BLACK
6
CONTINUOUS
10
166.683
20
-117.047
11
165.986
21
-117.563
0
LINE
8
BLACK
6
CONTINUOUS
10
165.986
20
-117.563
11
165.266
21
-118.047
0
LINE
8
BLACK
6
CONTINUOUS
10
165.266
20
-118.047
11
164.525
21
-118.498
0
LINE
8
BLACK
6
CONTINUOUS
10
164.525
20
-118.498
11
163.764
21
-118.914
0
LINE
8
BLACK
6
CONTINUOUS
10
163.764
20
-118.914
11
162.985
21
-119.296
0
LINE
8
BLACK
6
CONTINUOUS
10
162.985
20
-119.296
11
162.19
21
-119.641
0
LINE
8
BLACK
6
CONTINUOUS
10
162.19
20
-119.641
11
161.379
21
-119.95
0
LINE
8
BLACK
6
CONTINUOUS
10
161.379
20
-119.95
11
160.556
21
-120.222
0
LINE
8
BLACK
6
CONTINUOUS
10
160.556
20
-120.222
11
159.721
21
-120.456
0
LINE
8
BLACK
6
CONTINUOUS
10
159.721
20
-120.456
11
158.876
21
-120.652
0
LINE
8
BLACK
6
CONTINUOUS
10
158.876
20
-120.652
11
158.023
21
-120.809
0
LINE
8
BLACK
6
CONTINUOUS
10
158.023
20
-120.809
11
157.164
21
-120.927
0
LINE
8
BLACK
6
CONTINUOUS
10
157.164
20
-120.927
11
156.3
21
-121.006
0
LINE
8
BLACK
6
CONTINUOUS
10
156.3
20
-121.006
11
155.434
21
-121.045
0
LINE
8
BLACK
6
CONTINUOUS
10
155.434
20
-121.045
11
154.566
21
-121.045
0
LINE
8
BLACK
6
CONTINUOUS
10
154.566
20
-121.045
11
153.7
21
-121.006
0
LINE
8
BLACK
6
CONTINUOUS
10
153.7
20
-121.006
11
152.836
21
-120.927
0
LINE
8
BLACK
6
CONTINUOUS
10
152.836
20
-120.927
11
151.977
21
-120.809
0
LINE
8
BLACK
6
CONTINUOUS
10
151.977
20
-120.809
11
151.124
21
-120.652
0
LINE
8
BLACK
6
CONTINUOUS
10
151.124
20
-120.652
11
150.279
21
-120.456
0
LINE
8
BLACK
6
CONTINUOUS
10
150.279
20
-120.456
11
149.444
21
-120.222
0
LINE
8
BLACK
6
CONTINUOUS
10
149.444
20
-120.222
11
148.621
21
-119.95
0
LINE
8
BLACK
6
CONTINUOUS
10
148.621
20
-119.95
11
147.81
21
-119.641
0
LINE
8
BLACK
6
CONTINUOUS
10
147.81
20
-119.641
11
147.015
21
-119.296
0
LINE
8
BLACK
6
CONTINUOUS
10
147.015
20
-119.296
11
146.236
21
-118.914
0
LINE
8
BLACK
6
CONTINUOUS
10
146.236
20
-118.914
11
145.475
21
-118.498
0
LINE
8
BLACK
6
CONTINUOUS
10
145.475
20
-118.498
11
144.734
21
-118.047
0
LINE
8
BLACK
6
CONTINUOUS
10
144.734
20
-118.047
11
144.014
21
-117.563
0
LINE
8
BLACK
6
CONTINUOUS
10
144.014
20
-117.563
11
143.317
21
-117.047
0
LINE
8
BLACK
6
CONTINUOUS
10
143.317
20
-117.047
11
142.645
21
-116.5
0
LINE
8
BLACK
6
CONTINUOUS
10
142.645
20
-116.5
11
141.997
21
-115.922
0
LINE
8
BLACK
6
CONTINUOUS
10
141.997
20
-115.922
11
141.377
21
-115.316
0
LINE
8
BLACK
6
CONTINUOUS
10
141.377
20
-115.316
11
140.785
21
-114.682
0
LINE
8
BLACK
6
CONTINUOUS
10
140.785
20
-114.682
11
140.223
21
-114.022
0
LINE
8
BLACK
6
CONTINUOUS
10
140.223
20
-114.022
11
139.691
21
-113.337
0
LINE
8
BLACK
6
CONTINUOUS
10
139.691
20
-113.337
11
139.191
21
-112.629
0
LINE
8
BLACK
6
CONTINUOUS
10
139.191
20
-112.629
11
138.723
21
-111.898
0
LINE
8
BLACK
6
CONTINUOUS
10
138.723
20
-111.898
11
138.29
21
-111.147
0
LINE
8
BLACK
6
CONTINUOUS
10
138.29
20
-111.147
11
137.891
21
-110.377
0
LINE
8
BLACK
6
CONTINUOUS
10
137.891
20
-110.377
11
137.527
21
-109.59
0
LINE
8
BLACK
6
CONTINUOUS
10
137.527
20
-109.59
11
137.2
21
-108.786
0
LINE
8
BLACK
6
CONTINUOUS
10
137.2
20
-108.786
11
136.909
21
-107.969
0
LINE
8
BLACK
6
CONTINUOUS
10
136.909
20
-107.969
11
136.656
21
-107.14
0
LINE
8
BLACK
6
CONTINUOUS
10
136.656
20
-107.14
11
136.442
21
-106.299
0
LINE
8
BLACK
6
CONTINUOUS
10
136.442
20
-106.299
11
136.265
21
-105.45
0
LINE
8
BLACK
6
CONTINUOUS
10
136.265
20
-105.45
11
136.127
21
-104.594
0
LINE
8
BLACK
6
CONTINUOUS
10
136.127
20
-104.594
11
136.029
21
-103.732
0
LINE
8
BLACK
6
CONTINUOUS
10
136.029
20
-103.732
11
135.97
21
-102.867
0
LINE
8
BLACK
6
CONTINUOUS
10
135.97
20
-102.867
11
135.95
21
-102
0
LINE
8
BLACK
6
CONTINUOUS
10
135.95
20
-102
11
135.97
21
-101.133
0
LINE
8
BLACK
6
CONTINUOUS
10
135.97
20
-101.133
11
136.029
21
-100.268
0
LINE
8
BLACK
6
CONTINUOUS
10
136.029
20
-100.268
11
136.127
21
-99.406
0
LINE
8
BLACK
6
CONTINUOUS
10
136.127
20
-99.406
11
136.265
21
-98.5497
0
LINE
8
BLACK
6
CONTINUOUS
10
136.265
20
-98.5497
11
136.442
21
-97.7006
0
LINE
8
BLACK
6
CONTINUOUS
10
136.442
20
-97.7006
11
136.656
21
-96.8604
0
LINE
8
BLACK
6
CONTINUOUS
10
136.656
20
-96.8604
11
136.909
21
-96.0308
0
LINE
8
BLACK
6
CONTINUOUS
10
136.909
20
-96.0308
11
137.2
21
-95.2136
0
LINE
8
BLACK
6
CONTINUOUS
10
137.2
20
-95.2136
11
137.527
21
-94.4105
0
LINE
8
BLACK
6
CONTINUOUS
10
137.527
20
-94.4105
11
137.891
21
-93.6231
0
LINE
8
BLACK
6
CONTINUOUS
10
137.891
20
-93.6231
11
138.29
21
-92.853
0
LINE
8
BLACK
6
CONTINUOUS
10
138.29
20
-92.853
11
138.723
21
-92.1019
0
LINE
8
BLACK
6
CONTINUOUS
10
138.723
20
-92.1019
11
139.191
21
-91.3714
0
LINE
8
BLACK
6
CONTINUOUS
10
139.191
20
-91.3714
11
139.691
21
-90.6628
0
LINE
8
BLACK
6
CONTINUOUS
10
139.691
20
-90.6628
11
140.223
21
-89.9778
0
LINE
8
BLACK
6
CONTINUOUS
10
140.223
20
-89.9778
11
140.785
21
-89.3177
0
LINE
8
BLACK
6
CONTINUOUS
10
140.785
20
-89.3177
11
141.377
21
-88.6838
0
LINE
8
BLACK
6
CONTINUOUS
10
141.377
20
-88.6838
11
141.997
21
-88.0776
0
LINE
8
BLACK
6
CONTINUOUS
10
141.997
20
-88.0776
11
142.645
21
-87.5002
0
LINE
8
BLACK
6
CONTINUOUS
10
142.645
20
-87.5002
11
143.317
21
-86.9529
0
LINE
8
BLACK
6
CONTINUOUS
10
143.317
20
-86.9529
11
144.014
21
-86.4367
0
LINE
8
BLACK
6
CONTINUOUS
10
144.014
20
-86.4367
11
144.734
21
-85.9528
0
LINE
8
BLACK
6
CONTINUOUS
10
144.734
20
-85.9528
11
145.475
21
-85.5022
0
LINE
8
BLACK
6
CONTINUOUS
10
145.475
20
-85.5022
11
146.236
21
-85.0858
0
LINE
8
BLACK
6
CONTINUOUS
10
146.236
20
-85.0858
11
147.015
21
-84.7044
0
LINE
8
BLACK
6
CONTINUOUS
10
147.015
20
-84.7044
11
147.81
21
-84.3589
0
LINE
8
BLACK
6
CONTINUOUS
10
147.81
20
-84.3589
11
148.621
21
-84.0499
0
LINE
8
BLACK
6
CONTINUOUS
10
148.621
20
-84.0499
11
149.444
21
-83.7782
0
LINE
8
BLACK
6
CONTINUOUS
10
149.444
20
-83.7782
11
150.279
21
-83.5442
0
LINE
8
BLACK
6
CONTINUOUS
10
150.279
20
-83.5442
11
151.124
21
-83.3484
0
LINE
8
BLACK
6
CONTINUOUS
10
151.124
20
-83.3484
11
151.977
21
-83.1914
0
LINE
8
BLACK
6
CONTINUOUS
10
151.977
20
-83.1914
11
152.836
21
-83.0733
0
LINE
8
BLACK
6
CONTINUOUS
10
152.836
20
-83.0733
11
153.7
21
-82.9944
0
LINE
8
BLACK
6
CONTINUOUS
10
153.7
20
-82.9944
11
154.566
21
-82.9549
0
LINE
8
BLACK
6
CONTINUOUS
10
154.566
20
-82.9549
11
155.434
21
-82.9549
0
LINE
8
BLACK
6
CONTINUOUS
10
155.434
20
-82.9549
11
156.3
21
-82.9944
0
LINE
8
BLACK
6
CONTINUOUS
10
136.065
20
-102.863
11
136.124
21
-103.724
0
LINE
8
BLACK
6
CONTINUOUS
10
136.124
20
-103.724
11
136.222
21
-104.581
0
LINE
8
BLACK
6
CONTINUOUS
10
136.222
20
-104.581
11
136.359
21
-105.433
0
LINE
8
BLACK
6
CONTINUOUS
10
136.359
20
-105.433
11
136.534
21
-106.278
0
LINE
8
BLACK
6
CONTINUOUS
10
136.534
20
-106.278
11
136.748
21
-107.114
0
LINE
8
BLACK
6
CONTINUOUS
10
136.748
20
-107.114
11
137
21
-107.939
0
LINE
8
BLACK
6
CONTINUOUS
10
137
20
-107.939
11
137.289
21
-108.753
0
LINE
8
BLACK
6
CONTINUOUS
10
137.289
20
-108.753
11
137.614
21
-109.552
0
LINE
8
BLACK
6
CONTINUOUS
10
137.614
20
-109.552
11
137.976
21
-110.335
0
LINE
8
BLACK
6
CONTINUOUS
10
137.976
20
-110.335
11
138.373
21
-111.101
0
LINE
8
BLACK
6
CONTINUOUS
10
138.373
20
-111.101
11
138.805
21
-111.849
0
LINE
8
BLACK
6
CONTINUOUS
10
138.805
20
-111.849
11
139.27
21
-112.576
0
LINE
8
BLACK
6
CONTINUOUS
10
139.27
20
-112.576
11
139.767
21
-113.281
0
LINE
8
BLACK
6
CONTINUOUS
10
139.767
20
-113.281
11
140.296
21
-113.962
0
LINE
8
BLACK
6
CONTINUOUS
10
140.296
20
-113.962
11
140.856
21
-114.619
0
LINE
8
BLACK
6
CONTINUOUS
10
140.856
20
-114.619
11
141.445
21
-115.25
0
LINE
8
BLACK
6
CONTINUOUS
10
141.445
20
-115.25
11
142.062
21
-115.853
0
LINE
8
BLACK
6
CONTINUOUS
10
142.062
20
-115.853
11
142.706
21
-116.427
0
LINE
8
BLACK
6
CONTINUOUS
10
142.706
20
-116.427
11
143.376
21
-116.972
0
LINE
8
BLACK
6
CONTINUOUS
10
143.376
20
-116.972
11
144.069
21
-117.486
0
LINE
8
BLACK
6
CONTINUOUS
10
144.069
20
-117.486
11
144.785
21
-117.967
0
LINE
8
BLACK
6
CONTINUOUS
10
144.785
20
-117.967
11
145.523
21
-118.415
0
LINE
8
BLACK
6
CONTINUOUS
10
145.523
20
-118.415
11
146.28
21
-118.83
0
LINE
8
BLACK
6
CONTINUOUS
10
146.28
20
-118.83
11
147.055
21
-119.209
0
LINE
8
BLACK
6
CONTINUOUS
10
147.055
20
-119.209
11
147.846
21
-119.553
0
LINE
8
BLACK
6
CONTINUOUS
10
147.846
20
-119.553
11
148.652
21
-119.86
0
LINE
8
BLACK
6
CONTINUOUS
10
148.652
20
-119.86
11
149.472
21
-120.131
0
LINE
8
BLACK
6
CONTINUOUS
10
149.472
20
-120.131
11
150.303
21
-120.364
0
LINE
8
BLACK
6
CONTINUOUS
10
150.303
20
-120.364
11
151.144
21
-120.558
0
LINE
8
BLACK
6
CONTINUOUS
10
151.144
20
-120.558
11
151.992
21
-120.715
0
LINE
8
BLACK
6
CONTINUOUS
10
151.992
20
-120.715
11
152.847
21
-120.832
0
LINE
8
BLACK
6
CONTINUOUS
10
152.847
20
-120.832
11
153.706
21
-120.911
0
LINE
8
BLACK
6
CONTINUOUS
10
153.706
20
-120.911
11
154.569
21
-120.95
0
LINE
8
BLACK
6
CONTINUOUS
10
154.569
20
-120.95
11
155.431
21
-120.95
0
LINE
8
BLACK
6
CONTINUOUS
10
155.431
20
-120.95
11
156.294
21
-120.911
0
LINE
8
BLACK
6
CONTINUOUS
10
156.294
20
-120.911
11
157.153
21
-120.832
0
LINE
8
BLACK
6
CONTINUOUS
10
157.153
20
-120.832
11
158.008
21
-120.715
0
LINE
8
BLACK
6
CONTINUOUS
10
158.008
20
-120.715
11
158.856
21
-120.558
0
LINE
8
BLACK
6
CONTINUOUS
10
158.856
20
-120.558
11
159.697
21
-120.364
0
LINE
8
BLACK
6
CONTINUOUS
10
159.697
20
-120.364
11
160.528
21
-120.131
0
LINE
8
BLACK
6
CONTINUOUS
10
160.528
20
-120.131
11
161.348
21
-119.86
0
LINE
8
BLACK
6
CONTINUOUS
10
161.348
20
-119.86
11
162.154
21
-119.553
0
LINE
8
BLACK
6
CONTINUOUS
10
162.154
20
-119.553
11
162.945
21
-119.209
0
LINE
8
BLACK
6
CONTINUOUS
10
162.945
20
-119.209
11
163.72
21
-118.83
0
LINE
8
BLACK
6
CONTINUOUS
10
163.72
20
-118.83
11
164.477
21
-118.415
0
LINE
8
BLACK
6
CONTINUOUS
10
164.477
20
-118.415
11
165.215
21
-117.967
0
LINE
8
BLACK
6
CONTINUOUS
10
165.215
20
-117.967
11
165.931
21
-117.486
0
LINE
8
BLACK
6
CONTINUOUS
10
165.931
20
-117.486
11
166.624
21
-116.972
0
LINE
8
BLACK
6
CONTINUOUS
10
166.624
20
-116.972
11
167.294
21
-116.427
0
LINE
8
BLACK
6
CONTINUOUS
10
167.294
20
-116.427
11
167.938
21
-115.853
0
LINE
8
BLACK
6
CONTINUOUS
10
167.938
20
-115.853
11
168.555
21
-115.25
0
LINE
8
BLACK
6
CONTINUOUS
10
168.555
20
-115.25
11
169.144
21
-114.619
0
LINE
8
BLACK
6
CONTINUOUS
10
169.144
20
-114.619
11
169.704
21
-113.962
0
LINE
8
BLACK
6
CONTINUOUS
10
169.704
20
-113.962
11
170.233
21
-113.281
0
LINE
8
BLACK
6
CONTINUOUS
10
170.233
20
-113.281
11
170.73
21
-112.576
0
LINE
8
BLACK
6
CONTINUOUS
10
170.73
20
-112.576
11
171.195
21
-111.849
0
LINE
8
BLACK
6
CONTINUOUS
10
171.195
20
-111.849
11
171.627
21
-111.101
0
LINE
8
BLACK
6
CONTINUOUS
10
171.627
20
-111.101
11
172.024
21
-110.335
0
LINE
8
BLACK
6
CONTINUOUS
10
172.024
20
-110.335
11
172.386
21
-109.552
0
LINE
8
BLACK
6
CONTINUOUS
10
172.386
20
-109.552
11
172.711
21
-108.753
0
LINE
8
BLACK
6
CONTINUOUS
10
172.711
20
-108.753
11
173
21
-107.939
0
LINE
8
BLACK
6
CONTINUOUS
10
173
20
-107.939
11
173.252
21
-107.114
0
LINE
8
BLACK
6
CONTINUOUS
10
173.252
20
-107.114
11
173.466
21
-106.278
0
LINE
8
BLACK
6
CONTINUOUS
10
173.466
20
-106.278
11
173.641
21
-105.433
0
LINE
8
BLACK
6
CONTINUOUS
10
173.641
20
-105.433
11
173.778
21
-104.581
0
LINE
8
BLACK
6
CONTINUOUS
10
173.778
20
-104.581
11
173.876
21
-103.724
0
LINE
8
BLACK
6
CONTINUOUS
10
173.876
20
-103.724
11
173.935
21
-102.863
0
LINE
8
BLACK
6
CONTINUOUS
10
173.935
20
-102.863
11
173.955
21
-102
0
LINE
8
BLACK
6
CONTINUOUS
10
173.955
20
-102
11
173.935
21
-101.137
0
LINE
8
BLACK
6
CONTINUOUS
10
173.935
20
-101.137
11
173.876
21
-100.276
0
LINE
8
BLACK
6
CONTINUOUS
10
173.876
20
-100.276
11
173.778
21
-99.419
0
LINE
8
BLACK
6
CONTINUOUS
10
173.778
20
-99.419
11
173.641
21
-98.567
0
LINE
8
BLACK
6
CONTINUOUS
10
173.641
20
-98.567
11
173.466
21
-97.7221
0
LINE
8
BLACK
6
CONTINUOUS
10
173.466
20
-97.7221
11
173.252
21
-96.886
0
LINE
8
BLACK
6
CONTINUOUS
10
173.252
20
-96.886
11
173
21
-96.0606
0
LINE
8
BLACK
6
CONTINUOUS
10
173
20
-96.0606
11
172.711
21
-95.2475
0
LINE
8
BLACK
6
CONTINUOUS
10
172.711
20
-95.2475
11
172.386
21
-94.4483
0
LINE
8
BLACK
6
CONTINUOUS
10
172.386
20
-94.4483
11
172.024
21
-93.6649
0
LINE
8
BLACK
6
CONTINUOUS
10
172.024
20
-93.6649
11
171.627
21
-92.8987
0
LINE
8
BLACK
6
CONTINUOUS
10
171.627
20
-92.8987
11
171.195
21
-92.1513
0
LINE
8
BLACK
6
CONTINUOUS
10
171.195
20
-92.1513
11
170.73
21
-91.4244
0
LINE
8
BLACK
6
CONTINUOUS
10
170.73
20
-91.4244
11
170.233
21
-90.7194
0
LINE
8
BLACK
6
CONTINUOUS
10
170.233
20
-90.7194
11
169.704
21
-90.0378
0
LINE
8
BLACK
6
CONTINUOUS
10
169.704
20
-90.0378
11
169.144
21
-89.381
0
LINE
8
BLACK
6
CONTINUOUS
10
169.144
20
-89.381
11
168.555
21
-88.7503
0
LINE
8
BLACK
6
CONTINUOUS
10
168.555
20
-88.7503
11
167.938
21
-88.1471
0
LINE
8
BLACK
6
CONTINUOUS
10
167.938
20
-88.1471
11
167.294
21
-87.5726
0
LINE
8
BLACK
6
CONTINUOUS
10
167.294
20
-87.5726
11
166.624
21
-87.028
0
LINE
8
BLACK
6
CONTINUOUS
10
166.624
20
-87.028
11
165.931
21
-86.5144
0
LINE
8
BLACK
6
CONTINUOUS
10
165.931
20
-86.5144
11
165.215
21
-86.0329
0
LINE
8
BLACK
6
CONTINUOUS
10
165.215
20
-86.0329
11
164.477
21
-85.5846
0
LINE
8
BLACK
6
CONTINUOUS
10
164.477
20
-85.5846
11
163.72
21
-85.1702
0
LINE
8
BLACK
6
CONTINUOUS
10
163.72
20
-85.1702
11
162.945
21
-84.7907
0
LINE
8
BLACK
6
CONTINUOUS
10
162.945
20
-84.7907
11
162.154
21
-84.4469
0
LINE
8
BLACK
6
CONTINUOUS
10
162.154
20
-84.4469
11
161.348
21
-84.1395
0
LINE
8
BLACK
6
CONTINUOUS
10
161.348
20
-84.1395
11
160.528
21
-83.8691
0
LINE
8
BLACK
6
CONTINUOUS
10
160.528
20
-83.8691
11
159.697
21
-83.6363
0
LINE
8
BLACK
6
CONTINUOUS
10
159.697
20
-83.6363
11
158.856
21
-83.4415
0
LINE
8
BLACK
6
CONTINUOUS
10
158.856
20
-83.4415
11
158.008
21
-83.2853
0
LINE
8
BLACK
6
CONTINUOUS
10
158.008
20
-83.2853
11
157.153
21
-83.1677
0
LINE
8
BLACK
6
CONTINUOUS
10
157.153
20
-83.1677
11
156.294
21
-83.0893
0
LINE
8
BLACK
6
CONTINUOUS
10
156.294
20
-83.0893
11
155.431
21
-83.05
0
LINE
8
BLACK
6
CONTINUOUS
10
155.431
20
-83.05
11
154.569
21
-83.05
0
LINE
8
BLACK
6
CONTINUOUS
10
154.569
20
-83.05
11
153.706
21
-83.0893
0
LINE
8
BLACK
6
CONTINUOUS
10
153.706
20
-83.0893
11
152.847
21
-83.1677
0
LINE
8
BLACK
6
CONTINUOUS
10
152.847
20
-83.1677
11
151.992
21
-83.2853
0
LINE
8
BLACK
6
CONTINUOUS
10
151.992
20
-83.2853
11
151.144
21
-83.4415
0
LINE
8
BLACK
6
CONTINUOUS
10
151.144
20
-83.4415
11
150.303
21
-83.6363
0
LINE
8
BLACK
6
CONTINUOUS
10
150.303
20
-83.6363
11
149.472
21
-83.8691
0
LINE
8
BLACK
6
CONTINUOUS
10
149.472
20
-83.8691
11
148.652
21
-84.1395
0
LINE
8
BLACK
6
CONTINUOUS
10
148.652
20
-84.1395
11
147.846
21
-84.4469
0
LINE
8
BLACK
6
CONTINUOUS
10
147.846
20
-84.4469
11
147.055
21
-84.7907
0
LINE
8
BLACK
6
CONTINUOUS
10
147.055
20
-84.7907
11
146.28
21
-85.1702
0
LINE
8
BLACK
6
CONTINUOUS
10
146.28
20
-85.1702
11
145.523
21
-85.5846
0
LINE
8
BLACK
6
CONTINUOUS
10
145.523
20
-85.5846
11
144.785
21
-86.0329
0
LINE
8
BLACK
6
CONTINUOUS
10
144.785
20
-86.0329
11
144.069
21
-86.5144
0
LINE
8
BLACK
6
CONTINUOUS
10
144.069
20
-86.5144
11
143.376
21
-87.028
0
LINE
8
BLACK
6
CONTINUOUS
10
143.376
20
-87.028
11
142.706
21
-87.5726
0
LINE
8
BLACK
6
CONTINUOUS
10
142.706
20
-87.5726
11
142.062
21
-88.1471
0
LINE
8
BLACK
6
CONTINUOUS
10
142.062
20
-88.1471
11
141.445
21
-88.7503
0
LINE
8
BLACK
6
CONTINUOUS
10
141.445
20
-88.7503
11
140.856
21
-89.381
0
LINE
8
BLACK
6
CONTINUOUS
10
140.856
20
-89.381
11
140.296
21
-90.0378
0
LINE
8
BLACK
6
CONTINUOUS
10
140.296
20
-90.0378
11
139.767
21
-90.7194
0
LINE
8
BLACK
6
CONTINUOUS
10
139.767
20
-90.7194
11
139.27
21
-91.4244
0
LINE
8
BLACK
6
CONTINUOUS
10
139.27
20
-91.4244
11
138.805
21
-92.1513
0
LINE
8
BLACK
6
CONTINUOUS
10
138.805
20
-92.1513
11
138.373
21
-92.8987
0
LINE
8
BLACK
6
CONTINUOUS
10
138.373
20
-92.8987
11
137.976
21
-93.6649
0
LINE
8
BLACK
6
CONTINUOUS
10
137.976
20
-93.6649
11
137.614
21
-94.4483
0
LINE
8
BLACK
6
CONTINUOUS
10
137.614
20
-94.4483
11
137.289
21
-95.2475
0
LINE
8
BLACK
6
CONTINUOUS
10
137.289
20
-95.2475
11
137
21
-96.0606
0
LINE
8
BLACK
6
CONTINUOUS
10
137
20
-96.0606
11
136.748
21
-96.886
0
LINE
8
BLACK
6
CONTINUOUS
10
136.748
20
-96.886
11
136.534
21
-97.7221
0
LINE
8
BLACK
6
CONTINUOUS
10
136.534
20
-97.7221
11
136.359
21
-98.567
0
LINE
8
BLACK
6
CONTINUOUS
10
136.359
20
-98.567
11
136.222
21
-99.419
0
LINE
8
BLACK
6
CONTINUOUS
10
136.222
20
-99.419
11
136.124
21
-100.276
0
LINE
8
BLACK
6
CONTINUOUS
10
136.124
20
-100.276
11
136.065
21
-101.137
0
LINE
8
BLACK
6
CONTINUOUS
10
136.065
20
-101.137
11
136.045
21
-102
0
LINE
8
BLACK
6
CONTINUOUS
10
136.045
20
-102
11
136.065
21
-102.863
0
LINE
8
BLACK
6
CONTINUOUS
10
252
20
-59.95
11
252.035
21
-59.9646
0
LINE
8
BLACK
6
CONTINUOUS
10
252.035
20
-59.9646
11
252.05
21
-60
0
LINE
8
BLACK
6
CONTINUOUS
10
252.05
20
-60
11
252.05
21
-113
0
LINE
8
BLACK
6
CONTINUOUS
10
252.05
20
-113
11
252.035
21
-113.035
0
LINE
8
BLACK
6
CONTINUOUS
10
252.035
20
-113.035
11
252
21
-113.05
0
LINE
8
BLACK
6
CONTINUOUS
10
252
20
-113.05
11
230.05
21
-113.05
0
LINE
8
BLACK
6
CONTINUOUS
10
230.05
20
-113.05
11
230.05
21
-140
0
LINE
8
BLACK
6
CONTINUOUS
10
230.05
20
-140
11
230.035
21
-140.035
0
LINE
8
BLACK
6
CONTINUOUS
10
230.035
20
-140.035
11
230
21
-140.05
0
LINE
8
BLACK
6
CONTINUOUS
10
230
20
-140.05
11
80
21
-140.05
0
LINE
8
BLACK
6
CONTINUOUS
10
80
20
-140.05
11
79.9646
21
-140.035
0
LINE
8
BLACK
6
CONTINUOUS
10
79.9646
20
-140.035
11
79.95
21
-140
0
LINE
8
BLACK
6
CONTINUOUS
10
79.95
20
-140
11
79.95
21
-113.05
0
LINE
8
BLACK
6
CONTINUOUS
10
79.95
20
-113.05
11
58
21
-113.05
0
LINE
8
BLACK
6
CONTINUOUS
10
58
20
-113.05
11
57.9646
21
-113.035
0
LINE
8
BLACK
6
CONTINUOUS
10
57.9646
20
-113.035
11
57.95
21
-113
0
LINE
8
BLACK
6
CONTINUOUS
10
57.95
20
-113
11
57.95
21
-60
0
LINE
8
BLACK
6
CONTINUOUS
10
57.95
20
-60
11
57.9646
21
-59.9646
0
LINE
8
BLACK
6
CONTINUOUS
10
57.9646
20
-59.9646
11
58
21
-59.95
0
LINE
8
BLACK
6
CONTINUOUS
10
58
20
-59.95
11
252
21
-59.95
0
LINE
8
BLACK
6
CONTINUOUS
10
58.05
20
-60.05
11
58.05
21
-112.95
0
LINE
8
BLACK
6
CONTINUOUS
10
58.05
20
-112.95
11
80
21
-112.95
0
LINE
8
BLACK
6
CONTINUOUS
10
80
20
-112.95
11
80.0354
21
-112.965
0
LINE
8
BLACK
6
CONTINUOUS
10
80.0354
20
-112.965
11
80.05
21
-113
0
LINE
8
BLACK
6
CONTINUOUS
10
80.05
20
-113
11
80.05
21
-139.95
0
LINE
8
BLACK
6
CONTINUOUS
10
80.05
20
-139.95
11
229.95
21
-139.95
0
LINE
8
BLACK
6
CONTINUOUS
10
229.95
20
-139.95
11
229.95
21
-113
0
LINE
8
BLACK
6
CONTINUOUS
10
229.95
20
-113
11
229.965
21
-112.965
0
LINE
8
BLACK
6
CONTINUOUS
10
229.965
20
-112.965
11
230
21
-112.95
0
LINE
8
BLACK
6
CONTINUOUS
10
230
20
-112.95
11
251.95
21
-112.95
0
LINE
8
BLACK
6
CONTINUOUS
10
251.95
20
-112.95
11
251.95
21
-60.05
0
LINE
8
BLACK
6
CONTINUOUS
10
251.95
20
-60.05
11
58.05
21
-60.05
  0
ENDSEC
  0
EOF
