M48
; DRILL file {KiCad 7.0.8} date Tue Nov 21 11:03:14 2023
; FORMAT={-:-/ absolute / metric / decimal}
; #@! TF.CreationDate,2023-11-21T11:03:14-05:00
; #@! TF.GenerationSoftware,Kicad,Pcbnew,7.0.8
; #@! TF.FileFunction,Plated,1,2,PTH
FMAT,2
METRIC
; #@! TA.AperFunction,Plated,PTH,ViaDrill
T1C0.800
; #@! TA.AperFunction,Plated,PTH,ComponentDrill
T2C0.800
; #@! TA.AperFunction,Plated,PTH,ComponentDrill
T3C2.700
; #@! TA.AperFunction,Plated,PTH,ViaDrill
T4C3.000
%
G90
G05
T1
X78.0Y-70.5
X87.5Y-76.5
X179.1Y-73.2
X188.5Y-89.0
X189.2Y-73.2
X194.5Y-93.0
X200.5Y-95.5
X209.55Y-92.85
X209.6Y-95.4
X210.0Y-89.0
T2
X80.64Y-92.88
X80.64Y-95.42
X80.64Y-97.96
X80.64Y-100.5
X80.64Y-103.04
X80.64Y-105.58
X80.64Y-108.12
X80.64Y-110.66
X81.88Y-88.5
X84.42Y-88.5
X86.96Y-88.5
X89.5Y-88.5
X92.04Y-88.5
X94.58Y-88.5
X95.88Y-92.88
X95.88Y-95.42
X95.88Y-97.96
X95.88Y-100.5
X95.88Y-103.04
X95.88Y-105.58
X95.88Y-108.12
X95.88Y-110.66
X101.96Y-80.5
X104.5Y-80.5
X107.04Y-80.5
X108.72Y-90.18
X108.72Y-92.72
X108.72Y-110.5
X108.72Y-113.04
X109.58Y-80.5
X111.26Y-90.18
X111.26Y-92.72
X111.26Y-110.5
X111.26Y-113.04
X113.8Y-90.18
X113.8Y-92.72
X113.8Y-110.5
X113.8Y-113.04
X116.34Y-90.18
X116.34Y-92.72
X116.34Y-110.5
X116.34Y-113.04
X118.88Y-90.18
X118.88Y-92.72
X118.88Y-110.5
X118.88Y-113.04
X121.0Y-76.5
X121.0Y-79.0
X121.42Y-90.18
X121.42Y-92.72
X121.42Y-110.5
X121.42Y-113.04
X123.96Y-90.18
X123.96Y-92.72
X123.96Y-110.5
X123.96Y-113.04
X126.5Y-90.18
X126.5Y-92.72
X126.5Y-110.5
X126.5Y-113.04
X146.84Y-73.3
X149.38Y-73.3
X151.92Y-73.3
X154.46Y-73.3
X157.0Y-73.3
X159.54Y-73.3
X162.08Y-73.3
X171.2Y-80.8
X171.2Y-83.3
X179.0Y-94.5
X180.5Y-110.3
X180.7Y-78.4
X180.7Y-80.9
X180.7Y-83.4
X180.7Y-85.9
X181.54Y-94.5
X183.0Y-110.3
X184.08Y-94.5
X193.02Y-100.7
X195.56Y-100.7
X198.1Y-100.7
X215.07Y-90.46
X215.07Y-93.0
X215.07Y-95.54
X215.07Y-98.08
X215.07Y-100.62
X215.07Y-103.16
X215.07Y-105.7
X215.07Y-108.24
X215.24Y-85.98
X217.78Y-85.98
X220.32Y-85.98
X222.86Y-85.98
X225.4Y-85.98
X227.94Y-85.98
X230.31Y-90.46
X230.31Y-93.0
X230.31Y-95.54
X230.31Y-98.08
X230.31Y-100.62
X230.31Y-103.16
X230.31Y-105.7
X230.31Y-108.24
T3
X179.1Y-101.9
X184.1Y-101.9
T4
X63.0Y-65.0
X63.0Y-75.0
X73.0Y-65.0
X73.0Y-74.9
X85.0Y-117.5
X85.0Y-135.45
X225.0Y-117.55
X225.0Y-135.5
X237.0Y-65.0
X237.0Y-75.1
X247.0Y-65.0
X247.0Y-75.0
T0
M30
