  0
SECTION
  2
HEADER
  9
$ANGBASE
  50
0.0
  9
$ANGDIR
  70
1
  9
$MEASUREMENT
  70
0
  0
ENDSEC
  0
SECTION
  2
TABLES
  0
TABLE
  2
LTYPE
  70
4
  0
LTYPE
  5
40F
  2
CONTINUOUS
  70
0
  3
Solid line
  72
65
  73
0
  40
0.0
  0
LTYPE
  5
410
  2
DASHDOT
 70
0
  3
Dash Dot ____ _ ____ _
 72
65
 73
4
 40
2.0
 49
1.25
 49
-0.25
 49
0.25
 49
-0.25
  0
LTYPE
  5
411
  2
DASHED
 70
0
  3
Dashed __ __ __ __ __
 72
65
 73
2
 40
0.75
 49
0.5
 49
-0.25
  0
LTYPE
  5
43B
  2
DOTTED
 70
0
  3
Dotted .  .  .  .
 72
65
 73
2
 40
0.2
 49
0.0
 49
-0.2
  0
ENDTAB
  0
TABLE
  2
STYLE
  70
4
  0
STYLE
  2
KICAD
  70
0
  40
0
  41
1
  42
1
  50
0
  71
0
  3
isocp.shx
  0
STYLE
  2
KICADB
  70
0
  40
0
  41
1
  42
1
  50
0
  71
0
  3
isocp.shx
  0
STYLE
  2
KICADI
  70
0
  40
0
  41
1
  42
1
  50
15
  71
0
  3
isocp.shx
  0
STYLE
  2
KICADBI
  70
0
  40
0
  41
1
  42
1
  50
15
  71
0
  3
isocp.shx
  0
ENDTAB
  0
TABLE
  2
LAYER
  70
1
  0
LAYER
  2
BLACK
  70
0
  62
7
  6
CONTINUOUS
  0
ENDTAB
  0
ENDSEC
  0
SECTION
  2
ENTITIES
0
LINE
8
BLACK
6
CONTINUOUS
10
4.88189
20
-1.96654
11
5.35433
21
-1.96654
0
LINE
8
BLACK
6
CONTINUOUS
10
5.35433
20
-1.96654
11
5.35497
21
-1.9668
0
LINE
8
BLACK
6
CONTINUOUS
10
5.35497
20
-1.9668
11
5.35563
21
-1.96702
0
LINE
8
BLACK
6
CONTINUOUS
10
5.35563
20
-1.96702
11
5.67003
21
-2.24213
0
LINE
8
BLACK
6
CONTINUOUS
10
5.67003
20
-2.24213
11
6.29921
21
-2.24213
0
LINE
8
BLACK
6
CONTINUOUS
10
6.29921
20
-2.24213
11
6.3006
21
-2.2427
0
LINE
8
BLACK
6
CONTINUOUS
10
6.3006
20
-2.2427
11
6.30118
21
-2.24409
0
LINE
8
BLACK
6
CONTINUOUS
10
6.30118
20
-2.24409
11
6.30118
21
-3.03042
0
LINE
8
BLACK
6
CONTINUOUS
10
6.30118
20
-3.03042
11
6.73334
21
-3.30543
0
LINE
8
BLACK
6
CONTINUOUS
10
6.73334
20
-3.30543
11
6.73347
21
-3.30561
0
LINE
8
BLACK
6
CONTINUOUS
10
6.73347
20
-3.30561
11
6.73368
21
-3.30569
0
LINE
8
BLACK
6
CONTINUOUS
10
6.73368
20
-3.30569
11
6.73389
21
-3.30621
0
LINE
8
BLACK
6
CONTINUOUS
10
6.73389
20
-3.30621
11
6.73421
21
-3.30666
0
LINE
8
BLACK
6
CONTINUOUS
10
6.73421
20
-3.30666
11
6.73417
21
-3.30688
0
LINE
8
BLACK
6
CONTINUOUS
10
6.73417
20
-3.30688
11
6.73425
21
-3.30709
0
LINE
8
BLACK
6
CONTINUOUS
10
6.73425
20
-3.30709
11
6.73425
21
-3.58071
0
LINE
8
BLACK
6
CONTINUOUS
10
6.73425
20
-3.58071
11
7.75591
21
-3.58071
0
LINE
8
BLACK
6
CONTINUOUS
10
7.75591
20
-3.58071
11
7.7573
21
-3.58129
0
LINE
8
BLACK
6
CONTINUOUS
10
7.7573
20
-3.58129
11
7.75787
21
-3.58268
0
LINE
8
BLACK
6
CONTINUOUS
10
7.75787
20
-3.58268
11
7.75787
21
-4.76378
0
LINE
8
BLACK
6
CONTINUOUS
10
7.75787
20
-4.76378
11
7.7573
21
-4.76517
0
LINE
8
BLACK
6
CONTINUOUS
10
7.7573
20
-4.76517
11
7.75591
21
-4.76575
0
LINE
8
BLACK
6
CONTINUOUS
10
7.75591
20
-4.76575
11
6.73425
21
-4.76575
0
LINE
8
BLACK
6
CONTINUOUS
10
6.73425
20
-4.76575
11
6.73425
21
-5
0
LINE
8
BLACK
6
CONTINUOUS
10
6.73425
20
-5
11
6.73368
21
-5.00139
0
LINE
8
BLACK
6
CONTINUOUS
10
6.73368
20
-5.00139
11
6.73228
21
-5.00197
0
LINE
8
BLACK
6
CONTINUOUS
10
6.73228
20
-5.00197
11
3.0315
21
-5.00197
0
LINE
8
BLACK
6
CONTINUOUS
10
3.0315
20
-5.00197
11
3.0301
21
-5.00139
0
LINE
8
BLACK
6
CONTINUOUS
10
3.0301
20
-5.00139
11
3.02953
21
-5
0
LINE
8
BLACK
6
CONTINUOUS
10
3.02953
20
-5
11
3.02953
21
-4.76575
0
LINE
8
BLACK
6
CONTINUOUS
10
3.02953
20
-4.76575
11
2.08661
21
-4.76575
0
LINE
8
BLACK
6
CONTINUOUS
10
2.08661
20
-4.76575
11
2.00787
21
-4.76575
0
LINE
8
BLACK
6
CONTINUOUS
10
2.00787
20
-4.76575
11
2.00648
21
-4.76517
0
LINE
8
BLACK
6
CONTINUOUS
10
2.00648
20
-4.76517
11
2.00591
21
-4.76378
0
LINE
8
BLACK
6
CONTINUOUS
10
2.00591
20
-4.76378
11
2.00591
21
-4.17323
0
LINE
8
BLACK
6
CONTINUOUS
10
2.00591
20
-4.17323
11
2.00591
21
-3.58268
0
LINE
8
BLACK
6
CONTINUOUS
10
2.00591
20
-3.58268
11
2.00648
21
-3.58129
0
LINE
8
BLACK
6
CONTINUOUS
10
2.00648
20
-3.58129
11
2.00787
21
-3.58071
0
LINE
8
BLACK
6
CONTINUOUS
10
2.00787
20
-3.58071
11
3.02953
21
-3.58071
0
LINE
8
BLACK
6
CONTINUOUS
10
3.02953
20
-3.58071
11
3.02953
21
-3.32677
0
LINE
8
BLACK
6
CONTINUOUS
10
3.02953
20
-3.32677
11
3.0296
21
-3.32659
0
LINE
8
BLACK
6
CONTINUOUS
10
3.0296
20
-3.32659
11
3.02956
21
-3.32641
0
LINE
8
BLACK
6
CONTINUOUS
10
3.02956
20
-3.32641
11
3.02988
21
-3.32592
0
LINE
8
BLACK
6
CONTINUOUS
10
3.02988
20
-3.32592
11
3.0301
21
-3.32538
0
LINE
8
BLACK
6
CONTINUOUS
10
3.0301
20
-3.32538
11
3.03028
21
-3.32531
0
LINE
8
BLACK
6
CONTINUOUS
10
3.03028
20
-3.32531
11
3.03039
21
-3.32515
0
LINE
8
BLACK
6
CONTINUOUS
10
3.03039
20
-3.32515
11
3.4626
21
-3.03046
0
LINE
8
BLACK
6
CONTINUOUS
10
3.4626
20
-3.03046
11
3.4626
21
-2.24409
0
LINE
8
BLACK
6
CONTINUOUS
10
3.4626
20
-2.24409
11
3.46318
21
-2.2427
0
LINE
8
BLACK
6
CONTINUOUS
10
3.46318
20
-2.2427
11
3.46457
21
-2.24213
0
LINE
8
BLACK
6
CONTINUOUS
10
3.46457
20
-2.24213
11
4.09375
21
-2.24213
0
LINE
8
BLACK
6
CONTINUOUS
10
4.09375
20
-2.24213
11
4.40815
21
-1.96702
0
LINE
8
BLACK
6
CONTINUOUS
10
4.40815
20
-1.96702
11
4.40881
21
-1.9668
0
LINE
8
BLACK
6
CONTINUOUS
10
4.40881
20
-1.9668
11
4.40945
21
-1.96654
0
LINE
8
BLACK
6
CONTINUOUS
10
4.40945
20
-1.96654
11
4.88189
21
-1.96654
0
LINE
8
BLACK
6
CONTINUOUS
10
4.41019
20
-1.97047
11
4.09578
21
-2.24558
0
LINE
8
BLACK
6
CONTINUOUS
10
4.09578
20
-2.24558
11
4.09513
21
-2.2458
0
LINE
8
BLACK
6
CONTINUOUS
10
4.09513
20
-2.2458
11
4.09449
21
-2.24606
0
LINE
8
BLACK
6
CONTINUOUS
10
4.09449
20
-2.24606
11
3.46654
21
-2.24606
0
LINE
8
BLACK
6
CONTINUOUS
10
3.46654
20
-2.24606
11
3.46654
21
-3.0315
0
LINE
8
BLACK
6
CONTINUOUS
10
3.46654
20
-3.0315
11
3.46646
21
-3.03167
0
LINE
8
BLACK
6
CONTINUOUS
10
3.46646
20
-3.03167
11
3.4665
21
-3.03186
0
LINE
8
BLACK
6
CONTINUOUS
10
3.4665
20
-3.03186
11
3.46618
21
-3.03235
0
LINE
8
BLACK
6
CONTINUOUS
10
3.46618
20
-3.03235
11
3.46596
21
-3.03289
0
LINE
8
BLACK
6
CONTINUOUS
10
3.46596
20
-3.03289
11
3.46578
21
-3.03296
0
LINE
8
BLACK
6
CONTINUOUS
10
3.46578
20
-3.03296
11
3.46568
21
-3.03312
0
LINE
8
BLACK
6
CONTINUOUS
10
3.46568
20
-3.03312
11
3.03346
21
-3.32781
0
LINE
8
BLACK
6
CONTINUOUS
10
3.03346
20
-3.32781
11
3.03346
21
-3.58268
0
LINE
8
BLACK
6
CONTINUOUS
10
3.03346
20
-3.58268
11
3.03289
21
-3.58407
0
LINE
8
BLACK
6
CONTINUOUS
10
3.03289
20
-3.58407
11
3.0315
21
-3.58465
0
LINE
8
BLACK
6
CONTINUOUS
10
3.0315
20
-3.58465
11
2.00984
21
-3.58465
0
LINE
8
BLACK
6
CONTINUOUS
10
2.00984
20
-3.58465
11
2.00984
21
-4.17323
0
LINE
8
BLACK
6
CONTINUOUS
10
2.00984
20
-4.17323
11
2.00984
21
-4.76181
0
LINE
8
BLACK
6
CONTINUOUS
10
2.00984
20
-4.76181
11
2.08661
21
-4.76181
0
LINE
8
BLACK
6
CONTINUOUS
10
2.08661
20
-4.76181
11
3.0315
21
-4.76181
0
LINE
8
BLACK
6
CONTINUOUS
10
3.0315
20
-4.76181
11
3.03289
21
-4.76239
0
LINE
8
BLACK
6
CONTINUOUS
10
3.03289
20
-4.76239
11
3.03346
21
-4.76378
0
LINE
8
BLACK
6
CONTINUOUS
10
3.03346
20
-4.76378
11
3.03346
21
-4.99803
0
LINE
8
BLACK
6
CONTINUOUS
10
3.03346
20
-4.99803
11
6.73031
21
-4.99803
0
LINE
8
BLACK
6
CONTINUOUS
10
6.73031
20
-4.99803
11
6.73031
21
-4.76378
0
LINE
8
BLACK
6
CONTINUOUS
10
6.73031
20
-4.76378
11
6.73089
21
-4.76239
0
LINE
8
BLACK
6
CONTINUOUS
10
6.73089
20
-4.76239
11
6.73228
21
-4.76181
0
LINE
8
BLACK
6
CONTINUOUS
10
6.73228
20
-4.76181
11
7.75394
21
-4.76181
0
LINE
8
BLACK
6
CONTINUOUS
10
7.75394
20
-4.76181
11
7.75394
21
-3.58465
0
LINE
8
BLACK
6
CONTINUOUS
10
7.75394
20
-3.58465
11
6.73228
21
-3.58465
0
LINE
8
BLACK
6
CONTINUOUS
10
6.73228
20
-3.58465
11
6.73089
21
-3.58407
0
LINE
8
BLACK
6
CONTINUOUS
10
6.73089
20
-3.58407
11
6.73031
21
-3.58268
0
LINE
8
BLACK
6
CONTINUOUS
10
6.73031
20
-3.58268
11
6.73031
21
-3.30817
0
LINE
8
BLACK
6
CONTINUOUS
10
6.73031
20
-3.30817
11
6.29816
21
-3.03316
0
LINE
8
BLACK
6
CONTINUOUS
10
6.29816
20
-3.03316
11
6.29803
21
-3.03297
0
LINE
8
BLACK
6
CONTINUOUS
10
6.29803
20
-3.03297
11
6.29782
21
-3.03289
0
LINE
8
BLACK
6
CONTINUOUS
10
6.29782
20
-3.03289
11
6.29761
21
-3.03238
0
LINE
8
BLACK
6
CONTINUOUS
10
6.29761
20
-3.03238
11
6.29729
21
-3.03192
0
LINE
8
BLACK
6
CONTINUOUS
10
6.29729
20
-3.03192
11
6.29733
21
-3.0317
0
LINE
8
BLACK
6
CONTINUOUS
10
6.29733
20
-3.0317
11
6.29724
21
-3.0315
0
LINE
8
BLACK
6
CONTINUOUS
10
6.29724
20
-3.0315
11
6.29724
21
-2.24606
0
LINE
8
BLACK
6
CONTINUOUS
10
6.29724
20
-2.24606
11
5.66929
21
-2.24606
0
LINE
8
BLACK
6
CONTINUOUS
10
5.66929
20
-2.24606
11
5.66865
21
-2.2458
0
LINE
8
BLACK
6
CONTINUOUS
10
5.66865
20
-2.2458
11
5.668
21
-2.24558
0
LINE
8
BLACK
6
CONTINUOUS
10
5.668
20
-2.24558
11
5.35359
21
-1.97047
0
LINE
8
BLACK
6
CONTINUOUS
10
5.35359
20
-1.97047
11
4.88189
21
-1.97047
0
LINE
8
BLACK
6
CONTINUOUS
10
4.88189
20
-1.97047
11
4.41019
21
-1.97047
  0
ENDSEC
  0
EOF
